<svg width="1101" height="497" viewBox="0 0 1101 497" fill="none" xmlns="http://www.w3.org/2000/svg">
<g clip-path="url(#clip0_162_1866)">
<path d="M804.622 448.791L823.037 444.527C830.322 457.941 842.305 468.189 856.684 473.3C871.063 478.411 886.823 478.024 900.934 472.215C915.045 466.405 926.512 455.583 933.132 441.828C939.751 428.073 941.055 412.355 936.793 397.696C932.531 383.038 923.004 370.472 910.043 362.415C897.082 354.357 881.602 351.377 866.577 354.046C851.553 356.716 838.045 364.846 828.65 376.876C819.254 388.905 814.634 403.984 815.678 419.215L800.367 422.768M750.259 434.407L733.16 438.355C730.16 439.052 727.56 440.912 725.93 443.527C724.301 446.141 723.776 449.296 724.472 452.298L725.169 455.305C725.867 458.306 727.728 460.907 730.343 462.536C732.957 464.165 736.112 464.688 739.112 463.99L758.467 459.496M918.88 422.788C917.356 430.856 913.474 438.292 907.726 444.153C901.978 450.015 894.621 454.04 886.587 455.718C878.552 457.397 870.2 456.655 862.588 453.585C854.975 450.515 848.443 445.255 843.819 438.471C839.194 431.687 836.684 423.683 836.605 415.472C836.527 407.261 838.885 399.211 843.38 392.34C847.875 385.469 854.305 380.087 861.858 376.872C869.411 373.658 877.747 372.756 885.812 374.282C891.168 375.296 896.271 377.356 900.831 380.344C905.39 383.331 909.317 387.188 912.387 391.694C915.456 396.201 917.608 401.268 918.72 406.606C919.832 411.944 919.882 417.45 918.867 422.807L918.88 422.788Z" fill="#E71D73"/>
<path d="M440.64 207.571C418.891 207.051 399.595 209.545 386.218 217.888C389.296 161.809 363.857 107.895 318.688 92.7154C253.098 70.6733 227.272 107.243 218.485 139.826C209.58 172.764 227.85 210.262 246.601 166.672C265.469 122.798 289.198 125.259 322.529 145.202C355.86 165.145 335.025 239.443 334.696 289.732C334.518 318.815 340.99 343.535 352.144 360.438C333.769 389.613 295.288 389.665 298.412 410.997C302.108 436.23 317.774 484.848 318.912 495.026L405.159 494.5C405.159 494.5 412.492 470.609 395.951 462.766C379.411 454.923 367.52 461.042 367.52 461.042L366.001 442.158C365.442 435.355 370.98 429.209 379.319 427.38C387.869 425.518 399.437 422.992 412.117 420.281C413.871 421.158 415.693 421.985 417.582 422.761C414.241 432.631 411.736 440.599 411.334 443.527C409.966 453.548 428.434 464.661 442.508 474.195C456.582 483.729 468.92 494.138 468.92 494.138H572.293C572.293 494.138 572.366 456.18 544.671 457.292L514.05 459.121L494.247 444.961C490.827 442.56 489.052 439.322 489.078 436.052C492.936 436.228 496.92 436.355 501.028 436.434C531.36 436.973 559.021 436.636 584.013 435.421C594.371 457.134 601.856 476.083 602.204 481.61C602.599 487.822 602.494 491.217 608.748 493.007C615.114 494.829 690.957 492.908 690.957 492.908C690.957 492.908 692.661 479.09 690.674 474.814C687.136 467.188 665.308 452.12 658.593 452.12C658.593 452.12 656.844 440.382 654.877 428.933C668.535 426.928 680.811 424.573 691.707 421.866C693.627 424.985 695.745 427.189 697.955 428.255C719.868 438.783 752.101 415.754 756.31 449.014C760.519 482.275 787.74 479.59 798.335 467.918C808.931 456.246 805.8 443.007 796.264 404.93C791.206 384.73 761.144 371.788 761.144 371.788C764.47 366.404 767.188 360.666 769.247 354.681" stroke="#111111" stroke-width="6" stroke-linecap="round" stroke-linejoin="round"/>
<path d="M683.98 492.032C683.98 492.032 687.4 473.912 662.277 460.496M669.419 492.888C669.419 492.888 671.129 477.623 655.727 467.062M793.154 468.563C792.865 465.707 794.364 444.658 785.525 432.67M782.309 473.412C782.309 473.412 772.681 446.942 773.246 432.67M558.168 493.48C558.168 493.48 559.213 467.128 537.346 464.654M547.711 493.743C547.711 493.743 547.612 477.478 529.953 471.201M398.136 493.48C398.136 493.48 401.839 475.195 393.289 469.201C388.324 465.649 382.279 463.934 376.189 464.352M387.298 493.48C387.298 493.48 392.717 477.215 377.886 474.932" stroke="#111111" stroke-width="6" stroke-linecap="round" stroke-linejoin="round"/>
<path d="M758.606 326.263L698.534 325.039C696.59 324.998 694.743 324.186 693.397 322.782C692.052 321.377 691.318 319.496 691.359 317.551L691.583 307.024C691.602 306.061 691.811 305.112 692.198 304.23C692.584 303.348 693.141 302.551 693.835 301.885C694.529 301.218 695.348 300.695 696.245 300.345C697.142 299.995 698.098 299.825 699.06 299.845L758.251 301.082" stroke="#111111" stroke-width="6" stroke-linecap="round" stroke-linejoin="round"/>
<path d="M854.974 186.865C858.493 205.084 854.277 226.685 832.055 248.53C808.378 271.895 776.514 280.422 746.557 281.731C745.044 320.512 743.545 358.431 743.545 358.431C743.545 358.431 833.692 369.748 837.592 332.895C839.565 313.919 832.219 296.549 824.603 284.159L854.08 250.8C876.48 225.027 868.845 195.214 854.974 186.865ZM779.704 332.856C775.853 332.776 772.113 331.555 768.956 329.348C765.799 327.142 763.367 324.048 761.967 320.459C760.567 316.869 760.263 312.945 761.092 309.183C761.921 305.42 763.847 301.988 766.626 299.32C769.404 296.653 772.911 294.869 776.703 294.195C780.495 293.521 784.401 293.987 787.928 295.534C791.455 297.082 794.445 299.64 796.519 302.887C798.592 306.134 799.657 309.922 799.579 313.775C799.527 316.334 798.973 318.857 797.946 321.201C796.919 323.546 795.44 325.664 793.594 327.437C791.749 329.209 789.572 330.599 787.188 331.529C784.805 332.459 782.262 332.91 779.704 332.856Z" fill="#111111"/>
<path d="M829.128 143.438L779.474 147.044C757.974 148.13 737.521 141.076 718.619 132.898C714.529 131.134 702.178 121.021 702.178 121.021L701.987 120.633C691.115 97.4527 677.798 72.9892 672.345 70.9495C658.824 65.8897 638.62 125.213 632.826 143.254C574.332 183.897 637.318 258.84 670.201 270.901C700.75 282.087 783.611 296.437 832.074 248.596C878.611 202.827 846.234 158.138 829.128 143.438Z" stroke="#111111" stroke-width="6" stroke-linecap="round" stroke-linejoin="round"/>
<path d="M675.812 81.2271C675.812 81.2271 660.948 87.9055 656.641 140.484" stroke="#111111" stroke-width="6" stroke-linecap="round" stroke-linejoin="round"/>
<path d="M733.206 212.394C737.078 212.394 740.217 207.436 740.217 201.32C740.217 195.204 737.078 190.247 733.206 190.247C729.334 190.247 726.195 195.204 726.195 201.32C726.195 207.436 729.334 212.394 733.206 212.394Z" fill="#111111"/>
<path d="M794.013 183.32C797.881 183.15 800.8 178.06 800.532 171.95C800.264 165.84 796.911 161.024 793.043 161.194C789.175 161.363 786.256 166.454 786.524 172.564C786.792 178.674 790.144 183.49 794.013 183.32Z" fill="#111111"/>
<path d="M756.771 207.611C763.19 222.494 767.88 207.815 768.879 199.616C769.945 207.328 775.528 219.698 780.579 209.4" stroke="#111111" stroke-width="6" stroke-linecap="round" stroke-linejoin="round"/>
<path d="M780.69 192.391L771.331 200.531C770.608 201.089 769.714 201.378 768.802 201.351C767.889 201.323 767.014 200.98 766.326 200.379L757.52 192.484C755.409 190.589 756.757 187.562 759.736 187.522L777.908 187.292C781.051 187.239 782.84 190.516 780.69 192.391Z" fill="#111111"/>
<path d="M775.219 83.1946C783.012 74.3119 790.543 68.6007 795.442 71.7327C801.644 75.6805 811.759 108.79 817.145 136.918" stroke="#111111" stroke-width="6" stroke-linecap="round" stroke-linejoin="round"/>
<path d="M794.469 77.8848C794.469 77.8848 765.229 113.6 771.615 136.8" stroke="#111111" stroke-width="6" stroke-linecap="round" stroke-linejoin="round"/>
<path d="M729.859 104.427V93.0113L721.967 104.427H729.859ZM746.715 90.1425C746.201 90.1349 745.692 90.2332 745.217 90.4313C744.743 90.6294 744.315 90.923 743.959 91.294C742.333 93.1231 741.522 96.1937 741.526 100.506C741.53 104.817 742.341 107.888 743.959 109.717C744.32 110.082 744.749 110.372 745.222 110.569C745.695 110.767 746.202 110.869 746.715 110.869C747.228 110.869 747.735 110.767 748.208 110.569C748.681 110.372 749.11 110.082 749.471 109.717C751.089 107.892 751.897 104.822 751.897 100.506C751.897 96.1893 751.089 93.1187 749.471 91.294C749.114 90.924 748.686 90.631 748.212 90.4329C747.738 90.2349 747.229 90.1361 746.715 90.1425ZM768.754 104.427V93.0113L760.862 104.427H768.754Z" fill="#111111"/>
<path d="M862.624 126.37C855.508 123.344 810.418 119.231 792.687 117.705C792.2 106.737 777.475 61.0074 745.295 61.1193C744.157 61.1193 743.059 61.1587 742.007 61.218L741.796 57.8623C741.796 57.8623 704.907 59.7112 686.848 91.136L703.664 129.47L706.341 130.851C706.591 130.957 713.523 133.74 717.522 135.457C736.423 143.629 757.975 148.103 779.474 147.018L860.717 141.096C863.032 140.984 864.893 139.622 865.169 137.852L866.156 131.595C866.465 129.489 865.077 127.41 862.624 126.37ZM735.963 106.631C735.844 106.755 735.701 106.853 735.542 106.918C735.384 106.984 735.213 107.016 735.042 107.013H732.451V112.204C732.453 112.375 732.421 112.544 732.355 112.701C732.289 112.859 732.192 113.001 732.069 113.119C731.824 113.356 731.496 113.489 731.155 113.489C730.814 113.489 730.486 113.356 730.241 113.119C730.118 113.001 730.021 112.859 729.955 112.701C729.89 112.544 729.857 112.375 729.859 112.204V107.013H719.495C719.146 107.013 718.811 106.874 718.564 106.627C718.318 106.381 718.179 106.046 718.179 105.697C718.175 105.423 718.26 105.155 718.423 104.934L730.09 88.0699C730.203 87.8963 730.36 87.7556 730.544 87.662C730.729 87.5685 730.935 87.5253 731.142 87.5369C731.491 87.5369 731.825 87.6755 732.072 87.9223C732.319 88.1691 732.457 88.5038 732.457 88.8528V104.42H735.049C735.397 104.42 735.732 104.559 735.979 104.806C736.225 105.053 736.364 105.387 736.364 105.736C736.357 105.908 736.316 106.076 736.242 106.231C736.169 106.386 736.065 106.524 735.936 106.638L735.963 106.631ZM751.3 111.599C750.697 112.202 749.982 112.68 749.195 113.007C748.408 113.333 747.564 113.501 746.712 113.501C745.86 113.501 745.017 113.333 744.23 113.007C743.442 112.68 742.727 112.202 742.125 111.599C739.999 109.406 738.935 105.714 738.935 100.525C738.935 95.3361 739.999 91.6448 742.125 89.4516C743.344 88.2386 744.993 87.5576 746.712 87.5576C748.432 87.5576 750.081 88.2386 751.3 89.4516C753.43 91.6448 754.496 95.3361 754.496 100.525C754.496 105.714 753.43 109.408 751.3 111.606V111.599ZM774.857 106.631C774.739 106.754 774.597 106.851 774.44 106.917C774.283 106.983 774.114 107.015 773.943 107.013H771.313V112.204C771.315 112.375 771.282 112.544 771.217 112.701C771.151 112.859 771.054 113.001 770.931 113.119C770.686 113.356 770.358 113.489 770.017 113.489C769.676 113.489 769.348 113.356 769.103 113.119C768.98 113.001 768.883 112.859 768.817 112.701C768.751 112.544 768.719 112.375 768.721 112.204V107.013H758.35C758.001 107.013 757.666 106.874 757.42 106.627C757.173 106.381 757.034 106.046 757.034 105.697C757.03 105.423 757.116 105.155 757.278 104.934L768.945 88.0699C769.059 87.8972 769.216 87.7573 769.401 87.6638C769.585 87.5704 769.791 87.5266 769.997 87.5369C770.346 87.5369 770.681 87.6755 770.927 87.9223C771.174 88.1691 771.313 88.5038 771.313 88.8528V104.42H773.943C774.114 104.418 774.283 104.451 774.44 104.516C774.597 104.582 774.739 104.679 774.857 104.802C775.095 105.047 775.227 105.375 775.227 105.717C775.227 106.058 775.095 106.386 774.857 106.631Z" fill="#111111"/>
<path d="M733.58 62.5671C743.035 62.5671 750.699 58.8317 750.699 54.224C750.699 49.6162 743.035 45.8809 733.58 45.8809C724.125 45.8809 716.461 49.6162 716.461 54.224C716.461 58.8317 724.125 62.5671 733.58 62.5671Z" fill="#E71D73"/>
<path d="M732.404 47.5783C739.98 47.5783 749.03 41.4328 747.767 27.0429C746.504 12.6531 765.386 1.63201 775.758 15.6666M731.746 47.3743C728.458 39.6629 710.924 9.3303 693.207 12.4623C672.431 15.3113 731.746 47.3743 731.746 47.3743ZM731.825 47.0651C729.089 40.6761 721.033 12.686 733.43 3.49408C747.471 -7.75068 731.825 47.0651 731.825 47.0651Z" stroke="#111111" stroke-width="6" stroke-linecap="round" stroke-linejoin="round"/>
<path d="M732.502 45.9003C737.441 49.9995 746.655 50.8878 753.607 40.8339C760.558 30.7801 778.809 33.8068 777.98 48.5585" stroke="#111111" stroke-width="6" stroke-linecap="round" stroke-linejoin="round"/>
<path d="M832.614 191.47C832.614 191.47 879.624 147.347 934.876 180.805M832.285 200.202C832.285 200.202 886.872 165.895 934.691 209.314" stroke="#111111" stroke-width="6" stroke-linecap="round" stroke-linejoin="round"/>
<path d="M582.811 303.102C580.154 301.789 577.124 301.438 574.238 302.109C571.351 302.779 568.786 304.43 566.98 306.78C565.173 309.13 564.237 312.034 564.331 314.998C564.424 317.961 565.541 320.8 567.492 323.032C569.443 325.263 572.106 326.749 575.029 327.237C577.952 327.724 580.954 327.183 583.523 325.705C586.092 324.227 588.069 321.903 589.118 319.131C590.167 316.358 590.222 313.307 589.275 310.498C588.76 308.889 587.921 307.402 586.809 306.13C585.697 304.858 584.336 303.828 582.811 303.102Z" fill="#111111"/>
<path d="M726.17 215.769L695.16 204.63C623.053 177.949 617.417 163.395 618.397 156.927C622.451 151.621 627.337 147.006 632.866 143.261C635.417 135.313 640.758 119.357 647.111 104.44C614.707 110.764 588.617 131.305 587.013 176.337C587.013 176.337 536.122 133.76 444.738 155.598C429.612 159.217 427.968 171.047 430.559 185.647C461.062 357.28 609.005 386.842 730.471 356.194C731.451 347.246 732.654 307.057 733.332 281.889H733.233L748.182 262.459C758.521 237.673 742.947 218.638 726.17 215.769ZM637.476 117.488C637.961 117.314 638.496 117.337 638.964 117.552C639.433 117.767 639.799 118.157 639.984 118.638C640.169 119.12 640.158 119.655 639.953 120.129C639.749 120.602 639.367 120.977 638.89 121.173C625.079 126.483 618.699 140.576 619.515 151.762C619.553 152.284 619.382 152.799 619.041 153.195C618.699 153.591 618.214 153.835 617.693 153.874H617.555C617.056 153.875 616.575 153.687 616.209 153.348C615.842 153.008 615.619 152.543 615.582 152.045C614.655 139.412 621.876 123.482 637.476 117.488ZM498.516 268.296C498.488 268.537 498.411 268.771 498.29 268.983C498.169 269.194 498.006 269.379 497.812 269.526C497.632 269.68 497.423 269.795 497.197 269.865C496.971 269.935 496.733 269.959 496.497 269.934C492.807 269.202 489.477 267.23 487.061 264.345C484.645 261.46 483.287 257.836 483.213 254.072C483.138 250.309 484.352 246.634 486.653 243.656C488.953 240.678 492.202 238.576 495.861 237.699C499.52 236.822 503.368 237.223 506.768 238.835C510.167 240.447 512.914 243.173 514.552 246.561C516.191 249.949 516.622 253.796 515.774 257.463C514.927 261.13 512.852 264.398 509.894 266.723C509.706 266.873 509.49 266.983 509.259 267.049C509.027 267.114 508.785 267.133 508.547 267.105C508.308 267.076 508.078 267 507.869 266.881C507.66 266.763 507.476 266.604 507.329 266.414L490.368 244.806C488.515 246.873 487.328 249.45 486.961 252.201C486.729 253.877 486.843 255.582 487.295 257.211C487.748 258.841 488.529 260.361 489.592 261.676C491.432 264.084 494.098 265.724 497.076 266.282C497.488 266.37 497.854 266.604 498.108 266.94C498.269 267.124 498.388 267.34 498.458 267.574C498.529 267.808 498.548 268.054 498.516 268.296ZM526.697 269.407C525.012 269.483 523.359 269.905 521.843 270.646C520.327 271.388 518.98 272.433 517.885 273.717L508.184 284.738C508.027 284.922 507.836 285.072 507.62 285.179C507.404 285.287 507.168 285.349 506.928 285.363C506.439 285.396 505.957 285.234 505.587 284.912C505.218 284.59 504.99 284.135 504.955 283.646C504.936 283.407 504.968 283.166 505.047 282.94C505.126 282.713 505.252 282.506 505.415 282.33L524.823 260.295C524.978 260.111 525.168 259.961 525.383 259.855C525.598 259.748 525.833 259.688 526.073 259.676C526.315 259.657 526.558 259.687 526.789 259.763C527.02 259.839 527.233 259.96 527.416 260.119C527.6 260.278 527.75 260.472 527.858 260.69C527.966 260.907 528.03 261.144 528.046 261.387C528.064 261.626 528.032 261.867 527.953 262.093C527.874 262.319 527.749 262.527 527.585 262.703L524.823 265.822C530.453 265.466 534.984 266.802 538.417 269.829C540.065 271.216 541.409 272.93 542.363 274.862C542.524 275.168 542.618 275.504 542.639 275.849C542.648 276.331 542.473 276.797 542.151 277.155C541.829 277.513 541.383 277.735 540.903 277.777C540.664 277.792 540.425 277.76 540.199 277.681C539.973 277.601 539.765 277.478 539.588 277.316C539.375 277.136 539.205 276.912 539.088 276.658C538.376 275.086 537.317 273.696 535.99 272.592C534.742 271.456 533.275 270.588 531.679 270.04C530.084 269.492 528.393 269.277 526.711 269.407H526.697ZM548.914 287.304C547.246 287.586 545.655 288.208 544.239 289.133C542.824 290.058 541.614 291.266 540.686 292.68L532.419 304.806C532.289 305.015 532.117 305.196 531.915 305.337C531.714 305.478 531.485 305.576 531.244 305.627C531.003 305.677 530.755 305.679 530.513 305.631C530.272 305.583 530.042 305.487 529.839 305.348C529.635 305.209 529.462 305.031 529.329 304.823C529.197 304.616 529.107 304.384 529.066 304.141C529.025 303.898 529.034 303.649 529.091 303.41C529.149 303.17 529.254 302.945 529.4 302.747L545.934 278.488C546.067 278.286 546.239 278.114 546.44 277.981C546.641 277.849 546.868 277.759 547.105 277.718C547.341 277.671 547.583 277.673 547.819 277.723C548.054 277.772 548.276 277.869 548.473 278.007C548.672 278.142 548.842 278.315 548.974 278.516C549.105 278.716 549.196 278.941 549.241 279.177C549.286 279.413 549.283 279.656 549.234 279.891C549.184 280.126 549.089 280.349 548.953 280.547L546.612 283.982C552.149 282.933 556.81 283.701 560.594 286.284C562.407 287.454 563.959 288.986 565.152 290.785C565.352 291.068 565.486 291.391 565.546 291.733C565.61 292.09 565.566 292.458 565.421 292.79C565.276 293.123 565.035 293.405 564.729 293.601C564.424 293.796 564.067 293.897 563.705 293.89C563.342 293.883 562.99 293.769 562.692 293.562C562.452 293.406 562.251 293.196 562.107 292.95C561.207 291.478 559.986 290.23 558.535 289.298C557.154 288.328 555.589 287.651 553.937 287.308C552.285 286.965 550.58 286.964 548.927 287.304H548.914ZM591.925 321.927C590.238 325.351 587.417 328.084 583.941 329.661C580.466 331.237 576.552 331.559 572.865 330.572C569.179 329.585 565.949 327.349 563.726 324.247C561.502 321.144 560.423 317.366 560.671 313.557C560.92 309.747 562.481 306.142 565.088 303.354C567.696 300.567 571.189 298.771 574.972 298.271C578.755 297.771 582.594 298.599 585.835 300.614C589.077 302.629 591.519 305.706 592.748 309.32C593.482 311.365 593.789 313.539 593.65 315.707C593.511 317.876 592.928 319.993 591.939 321.927H591.925ZM625.276 318.17C625.208 318.4 625.094 318.614 624.943 318.801C624.791 318.987 624.604 319.141 624.393 319.255C624.181 319.369 623.949 319.44 623.71 319.463C623.471 319.487 623.23 319.464 623 319.394C622.726 319.315 622.472 319.175 622.257 318.986C620.959 317.849 619.418 317.025 617.752 316.578C614.495 315.61 610.987 315.969 607.994 317.578C605 319.186 602.763 321.913 601.771 325.164L597.535 339.218C597.468 339.45 597.355 339.665 597.203 339.853C597.051 340.04 596.863 340.195 596.651 340.309C596.438 340.423 596.205 340.493 595.965 340.516C595.725 340.539 595.483 340.514 595.253 340.442C595.023 340.375 594.808 340.262 594.622 340.11C594.435 339.958 594.281 339.771 594.168 339.559C594.054 339.347 593.984 339.115 593.962 338.876C593.939 338.636 593.965 338.395 594.037 338.166L602.514 310.057C602.579 309.825 602.69 309.609 602.842 309.423C602.994 309.236 603.182 309.082 603.395 308.971C603.715 308.795 604.08 308.717 604.443 308.75C604.807 308.782 605.153 308.923 605.436 309.154C605.719 309.385 605.926 309.695 606.031 310.045C606.136 310.394 606.135 310.768 606.026 311.116L604.822 315.064C609.794 312.397 614.47 311.726 618.851 313.051C620.932 313.623 622.873 314.617 624.553 315.972C624.826 316.183 625.05 316.45 625.21 316.755C625.32 316.973 625.384 317.211 625.398 317.454C625.412 317.698 625.375 317.941 625.289 318.17H625.276ZM701.375 283.988H701.204C680.54 282.185 661.698 275.889 645.197 265.256C632.004 256.755 620.284 245.516 610.34 231.778C593.471 208.473 587.729 186.457 587.493 185.536C587.421 185.282 587.4 185.017 587.432 184.755C587.465 184.494 587.549 184.241 587.68 184.013C587.811 183.784 587.987 183.585 588.196 183.425C588.406 183.266 588.645 183.15 588.901 183.084C589.156 183.019 589.421 183.005 589.682 183.044C589.942 183.083 590.192 183.174 590.417 183.311C590.642 183.448 590.837 183.628 590.991 183.842C591.145 184.056 591.255 184.298 591.314 184.555C591.373 184.779 597.154 206.867 613.622 229.58C628.749 250.432 656.266 276.112 701.527 280.053C702.05 280.076 702.543 280.306 702.897 280.692C703.251 281.078 703.437 281.589 703.414 282.113C703.391 282.636 703.162 283.129 702.776 283.484C702.39 283.838 701.879 284.024 701.356 284.001L701.375 283.988Z" fill="#111111"/>
<path d="M512.492 255.294C512.698 253.621 512.572 251.924 512.121 250.301C511.67 248.677 510.904 247.158 509.865 245.831C508.826 244.504 507.536 243.395 506.069 242.567C504.601 241.74 502.984 241.211 501.312 241.01C498.55 240.713 495.763 241.256 493.314 242.569L509.099 262.67C510.957 260.617 512.142 258.042 512.492 255.294Z" fill="#111111"/>
<path d="M716.402 191.47C716.402 191.47 669.392 147.386 614.141 180.831M716.718 200.202C716.718 200.202 662.131 165.895 614.312 209.315" stroke="#111111" stroke-width="6" stroke-linecap="round" stroke-linejoin="round"/>
<path d="M1.97266 494.197H1168.03" stroke="#111111" stroke-width="6" stroke-linecap="round" stroke-linejoin="round"/>
</g>
<defs>
<clipPath id="clip0_162_1866">
<rect width="1170" height="497" fill="white"/>
</clipPath>
</defs>
</svg>
