<svg width="176" height="91" viewBox="0 0 176 91" fill="none" xmlns="http://www.w3.org/2000/svg">
<path d="M2.34481 0.689677C2.17342 0.223103 1.65625 -0.016194 1.18968 0.155192C0.723103 0.326579 0.483806 0.843748 0.655192 1.31032L2.34481 0.689677ZM20.9663 23.4314L21.5995 22.7918L20.9663 23.4314ZM85.3032 59.3825L85.0303 60.2402L85.3032 59.3825ZM175.636 84.1366C175.988 83.7851 175.988 83.2153 175.636 82.8638L169.909 77.1362C169.557 76.7848 168.987 76.7848 168.636 77.1362C168.284 77.4877 168.284 78.0575 168.636 78.409L173.727 83.5002L168.636 88.5914C168.284 88.9428 168.284 89.5127 168.636 89.8641C168.987 90.2156 169.557 90.2156 169.909 89.8641L175.636 84.1366ZM1.66379 3.69337C1.87908 4.14138 2.41679 4.33004 2.8648 4.11475C3.31282 3.89946 3.50147 3.36175 3.28618 2.91373L1.66379 3.69337ZM5.75926 7.07913C5.47164 6.67374 4.90985 6.57828 4.50446 6.8659C4.09907 7.15352 4.00361 7.71532 4.29123 8.12071L5.75926 7.07913ZM7.51921 12.0843C7.8551 12.4507 8.42441 12.4755 8.7908 12.1396C9.1572 11.8037 9.18193 11.2344 8.84605 10.868L7.51921 12.0843ZM12.3302 14.3599C11.9673 14.0203 11.3978 14.0391 11.0581 14.402C10.7185 14.7649 10.7373 15.3345 11.1002 15.6741L12.3302 14.3599ZM14.834 19.0425C15.2065 19.3716 15.7753 19.3364 16.1044 18.9639C16.4335 18.5914 16.3983 18.0226 16.0259 17.6935L14.834 19.0425ZM19.7678 21.0444C19.4029 20.7069 18.8335 20.7293 18.496 21.0942C18.1586 21.4592 18.1809 22.0286 18.5459 22.3661L19.7678 21.0444ZM22.6261 26.2019C22.9995 26.53 23.5682 26.4932 23.8962 26.1198C24.2243 25.7463 24.1875 25.1777 23.8141 24.8496L22.6261 26.2019ZM28.5663 28.6874C28.1691 28.3887 27.6048 28.4686 27.3061 28.8659C27.0074 29.2632 27.0873 29.8274 27.4846 30.1261L28.5663 28.6874ZM32.5516 33.7352C32.963 34.0143 33.5226 33.907 33.8017 33.4957C34.0808 33.0844 33.9735 32.5247 33.5622 32.2457L32.5516 33.7352ZM38.7136 35.6033C38.2927 35.3389 37.7372 35.4659 37.4728 35.8868C37.2085 36.3078 37.3355 36.8633 37.7564 37.1276L38.7136 35.6033ZM43.0551 40.3487C43.4833 40.6011 44.035 40.4585 44.2874 40.0303C44.5398 39.6021 44.3973 39.0504 43.9691 38.798L43.0551 40.3487ZM49.3104 41.8584C48.8762 41.6164 48.3281 41.7722 48.0861 42.2063C47.8441 42.6405 47.9998 43.1886 48.434 43.4306L49.3104 41.8584ZM53.8793 46.388C54.3186 46.6205 54.8633 46.4528 55.0958 46.0135C55.3283 45.5742 55.1606 45.0296 54.7213 44.7971L53.8793 46.388ZM60.1962 47.6212C59.7521 47.398 59.2111 47.5771 58.9879 48.0212C58.7647 48.4653 58.9438 49.0063 59.3879 49.2295L60.1962 47.6212ZM64.9537 51.9527C65.4026 52.1662 65.9395 51.9755 66.1531 51.5266C66.3666 51.0778 66.1759 50.5408 65.727 50.3273L64.9537 51.9527ZM71.318 52.9068C70.8641 52.7042 70.3319 52.9079 70.1293 53.3618C69.9267 53.8157 70.1304 54.3479 70.5843 54.5505L71.318 52.9068ZM76.2801 56.9953C76.7399 57.1841 77.2657 56.9644 77.4545 56.5046C77.6433 56.0448 77.4236 55.519 76.9638 55.3302L76.2801 56.9953ZM82.6917 57.545C82.2238 57.3772 81.7085 57.6204 81.5407 58.0883C81.3729 58.5561 81.6161 59.0715 82.084 59.2393L82.6917 57.545ZM87.7978 61.1357C88.27 61.2909 88.7786 61.0339 88.9339 60.5617C89.0891 60.0896 88.8322 59.5809 88.36 59.4257L87.7978 61.1357ZM93.9011 61.2976C93.4314 61.135 92.9188 61.384 92.7562 61.8537C92.5937 62.3235 92.8427 62.836 93.3124 62.9986L93.9011 61.2976ZM98.806 64.9356C99.2739 65.1032 99.7891 64.8598 99.9568 64.3918C100.124 63.9239 99.881 63.4087 99.413 63.241L98.806 64.9356ZM104.904 65.2297C104.437 65.0592 103.921 65.2995 103.75 65.7664C103.58 66.2333 103.82 66.75 104.287 66.9205L104.904 65.2297ZM109.764 68.9275C110.231 69.0986 110.748 68.8591 110.919 68.3924C111.09 67.9257 110.851 67.4087 110.384 67.2376L109.764 68.9275ZM115.862 69.2382C115.395 69.0687 114.879 69.31 114.709 69.7773C114.54 70.2445 114.781 70.7608 115.248 70.9303L115.862 69.2382ZM120.748 72.9022C121.216 73.0678 121.73 72.8222 121.896 72.3535C122.062 71.8849 121.816 71.3707 121.347 71.2051L120.748 72.9022ZM126.849 73.1108C126.379 72.9514 125.868 73.2039 125.708 73.6748C125.549 74.1456 125.802 74.6564 126.272 74.8158L126.849 73.1108ZM131.831 76.6425C132.305 76.793 132.811 76.5311 132.962 76.0574C133.112 75.5837 132.85 75.0776 132.377 74.9271L131.831 76.6425ZM137.937 76.6245C137.459 76.4852 136.96 76.7592 136.82 77.2363C136.681 77.7135 136.955 78.2132 137.432 78.3524L137.937 76.6245ZM143.081 79.9144C143.562 80.0396 144.054 79.7512 144.179 79.2701C144.304 78.7891 144.016 78.2977 143.535 78.1724L143.081 79.9144ZM149.175 79.5392C148.689 79.4308 148.208 79.7361 148.1 80.2212C147.991 80.7063 148.297 81.1874 148.782 81.2959L149.175 79.5392ZM154.535 82.4635C155.024 82.5524 155.493 82.2279 155.582 81.7389C155.67 81.2498 155.346 80.7813 154.857 80.6925L154.535 82.4635ZM160.579 81.6002C160.086 81.5337 159.633 81.8792 159.566 82.3718C159.5 82.8644 159.845 83.3176 160.338 83.384L160.579 81.6002ZM166.183 84.0252C166.678 84.0667 167.113 83.6988 167.155 83.2035C167.196 82.7082 166.828 82.273 166.333 82.2315L166.183 84.0252ZM172.109 82.5584C171.612 82.5441 171.197 82.9352 171.183 83.4321C171.169 83.9289 171.56 84.3433 172.057 84.3576L172.109 82.5584ZM0.655192 1.31032C0.956595 2.13085 1.29427 2.92442 1.66379 3.69337L3.28618 2.91373C2.9407 2.19478 2.62565 1.45423 2.34481 0.689677L0.655192 1.31032ZM4.29123 8.12071C5.28429 9.52036 6.3736 10.8347 7.51921 12.0843L8.84605 10.868C7.74073 9.66226 6.70089 8.40629 5.75926 7.07913L4.29123 8.12071ZM11.1002 15.6741C12.3365 16.8312 13.5961 17.9487 14.834 19.0425L16.0259 17.6935C14.7875 16.5994 13.5455 15.4974 12.3302 14.3599L11.1002 15.6741ZM18.5459 22.3661C19.1596 22.9334 19.7569 23.5005 20.3331 24.071L21.5995 22.7918C21.0054 22.2037 20.3927 21.6221 19.7678 21.0444L18.5459 22.3661ZM20.3331 24.071C21.0403 24.7711 21.8068 25.4822 22.6261 26.2019L23.8141 24.8496C23.0179 24.1503 22.278 23.4635 21.5995 22.7918L20.3331 24.071ZM27.4846 30.1261C29.0707 31.3186 30.7679 32.5251 32.5516 33.7352L33.5622 32.2457C31.7991 31.0495 30.1259 29.8599 28.5663 28.6874L27.4846 30.1261ZM37.7564 37.1276C39.4766 38.2078 41.2486 39.284 43.0551 40.3487L43.9691 38.798C42.1759 37.7411 40.4184 36.6738 38.7136 35.6033L37.7564 37.1276ZM48.434 43.4306C50.2374 44.436 52.0578 45.424 53.8793 46.388L54.7213 44.7971C52.9109 43.839 51.102 42.8572 49.3104 41.8584L48.434 43.4306ZM59.3879 49.2295C61.2647 50.1728 63.1258 51.083 64.9537 51.9527L65.727 50.3273C63.9111 49.4633 62.0616 48.5588 60.1962 47.6212L59.3879 49.2295ZM70.5843 54.5505C72.5576 55.4313 74.4648 56.25 76.2801 56.9953L76.9638 55.3302C75.1668 54.5924 73.2763 53.781 71.318 52.9068L70.5843 54.5505ZM82.084 59.2393C83.1197 59.6108 84.1044 59.9455 85.0303 60.2402L85.5761 58.5249C84.6738 58.2378 83.71 57.9102 82.6917 57.545L82.084 59.2393ZM85.0303 60.2402C85.9542 60.5342 86.8767 60.8328 87.7978 61.1357L88.36 59.4257C87.4337 59.1212 86.5058 58.8207 85.5761 58.5249L85.0303 60.2402ZM93.3124 62.9986C95.1476 63.6337 96.9784 64.2808 98.806 64.9356L99.413 63.241C97.5807 62.5846 95.7437 61.9352 93.9011 61.2976L93.3124 62.9986ZM104.287 66.9205C106.115 67.5881 107.94 68.2584 109.764 68.9275L110.384 67.2376C108.561 66.5689 106.734 65.8979 104.904 65.2297L104.287 66.9205ZM115.248 70.9303C117.081 71.5953 118.914 72.2542 120.748 72.9022L121.347 71.2051C119.52 70.5592 117.692 69.9021 115.862 69.2382L115.248 70.9303ZM126.272 74.8158C128.123 75.4421 129.976 76.0526 131.831 76.6425L132.377 74.9271C130.533 74.341 128.691 73.734 126.849 73.1108L126.272 74.8158ZM137.432 78.3524C139.311 78.9006 141.193 79.4229 143.081 79.9144L143.535 78.1724C141.665 77.6858 139.8 77.1682 137.937 76.6245L137.432 78.3524ZM148.782 81.2959C150.693 81.723 152.61 82.1139 154.535 82.4635L154.857 80.6925C152.957 80.3475 151.063 79.9614 149.175 79.5392L148.782 81.2959ZM160.338 83.384C162.277 83.6457 164.225 83.8611 166.183 84.0252L166.333 82.2315C164.407 82.07 162.489 81.858 160.579 81.6002L160.338 83.384ZM172.057 84.3576C173.035 84.3858 174.016 84.4002 175 84.4002V82.6002C174.034 82.6002 173.07 82.586 172.109 82.5584L172.057 84.3576Z" fill="white" fill-opacity="0.35"/>
</svg>
