<svg width="161" height="85" viewBox="0 0 161 85" fill="none" xmlns="http://www.w3.org/2000/svg">
<path d="M0.578661 83.2047C0.139439 83.4374 -0.027981 83.9821 0.204718 84.4213C0.437417 84.8606 0.982117 85.028 1.42134 84.7953L0.578661 83.2047ZM10.7838 76.3463L11.351 77.0451L10.7838 76.3463ZM40.6941 55.2424L40.1963 54.4926L40.6941 55.2424ZM88.7743 30.3117L88.4105 29.4885L88.7743 30.3117ZM160.703 6.56172C161.013 6.17335 160.95 5.60704 160.562 5.29681L154.233 0.241374C153.845 -0.0688524 153.278 -0.00551224 152.968 0.382849C152.658 0.77121 152.721 1.33753 153.11 1.64775L158.735 6.14147L154.241 11.767C153.931 12.1554 153.994 12.7217 154.383 13.0319C154.771 13.3421 155.338 13.2788 155.648 12.8904L160.703 6.56172ZM4.16549 83.0913C4.57008 82.8025 4.664 82.2405 4.37526 81.8359C4.08652 81.4313 3.52447 81.3374 3.11987 81.6261L4.16549 83.0913ZM7.82262 77.699C7.45095 78.0291 7.4172 78.5979 7.74724 78.9696C8.07728 79.3413 8.64612 79.375 9.01779 79.045L7.82262 77.699ZM13.7248 75.1533C14.1162 74.8469 14.1851 74.2813 13.8787 73.8899C13.5723 73.4985 13.0066 73.4296 12.6152 73.736L13.7248 75.1533ZM17.4986 70.0311C17.0985 70.326 17.0132 70.8895 17.3081 71.2896C17.603 71.6897 18.1665 71.775 18.5666 71.4801L17.4986 70.0311ZM23.5049 67.9269C23.9113 67.6408 24.0089 67.0793 23.7227 66.6729C23.4366 66.2665 22.8752 66.1689 22.4687 66.4551L23.5049 67.9269ZM27.4995 62.9746C27.0887 63.2544 26.9826 63.8143 27.2625 64.2251C27.5423 64.6359 28.1022 64.742 28.513 64.4621L27.4995 62.9746ZM33.5676 61.0562C33.981 60.7801 34.0923 60.2212 33.8163 59.8079C33.5402 59.3945 32.9814 59.2832 32.568 59.5592L33.5676 61.0562ZM37.6539 56.1789C37.2396 56.4535 37.1264 57.012 37.4011 57.4263C37.6758 57.8406 38.2342 57.9538 38.6485 57.6791L37.6539 56.1789ZM43.451 54.5163C43.8691 54.2475 43.9901 53.6906 43.7213 53.2725C43.4525 52.8545 42.8956 52.7334 42.4775 53.0022L43.451 54.5163ZM47.1005 50.1209C46.6751 50.378 46.5387 50.9313 46.7959 51.3567C47.053 51.782 47.6063 51.9184 48.0317 51.6613L47.1005 50.1209ZM52.6883 48.9275C53.1201 48.6812 53.2704 48.1316 53.0241 47.6998C52.7778 47.2681 52.2281 47.1178 51.7964 47.3641L52.6883 48.9275ZM56.5551 44.7217C56.1179 44.9581 55.9551 45.5042 56.1916 45.9415C56.4281 46.3787 56.9742 46.5414 57.4114 46.305L56.5551 44.7217ZM62.1914 43.7826C62.6333 43.5549 62.8069 43.0121 62.5792 42.5703C62.3515 42.1285 61.8088 41.9548 61.3669 42.1825L62.1914 43.7826ZM66.2229 39.7343C65.7772 39.9544 65.5943 40.4941 65.8143 40.9398C66.0343 41.3855 66.574 41.5684 67.0197 41.3483L66.2229 39.7343ZM71.8882 38.9895C72.337 38.7759 72.5277 38.2389 72.3141 37.7901C72.1005 37.3413 71.5635 37.1506 71.1147 37.3642L71.8882 38.9895ZM76.0345 35.0588C75.5833 35.2672 75.3864 35.802 75.5948 36.2533C75.8032 36.7045 76.338 36.9014 76.7892 36.693L76.0345 35.0588ZM81.7155 34.4452C82.1686 34.2407 82.3701 33.7077 82.1656 33.2546C81.9612 32.8016 81.4281 32.6001 80.9751 32.8045L81.7155 34.4452ZM85.9297 30.5875C85.4755 30.7892 85.2708 31.3211 85.4726 31.7753C85.6744 32.2296 86.2062 32.4342 86.6605 32.2325L85.9297 30.5875ZM92.0179 29.8576C92.472 29.6556 92.6764 29.1236 92.4744 28.6695C92.2723 28.2153 91.7404 28.011 91.2863 28.213L92.0179 29.8576ZM97.0382 25.6479C96.5843 25.8504 96.3804 26.3825 96.5829 26.8365C96.7853 27.2904 97.3174 27.4943 97.7714 27.2918L97.0382 25.6479ZM103.524 24.738C103.979 24.5374 104.185 24.0061 103.984 23.5513C103.784 23.0965 103.252 22.8904 102.798 23.091L103.524 24.738ZM108.579 20.5707C108.122 20.7671 107.911 21.2964 108.107 21.753C108.304 22.2097 108.833 22.4207 109.29 22.2243L108.579 20.5707ZM115.08 19.78C115.54 19.5902 115.758 19.0639 115.568 18.6045C115.379 18.1452 114.852 17.9267 114.393 18.1165L115.08 19.78ZM120.252 15.7582C119.789 15.9391 119.56 16.4611 119.741 16.9241C119.922 17.387 120.444 17.6156 120.907 17.4346L120.252 15.7582ZM126.779 15.2188C127.246 15.0492 127.487 14.5329 127.318 14.0657C127.148 13.5985 126.632 13.3572 126.165 13.5268L126.779 15.2188ZM132.14 11.4553C131.668 11.6108 131.412 12.1196 131.567 12.5917C131.723 13.0638 132.232 13.3204 132.704 13.1649L132.14 11.4553ZM138.688 11.3072C139.165 11.1686 139.44 10.6692 139.301 10.1919C139.163 9.71455 138.663 9.44002 138.186 9.57868L138.688 11.3072ZM144.304 7.93474C143.821 8.05352 143.526 8.54108 143.645 9.02374C143.764 9.50639 144.251 9.80137 144.734 9.68259L144.304 7.93474ZM150.84 8.32932C151.328 8.23357 151.646 7.76055 151.55 7.2728C151.454 6.78506 150.981 6.46729 150.493 6.56304L150.84 8.32932ZM156.75 5.50452C156.258 5.57405 155.915 6.0294 155.985 6.52157C156.054 7.01373 156.51 7.35635 157.002 7.28682L156.75 5.50452ZM1.42134 84.7953C2.41429 84.2692 3.31809 83.696 4.16549 83.0913L3.11987 81.6261C2.32809 82.1912 1.49195 82.7209 0.578661 83.2047L1.42134 84.7953ZM9.01779 79.045C9.77356 78.3739 10.5382 77.7048 11.351 77.0451L10.2165 75.6476C9.37202 76.3331 8.58338 77.0235 7.82262 77.699L9.01779 79.045ZM11.351 77.0451C12.1325 76.4106 12.9242 75.7801 13.7248 75.1533L12.6152 73.736C11.8068 74.3689 11.0068 75.0061 10.2165 75.6476L11.351 77.0451ZM18.5666 71.4801C20.1914 70.2825 21.8406 69.0986 23.5049 67.9269L22.4687 66.4551C20.7955 67.633 19.1356 68.8247 17.4986 70.0311L18.5666 71.4801ZM28.513 64.4621C30.1955 63.3158 31.8834 62.1809 33.5676 61.0562L32.568 59.5592C30.8807 60.686 29.188 61.8241 27.4995 62.9746L28.513 64.4621ZM38.6485 57.6791C39.5001 57.1145 40.3485 56.5522 41.1919 55.9922L40.1963 54.4926C39.3535 55.0522 38.5057 55.6142 37.6539 56.1789L38.6485 57.6791ZM41.1919 55.9922C41.9422 55.4941 42.6952 55.0022 43.451 54.5163L42.4775 53.0022C41.7145 53.4928 40.9541 53.9895 40.1963 54.4926L41.1919 55.9922ZM48.0317 51.6613C49.574 50.729 51.1265 49.8186 52.6883 48.9275L51.7964 47.3641C50.2221 48.2622 48.6565 49.1803 47.1005 50.1209L48.0317 51.6613ZM57.4114 46.305C58.9964 45.4478 60.59 44.6078 62.1914 43.7826L61.3669 42.1825C59.7556 43.0128 58.1513 43.8584 56.5551 44.7217L57.4114 46.305ZM67.0197 41.3483C68.6358 40.5505 70.2589 39.765 71.8882 38.9895L71.1147 37.3642C69.4783 38.143 67.8474 38.9323 66.2229 39.7343L67.0197 41.3483ZM76.7892 36.693C78.4262 35.9369 80.0686 35.1885 81.7155 34.4452L80.9751 32.8045C79.3241 33.5496 77.677 34.3003 76.0345 35.0588L76.7892 36.693ZM86.6605 32.2325C87.4854 31.866 88.3113 31.5002 89.1381 31.1349L88.4105 29.4885C87.5829 29.8542 86.7559 30.2205 85.9297 30.5875L86.6605 32.2325ZM89.1381 31.1349C90.0965 30.7113 91.0564 30.2853 92.0179 29.8576L91.2863 28.213C90.3257 28.6403 89.3672 29.0657 88.4105 29.4885L89.1381 31.1349ZM97.7714 27.2918C99.6829 26.4394 101.6 25.5862 103.524 24.738L102.798 23.091C100.87 23.9408 98.9505 24.7951 97.0382 25.6479L97.7714 27.2918ZM109.29 22.2243C111.214 21.3969 113.144 20.5803 115.08 19.78L114.393 18.1165C112.447 18.9206 110.509 19.7406 108.579 20.5707L109.29 22.2243ZM120.907 17.4346C122.858 16.6719 124.815 15.9314 126.779 15.2188L126.165 13.5268C124.186 14.245 122.215 14.9907 120.252 15.7582L120.907 17.4346ZM132.704 13.1649C134.692 12.5097 136.687 11.8886 138.688 11.3072L138.186 9.57868C136.163 10.1664 134.148 10.794 132.14 11.4553L132.704 13.1649ZM144.734 9.68259C146.763 9.18323 148.798 8.73018 150.84 8.32932L150.493 6.56304C148.422 6.96972 146.359 7.42901 144.304 7.93474L144.734 9.68259ZM157.002 7.28682C158.033 7.14115 159.066 7.01011 160.1 6.89442L159.9 5.10558C158.848 5.22324 157.798 5.35648 156.75 5.50452L157.002 7.28682Z" fill="white" fill-opacity="0.35"/>
</svg>
