<svg width="160" height="81" viewBox="0 0 160 81" fill="none" xmlns="http://www.w3.org/2000/svg">
<path d="M1.87097 0.777043C1.74783 0.295481 1.25763 0.00491816 0.776067 0.128054C0.294504 0.251189 0.0039416 0.741394 0.127077 1.22296L1.87097 0.777043ZM10.869 13.0372L10.2348 13.6759L10.869 13.0372ZM32.8741 29.9066L32.4088 30.677L32.8741 29.9066ZM159.635 74.6364C159.987 74.2849 159.987 73.7151 159.635 73.3636L153.908 67.636C153.556 67.2846 152.987 67.2846 152.635 67.636C152.284 67.9875 152.284 68.5574 152.635 68.9088L157.726 74L152.635 79.0912C152.284 79.4426 152.284 80.0125 152.635 80.364C152.987 80.7154 153.556 80.7154 153.908 80.364L159.635 74.6364ZM90.0549 58.2674L90.3285 57.41L90.0549 58.2674ZM2.05947 4.99553C2.34863 5.39982 2.91079 5.49316 3.31508 5.204C3.71937 4.91484 3.8127 4.35269 3.52355 3.94839L2.05947 4.99553ZM8.67389 9.66186C8.31805 9.31481 7.74825 9.32192 7.40119 9.67775C7.05413 10.0336 7.06125 10.6034 7.41708 10.9504L8.67389 9.66186ZM12.7709 16.0989C13.1366 16.4356 13.706 16.412 14.0426 16.0463C14.3793 15.6806 14.3557 15.1112 13.99 14.7746L12.7709 16.0989ZM19.2113 19.2667C18.8245 18.9546 18.2578 19.0152 17.9457 19.4021C17.6336 19.7889 17.6942 20.3555 18.0811 20.6676L19.2113 19.2667ZM23.651 24.9033C24.0548 25.1931 24.6171 25.1007 24.9069 24.6969C25.1967 24.293 25.1042 23.7307 24.7004 23.4409L23.651 24.9033ZM30.4104 27.3137C29.9918 27.0456 29.4352 27.1676 29.1671 27.5861C28.8989 28.0046 29.0209 28.5613 29.4394 28.8294L30.4104 27.3137ZM35.2422 32.4048C35.6653 32.6656 36.2197 32.5341 36.4806 32.1109C36.7414 31.6878 36.6099 31.1334 36.1868 30.8725L35.2422 32.4048ZM41.805 34.4235C41.384 34.1593 40.8285 34.2864 40.5643 34.7075C40.3001 35.1285 40.4272 35.684 40.8482 35.9482L41.805 34.4235ZM46.7748 39.117C47.2211 39.3357 47.7603 39.1512 47.979 38.7048C48.1977 38.2585 48.0132 37.7194 47.5668 37.5006L46.7748 39.117ZM53.5226 40.3891C53.0751 40.1729 52.5369 40.3605 52.3207 40.808C52.1045 41.2556 52.292 41.7937 52.7396 42.0099L53.5226 40.3891ZM58.7395 44.9095C59.187 45.126 59.7252 44.9387 59.9416 44.4912C60.1581 44.0438 59.9708 43.5056 59.5233 43.2892L58.7395 44.9095ZM65.4889 46.1787C65.0417 45.9618 64.5033 46.1485 64.2864 46.5957C64.0695 47.0429 64.2562 47.5813 64.7034 47.7983L65.4889 46.1787ZM70.6692 50.6958C71.1161 50.9132 71.6547 50.7271 71.8721 50.2801C72.0895 49.8331 71.9034 49.2945 71.4564 49.0771L70.6692 50.6958ZM77.4112 51.9766C76.9644 51.7588 76.4256 51.9444 76.2078 52.3912C75.99 52.838 76.1757 53.3768 76.6225 53.5946L77.4112 51.9766ZM82.1253 56.2223C82.5798 56.4234 83.1114 56.218 83.3125 55.7635C83.5137 55.3089 83.3083 54.7774 82.8537 54.5762L82.1253 56.2223ZM87.8032 56.5546C87.3353 56.3868 86.82 56.6301 86.6522 57.0979C86.4844 57.5658 86.7277 58.0811 87.1956 58.2489L87.8032 56.5546ZM92.6061 60.0294C93.0793 60.1814 93.5862 59.921 93.7382 59.4477C93.8902 58.9745 93.6298 58.4676 93.1566 58.3156L92.6061 60.0294ZM98.7997 60.1377C98.3269 59.9844 97.8193 60.2434 97.666 60.7162C97.5127 61.189 97.7717 61.6966 98.2445 61.8499L98.7997 60.1377ZM103.875 63.6794C104.347 63.8331 104.855 63.5745 105.009 63.1018C105.162 62.6291 104.904 62.1213 104.431 61.9676L103.875 63.6794ZM110.065 63.7939C109.592 63.6414 109.085 63.9012 108.933 64.3743C108.78 64.8474 109.04 65.3546 109.513 65.507L110.065 63.7939ZM115.168 67.3088C115.642 67.4576 116.147 67.1937 116.296 66.7194C116.445 66.2452 116.181 65.7401 115.707 65.5913L115.168 67.3088ZM121.355 67.3193C120.879 67.178 120.378 67.4498 120.236 67.9264C120.095 68.403 120.367 68.9038 120.844 69.045L121.355 67.3193ZM126.564 70.6638C127.044 70.7922 127.538 70.507 127.666 70.0268C127.795 69.5466 127.509 69.0533 127.029 68.9249L126.564 70.6638ZM132.744 70.3386C132.259 70.2294 131.778 70.5339 131.668 71.0188C131.559 71.5037 131.864 71.9854 132.349 72.0946L132.744 70.3386ZM138.201 73.2616C138.691 73.3461 139.156 73.0174 139.241 72.5276C139.325 72.0377 138.996 71.5722 138.507 71.4878L138.201 73.2616ZM144.318 72.3238C143.824 72.2668 143.378 72.6208 143.321 73.1146C143.264 73.6084 143.618 74.0549 144.111 74.1119L144.318 72.3238ZM150.058 74.6374C150.554 74.6684 150.981 74.2914 151.012 73.7953C151.043 73.2992 150.666 72.8719 150.17 72.8409L150.058 74.6374ZM156.046 73.0735C155.549 73.0644 155.139 73.4599 155.13 73.9568C155.121 74.4538 155.516 74.8641 156.013 74.8732L156.046 73.0735ZM0.127077 1.22296C0.444696 2.46511 1.17223 3.75501 2.05947 4.99553L3.52355 3.94839C2.68866 2.78109 2.10793 1.70377 1.87097 0.777043L0.127077 1.22296ZM7.41708 10.9504C8.51369 12.02 9.4791 12.9254 10.2348 13.6759L11.5031 12.3986C10.7518 11.6525 9.72329 10.6854 8.67389 9.66186L7.41708 10.9504ZM10.2348 13.6759C11.0577 14.493 11.9043 15.3012 12.7709 16.0989L13.99 14.7746C13.1393 13.9915 12.3091 13.199 11.5031 12.3986L10.2348 13.6759ZM18.0811 20.6676C19.8972 22.1329 21.7629 23.5484 23.651 24.9033L24.7004 23.4409C22.8383 22.1046 20.9997 20.7096 19.2113 19.2667L18.0811 20.6676ZM29.4394 28.8294C30.4316 29.465 31.4227 30.0814 32.4088 30.677L33.3394 29.1362C32.3668 28.5488 31.3892 27.9408 30.4104 27.3137L29.4394 28.8294ZM32.4088 30.677C33.4904 31.3303 34.4257 31.9014 35.2422 32.4048L36.1868 30.8725C35.3654 30.3662 34.4254 29.7921 33.3394 29.1362L32.4088 30.677ZM40.8482 35.9482C42.3268 36.876 43.4521 37.4889 46.7748 39.117L47.5668 37.5006C44.2614 35.881 43.203 35.3008 41.805 34.4235L40.8482 35.9482ZM52.7396 42.0099C54.4319 42.8275 56.4104 43.7829 58.7395 44.9095L59.5233 43.2892C57.1937 42.1623 55.2146 41.2066 53.5226 40.3891L52.7396 42.0099ZM64.7034 47.7983C66.5286 48.6835 68.5118 49.6466 70.6692 50.6958L71.4564 49.0771C69.2985 48.0276 67.3146 47.0643 65.4889 46.1787L64.7034 47.7983ZM76.6225 53.5946C77.6012 54.0717 78.6095 54.5635 79.6482 55.0705L80.4377 53.4528C79.3987 52.9458 78.3902 52.4539 77.4112 51.9766L76.6225 53.5946ZM79.6482 55.0705C80.466 55.4695 81.292 55.8535 82.1253 56.2223L82.8537 54.5762C82.0407 54.2164 81.235 53.8419 80.4377 53.4528L79.6482 55.0705ZM87.1956 58.2489C88.0529 58.5564 88.9152 58.8484 89.7812 59.1248L90.3285 57.41C89.4826 57.14 88.6404 56.8548 87.8032 56.5546L87.1956 58.2489ZM89.7812 59.1248C90.7407 59.431 91.6821 59.7325 92.6061 60.0294L93.1566 58.3156C92.2316 58.0185 91.2892 57.7166 90.3285 57.41L89.7812 59.1248ZM98.2445 61.8499C100.2 62.4841 102.073 63.0937 103.875 63.6794L104.431 61.9676C102.63 61.3821 100.756 60.7721 98.7997 60.1377L98.2445 61.8499ZM109.513 65.507C111.479 66.1409 113.359 66.7414 115.168 67.3088L115.707 65.5913C113.904 65.0258 112.029 64.4269 110.065 63.7939L109.513 65.507ZM120.844 69.045C122.815 69.6295 124.714 70.1689 126.564 70.6638L127.029 68.9249C125.197 68.4349 123.315 67.9 121.355 67.3193L120.844 69.045ZM132.349 72.0946C134.312 72.5368 136.251 72.9255 138.201 73.2616L138.507 71.4878C136.589 71.1572 134.68 70.7746 132.744 70.3386L132.349 72.0946ZM144.111 74.1119C146.042 74.3348 148.013 74.5097 150.058 74.6374L150.17 72.8409C148.156 72.7151 146.216 72.543 144.318 72.3238L144.111 74.1119ZM156.013 74.8732C156.988 74.8911 157.982 74.9 158.999 74.9V73.1C157.993 73.1 157.009 73.0912 156.046 73.0735L156.013 74.8732Z" fill="white" fill-opacity="0.35"/>
</svg>
