<svg width="394" height="406" viewBox="0 0 394 406" fill="none" xmlns="http://www.w3.org/2000/svg">
<path d="M283.484 186.868C287.082 178.867 288.624 169.059 282.456 160.542C274.745 149.701 263.951 142.99 251.614 138.861C237.993 134.215 215.633 149.701 214.347 164.413C213.833 169.317 215.119 174.737 209.207 176.544C202.782 178.351 201.754 171.64 199.184 168.285C188.389 154.605 174.254 147.378 160.889 143.507C130.561 144.797 113.599 156.412 127.477 187.643C142.898 222.229 173.997 241.587 205.866 258.88C217.689 265.332 224.371 254.234 232.852 248.814C256.241 233.585 272.175 211.905 283.484 186.868Z" fill="#F4647D"/>
<path d="M301.219 108.662C297.877 102.726 294.536 101.177 288.882 104.275C276.545 111.502 263.181 114.083 249.302 115.631C241.335 116.406 233.624 117.696 225.657 118.729C222.83 118.987 219.489 118.729 219.746 122.6C220.003 127.246 219.489 132.666 221.545 136.28C223.858 139.635 226.685 134.989 229.255 133.182C241.335 123.633 253.414 125.181 265.237 133.699C269.349 136.796 273.718 139.635 278.088 142.474C295.564 154.863 299.677 168.027 292.223 187.901C290.424 192.805 288.111 197.193 285.541 203.129C297.363 206.743 307.644 200.806 318.181 201.58C326.149 202.097 328.205 197.451 326.92 190.224C321.523 162.09 315.097 134.215 301.219 108.662ZM131.59 140.409C154.208 131.376 175.283 135.505 194.558 149.443C206.895 158.477 207.666 158.219 210.493 142.216C211.521 136.022 210.75 130.343 210.236 124.407C209.979 120.277 208.18 116.922 204.068 116.922C191.731 117.18 180.68 110.211 168.343 110.727C151.637 111.76 135.703 108.146 120.282 102.984C112.315 100.403 109.23 102.21 105.632 109.179C94.5807 131.118 88.1554 154.089 85.3282 178.609C83.0151 199.516 82.2441 199.516 102.548 200.29C121.31 201.064 121.31 201.064 115.656 182.739C115.142 180.932 114.114 179.125 113.6 177.06C110.258 163.123 118.74 145.572 131.59 140.409ZM322.037 209.324C309.7 212.421 296.849 211.905 284.256 212.679C280.401 212.937 278.602 214.744 276.802 217.583C264.466 235.392 249.302 250.362 231.054 261.977C226.942 264.558 224.115 267.914 225.143 273.85C226.428 280.561 226.685 287.272 226.685 294.24C226.685 300.177 229.769 302.758 234.652 305.855C252.129 317.47 274.232 313.598 291.966 324.181C294.793 325.987 297.62 324.955 298.906 321.858C305.074 308.178 315.611 296.047 318.438 281.335C322.551 259.912 324.607 237.973 327.691 216.292C328.205 211.13 327.691 208.291 322.037 209.324ZM84.8142 222.487C87.1273 243.91 97.4078 262.751 104.09 282.626C111.286 304.306 112.572 303.79 134.932 299.661C141.614 298.37 148.553 298.628 154.979 297.338C172.198 294.24 188.904 301.725 206.124 300.693C210.236 300.435 217.69 304.565 217.69 295.531C217.69 288.82 220.517 279.528 208.437 279.27C206.381 279.27 203.811 278.238 204.839 275.915C209.208 266.881 200.984 266.881 196.872 264.816C179.138 255.266 162.432 244.426 148.553 230.23C135.96 217.325 123.88 204.678 106.146 209.324C101.263 209.066 98.9499 208.807 96.3798 208.807C82.2441 208.549 83.5291 208.291 84.8142 222.487ZM213.834 310.501C196.358 311.533 179.138 306.113 160.633 307.92C150.095 306.371 139.301 309.469 128.249 310.759C121.567 311.792 118.226 314.373 123.623 321.6C136.217 338.376 148.553 355.928 166.287 367.8C178.624 376.06 189.418 387.416 204.839 390.514C208.951 391.288 212.549 392.837 213.063 386.126C215.119 363.155 218.461 340.441 219.489 317.212C219.746 312.566 218.461 310.243 213.834 310.501ZM290.681 334.763C272.176 323.406 251.101 324.181 232.082 317.728C228.741 316.437 227.456 319.277 227.456 322.632L223.858 380.964C223.601 383.287 224.115 388.707 226.942 386.9C232.596 383.029 238.508 387.933 244.676 383.029C262.153 369.349 279.373 355.411 290.681 334.763ZM228.741 109.437C242.877 106.856 257.27 106.856 271.148 102.468C291.966 95.7572 291.966 95.7572 277.573 79.2384C277.316 78.9803 277.316 78.4641 277.059 78.206C257.012 55.4927 233.11 38.4578 204.068 22.9714C209.208 50.3306 217.433 74.8506 218.461 100.403C218.975 109.437 222.83 110.469 228.741 109.437ZM120.025 83.3681C115.913 90.5951 116.684 91.3694 123.623 94.4667C148.296 105.565 175.54 98.5963 200.47 106.081C209.208 107.888 209.722 103.5 208.437 96.5315C204.325 74.3344 202.526 51.6211 194.816 30.1984C190.446 18.0674 189.932 17.035 179.395 24.262C156.264 40.5226 134.675 58.0738 120.025 83.3681Z" fill="#D7F7F7"/>
<path d="M308.671 93.6922C305.587 95.4989 305.33 98.08 307.386 100.919C322.807 123.632 326.148 150.475 333.601 176.028C336.171 184.545 332.316 197.193 339.769 201.064C346.709 204.678 357.503 200.806 366.499 200.548C383.462 200.806 384.233 200.032 382.176 187.126C376.779 154.863 366.242 124.923 346.452 98.3381C330.517 77.1734 331.288 76.6572 310.727 92.4017C309.956 92.9179 309.442 93.176 308.671 93.6922ZM314.839 351.023C308.671 348.184 304.302 333.988 294.792 346.119C283.227 360.831 271.147 375.027 256.24 387.674C276.03 379.157 297.619 375.285 316.124 363.671C323.064 359.283 318.437 352.83 314.839 351.023ZM358.274 209.065H355.961C337.456 209.065 337.97 209.065 335.4 227.907C331.545 256.815 328.204 285.723 314.068 312.049C304.045 330.891 304.302 330.633 320.237 343.796C328.718 350.765 333.344 348.7 338.998 340.441C361.615 307.145 373.952 270.236 379.349 230.746C382.434 209.582 382.69 209.582 358.274 209.065ZM115.141 323.664C113.342 320.309 111.799 314.114 105.888 316.953C94.5796 322.374 82.5 327.02 72.4766 335.021C68.1073 338.634 68.6214 341.215 72.9906 344.055C80.701 348.959 88.1543 354.379 95.8647 359.283C118.996 374.253 144.44 382.77 172.197 385.61C167.057 382.254 161.66 379.157 157.034 375.285C140.071 360.573 125.935 343.538 115.141 323.664ZM72.2195 64.2682C80.958 71.237 89.9534 77.9477 99.7199 83.368C105.117 86.4652 108.201 86.4652 112.056 80.5288C118.996 69.9465 123.622 58.3317 134.16 49.8142C147.781 38.4576 161.403 26.8429 178.109 14.97C154.978 11.6146 135.702 18.3254 117.711 25.2942C101.005 31.7469 86.0982 43.6197 71.9625 55.4926C67.3363 59.3641 68.1073 61.1709 72.2195 64.2682ZM17.2189 200.032C25.7003 199.257 33.6677 202.097 41.6351 202.613L68.1073 198.999C71.7055 198.483 72.2195 196.418 72.7336 193.321C79.1589 161.574 81.472 128.536 100.234 100.403C102.033 97.5638 102.547 95.2408 98.9488 93.9503C86.3552 89.5625 76.8458 80.5288 66.5653 72.5275C61.425 68.6559 58.5979 69.6884 54.9997 74.3343C45.7473 86.4652 38.8079 99.6286 32.3826 113.566C20.8171 138.086 16.9619 164.671 11.8216 190.74C11.0506 194.353 10.2796 200.806 17.2189 200.032Z" fill="#C1E8EF"/>
<path d="M220.516 20.6483C246.217 36.1347 269.348 54.2021 289.138 76.9153C300.19 89.5625 304.816 89.0463 316.638 76.9153C319.98 73.56 323.321 70.2046 316.124 66.5911C310.984 64.0101 305.33 60.9128 301.732 56.525C279.886 31.2307 249.558 24.2618 218.203 17.293C219.488 18.8416 219.745 20.1321 220.516 20.6483ZM101.005 299.144C88.4115 271.785 76.846 243.91 73.2478 213.711C72.4767 207.259 69.1356 206.742 64.2524 207.775C55.2569 209.582 46.0045 209.84 36.752 209.323C32.3828 209.323 28.0136 209.84 23.6444 209.323C14.392 208.033 11.0508 211.646 11.8218 221.196C13.1069 234.618 18.2471 246.749 21.8453 259.396C29.0417 283.916 39.0651 307.145 57.57 325.729C61.4252 329.601 63.2243 330.633 68.1075 327.278C77.103 320.825 86.3554 314.372 96.8929 311.017C105.117 308.178 103.832 305.339 101.005 299.144Z" fill="#C1E8EF"/>
<path d="M47.2898 326.504C52.9441 331.924 54.2291 341.732 59.3694 345.603C77.6173 359.541 96.6362 372.446 117.968 381.222C149.838 394.643 184.02 396.966 217.432 403.935C218.974 404.193 220.773 404.193 222.058 403.677C245.189 395.418 269.863 393.869 293.251 385.61C325.634 374.253 345.938 351.282 360.074 322.89C373.953 295.273 384.747 265.849 387.317 234.618C389.116 214.228 393.228 194.612 388.859 173.189C380.892 133.957 363.415 100.403 336.686 71.7535C326.662 60.913 313.041 53.1699 301.989 43.1038C291.195 33.2957 279.629 24.2621 265.236 19.8743C252.129 15.7446 238.764 11.873 225.399 8.25951C201.497 2.06498 176.567 -1.03229 153.179 3.3555C107.945 12.3892 70.1639 37.4254 43.1776 76.1413C15.6773 115.373 4.11172 160.284 3.5977 208.291C3.5977 215.518 1.79861 223.261 3.85471 229.714C14.1352 263.784 20.3035 299.919 47.2898 326.504ZM57.8273 325.471C39.3224 306.888 29.2989 283.658 22.1026 259.138C18.5044 246.491 13.3642 234.36 12.0791 220.938C11.3081 211.13 14.3922 207.775 23.9017 209.066C28.2709 209.582 32.6401 209.066 37.0093 209.066C46.2618 209.582 55.2572 209.324 64.5096 207.517C69.3929 206.485 72.477 207.001 73.5051 213.453C77.1032 243.652 88.6688 271.527 101.262 298.886C104.09 305.081 105.632 308.178 97.4072 310.501C86.8697 313.856 77.6173 320.309 68.6218 326.762C63.4816 330.633 61.6825 329.343 57.8273 325.471ZM114.113 177.061C114.627 178.867 115.655 180.674 116.169 182.739C121.823 200.806 121.823 200.806 103.061 200.29C82.7575 199.516 83.2715 199.516 85.8417 178.609C88.6688 154.089 95.0941 131.118 106.146 109.179C109.744 102.21 112.828 100.145 120.795 102.984C136.216 108.146 152.151 111.76 168.857 110.727C181.193 109.953 192.245 117.18 204.581 116.922C208.694 116.922 210.493 120.277 210.75 124.407C211.264 130.343 212.035 136.022 211.007 142.216C208.18 158.219 207.409 158.477 195.072 149.443C175.796 135.506 154.721 131.376 132.104 140.41C118.739 145.572 110.258 163.123 114.113 177.061ZM96.3792 208.808C98.6923 208.808 101.262 209.066 106.146 209.324C123.879 204.678 135.959 217.325 148.553 230.23C162.688 244.426 179.394 255.266 196.871 264.816C200.983 267.139 209.208 266.881 204.838 275.915C203.81 278.238 206.38 279.27 208.437 279.27C220.516 279.528 217.689 288.82 217.689 295.531C217.689 304.565 210.236 300.435 206.123 300.693C188.904 301.725 172.455 294.24 154.978 297.338C148.296 298.37 141.356 298.37 134.931 299.661C112.571 303.79 111.286 304.307 104.09 282.626C97.4072 262.752 87.1267 243.91 84.8136 222.487C83.5285 208.291 82.2435 208.549 96.3792 208.808ZM95.8651 359.283C88.1548 354.379 80.7014 349.217 72.991 344.055C68.6218 341.216 68.1078 338.635 72.477 335.021C82.5005 327.02 94.5801 322.374 105.889 316.954C111.8 314.115 113.599 320.567 115.141 323.664C125.936 343.539 140.071 360.574 157.034 375.027C161.66 378.899 167.058 381.996 172.198 385.352C144.44 382.771 118.996 374.253 95.8651 359.283ZM213.063 386.126C212.549 392.837 208.951 391.288 204.838 390.514C189.418 387.417 178.623 376.318 166.287 367.801C148.553 355.928 136.216 338.376 123.622 321.6C118.225 314.373 121.566 311.792 128.249 310.759C139.3 309.211 150.095 306.371 160.632 307.92C178.88 306.113 196.1 311.534 213.834 310.501C218.46 310.243 219.745 312.566 219.488 317.212C218.717 340.441 215.119 363.155 213.063 386.126ZM206.123 259.138C174.254 241.845 143.155 222.487 127.735 187.901C113.856 156.412 130.819 144.797 161.146 143.765C174.254 147.636 188.647 154.863 199.441 168.543C202.011 171.898 203.039 178.609 209.465 176.802C215.376 174.996 214.091 169.575 214.605 164.671C215.89 149.959 238.25 134.473 251.872 139.119C264.208 143.249 275.003 149.959 282.713 160.8C288.881 169.317 287.339 179.383 283.741 187.127C272.433 212.163 256.498 233.844 233.11 249.072C224.628 254.492 217.946 265.591 206.123 259.138ZM317.924 201.839C307.129 201.064 296.849 207.001 285.283 203.387C287.853 197.451 290.167 193.063 291.966 188.159C299.419 168.027 295.307 154.863 277.83 142.732C273.718 139.635 269.349 136.796 264.979 133.957C253.157 125.439 241.077 123.891 228.998 133.441C226.684 135.247 223.6 139.893 221.287 136.538C218.974 133.183 219.488 127.504 219.488 122.858C219.231 118.729 222.829 119.245 225.399 118.987L249.045 115.89C262.923 114.341 276.288 111.76 288.624 104.533C294.022 101.436 297.62 102.726 300.961 108.921C314.84 134.473 321.265 162.09 326.405 190.482C327.947 197.709 325.891 202.355 317.924 201.839ZM327.433 216.034C324.092 237.715 322.036 259.654 318.181 281.077C315.354 296.047 304.816 307.92 298.648 321.6C297.363 324.697 294.536 325.471 291.709 323.923C273.975 313.34 251.872 317.212 234.395 305.597C229.512 302.5 226.427 300.177 226.427 293.982C226.427 287.272 226.17 280.303 224.885 273.592C223.857 267.656 226.427 264.3 230.797 261.719C249.045 250.104 264.208 235.134 276.545 217.325C278.344 214.486 280.4 212.679 283.998 212.421C296.592 211.647 309.442 211.905 321.779 209.066C327.69 208.291 328.204 211.13 327.433 216.034ZM226.941 386.9C224.114 388.965 223.857 383.545 223.857 380.964L227.455 322.632C227.712 319.277 228.741 316.438 232.082 317.728C251.101 324.181 272.176 323.406 290.681 334.763C279.372 355.411 262.152 369.091 244.418 383.029C238.507 387.933 232.596 383.029 226.941 386.9ZM316.125 363.671C297.62 375.286 276.031 379.157 256.241 387.675C271.148 375.027 283.484 361.09 294.793 346.12C304.045 333.989 308.671 348.184 314.84 351.024C318.438 352.83 323.064 359.283 316.125 363.671ZM379.607 230.746C374.21 270.237 361.616 307.146 339.256 340.441C333.602 348.959 328.975 351.024 320.494 343.797C304.559 330.375 304.302 330.891 314.326 312.05C328.461 285.723 331.803 256.557 335.658 227.907C337.971 209.324 337.457 209.066 356.219 209.066H358.532C382.691 209.582 382.434 209.582 379.607 230.746ZM346.452 98.3383C366.242 124.923 376.78 154.863 382.177 187.127C384.233 199.774 383.205 200.548 366.499 200.548C357.504 201.064 346.709 204.678 339.77 201.064C332.317 197.193 336.172 184.546 333.602 176.028C326.148 150.476 322.807 123.633 307.386 100.919C305.587 98.3383 305.844 95.7573 308.671 93.6924C309.442 93.1762 309.956 92.9181 310.728 92.4019C331.288 76.6575 330.517 77.1737 346.452 98.3383ZM301.732 56.2671C305.587 60.6549 310.984 63.7522 316.125 66.3333C323.578 69.9467 319.98 73.3021 316.639 76.6575C304.559 88.7884 299.933 89.3046 289.138 76.6575C269.349 54.2023 246.217 35.8768 220.516 20.6486C219.745 20.1324 219.488 18.8418 218.203 17.2932C249.559 24.2621 279.886 31.2309 301.732 56.2671ZM277.059 78.2061C277.316 78.4642 277.316 78.9804 277.573 79.2385C291.966 95.7573 291.966 95.7573 271.148 102.468C257.269 106.856 242.876 107.114 228.741 109.437C222.572 110.469 218.717 109.437 218.46 100.145C217.432 74.8507 209.208 50.3307 203.81 22.9715C233.11 38.4579 257.012 55.4928 277.059 78.2061ZM194.815 30.1985C202.268 51.8793 204.067 74.3345 208.437 96.5316C209.722 103.5 209.208 107.888 200.469 106.081C175.539 98.8545 148.296 105.565 123.622 94.4667C116.94 91.3695 115.912 90.5952 120.024 83.3682C134.674 58.0739 156.263 40.5227 179.394 24.2621C190.189 17.0351 190.703 18.0675 194.815 30.1985ZM71.963 55.4928C86.0987 43.62 101.005 31.7471 117.711 25.2945C135.702 18.3256 154.978 11.3568 178.109 14.9703C161.403 26.8431 147.782 38.4579 134.16 49.8145C123.88 58.332 118.996 70.2048 112.057 80.5291C108.202 86.4655 105.375 86.4655 99.7203 83.3682C89.9539 77.948 80.9584 71.2373 72.22 64.2684C68.1078 61.1711 67.3368 59.3644 71.963 55.4928ZM11.5651 190.74C16.7053 164.671 20.8175 138.087 32.1261 113.567C38.5514 99.887 45.4907 86.4655 54.7432 74.3345C58.3413 69.6886 61.1685 68.6562 66.3087 72.5278C76.5892 80.5291 86.0987 89.5628 98.6923 93.9505C102.547 95.2411 102.033 97.564 99.9773 100.403C81.2154 128.537 78.9023 161.574 72.477 193.321C71.963 196.418 71.192 198.483 67.8508 198.999C59.1124 200.032 50.631 201.322 41.3785 202.613C33.6681 202.097 25.4437 198.999 16.9623 200.032C10.28 200.806 11.0511 194.354 11.5651 190.74Z" fill="white"/>
</svg>
