<svg width="16" height="22" viewBox="0 0 16 22" fill="none" xmlns="http://www.w3.org/2000/svg">
<path d="M8.54017 1.50845C10.7645 1.50845 11.5563 3.56478 11.5563 3.56478C11.5563 3.56478 11.6013 0 8.54017 0C5.87497 0 4.54181 3.33195 4.54181 3.33195C4.54181 3.33195 6.25884 1.50845 8.54017 1.50845ZM5.70442 11.1103C3.59803 14.1543 0.556622 18.449 0 19.2363L2.85769 22C3.40444 21.1255 5.76638 17.3251 7.52728 14.1217C7.08528 13.4205 6.67124 12.7501 6.30984 12.1482C6.10639 11.8044 5.90403 11.4579 5.70442 11.1103ZM8.87579 6.26885C9.21908 6.86252 9.91664 8.00572 10.3795 8.6358C10.9005 7.55329 11.303 6.51547 11.4346 5.48648C11.2712 5.03792 10.8451 4.0801 10.3916 3.43181C10.034 4.22576 9.49054 5.22882 8.87579 6.26885ZM9.17741 8.69705C7.90458 6.78251 6.72772 4.86136 6.55333 3.0009C5.57389 3.5074 4.84727 4.26438 4.4601 4.7455C4.45901 4.77088 4.45846 4.79571 4.45846 4.81998C4.45352 6.76596 5.78667 9.24934 7.20537 11.6113C9.21689 14.9747 12.9504 20.3983 13.745 21.5487L16 18.0529C15.3502 17.1861 10.6817 10.9525 9.17741 8.69705Z" fill="#F9BECB"/>
</svg>
