<svg width="203" height="66" viewBox="0 0 203 66" fill="none" xmlns="http://www.w3.org/2000/svg">
<path d="M125.264 13.7855C115.517 21.6899 102.892 37.5926 98.027 48.0376C97.1353 50.0137 93.2398 45.7008 93.2398 43.9443C93.2398 39.4903 106.537 14.4913 106.537 9.47265C106.537 8.62576 106.537 6.53989 102.501 6.53989C93.5684 6.53989 77.8928 18.2709 77.8928 24.5599C77.8928 26.1909 78.8158 26.5673 80.0048 26.5673C81.8977 26.5673 88.6404 25.0147 97.3073 17.0163C97.5733 16.7497 98.0896 16.6869 97.6359 17.2829C90.9245 25.7204 84.4478 28.3552 81.8508 28.3552C79.5511 28.3552 74.6701 26.0498 74.6701 22.9759C74.6701 13.9894 91.0496 5.06567 100.53 5.06567C106.193 5.06567 109.604 8.218 109.604 11.2762C109.604 18.1925 94.7104 43.5522 96.5564 47.0496C102.783 35.6793 113.155 21.2351 122.682 12.327C127.125 8.1239 131.208 5.75573 133.43 5.89688C134.431 5.9753 135.401 6.57126 136.246 7.33974C137.059 8.07685 138.327 9.72358 138.624 10.7587C138.733 11.088 138.655 11.1978 138.436 10.9469C137.951 10.4607 137.059 9.04921 135.213 8.93942C132.038 8.68849 127.735 11.7467 125.264 13.7855Z" fill="black"/>
<path d="M135.339 26.1909C135.933 26.9751 136.528 28.0101 136.481 28.3395C136.481 28.4179 136.449 28.4493 136.402 28.5277L135.479 29.5628C132.257 33.2326 130.332 36.4791 130.285 37.1378C130.285 37.2475 130.285 37.326 130.473 37.326C131.287 37.326 137.654 32.1662 142.551 27.4142C142.817 27.1476 143.067 27.4455 142.879 27.7122C141.143 30.1587 132.429 39.3334 130.098 40.0078C129.988 40.0392 129.957 40.0392 129.91 40.0392C128.502 40.0392 126.421 37.7024 126.531 36.2909C126.531 36.1811 126.562 36.0243 126.609 35.9145C126.828 35.2871 128.158 33.3581 130.974 29.751L128.486 32.0094C124.341 35.8361 119.147 39.9921 117.707 39.9921C116.628 39.9921 114.219 37.6083 114.219 35.8361C114.219 33.4522 117.77 28.8884 121.994 25.3597C125.592 22.3485 129.66 19.9803 132.335 19.9803C135.26 19.9803 137.638 21.9094 137.638 24.1364C137.67 24.701 136.481 25.6263 135.339 26.1909ZM133.555 24.9676C133.524 24.9676 133.743 24.748 134.337 25.1558C134.447 25.2342 134.556 25.2969 134.901 25.6733C135.87 24.3716 136.168 23.2895 136.011 22.5838C135.87 21.9564 135.385 21.7682 134.822 21.7682C134.525 21.7682 134.197 21.7996 133.899 21.878C131.193 22.474 127.939 24.7794 125.013 27.524C120.821 31.4604 117.348 35.8831 117.348 37.1378C117.348 37.2475 117.379 37.4044 117.645 37.4044C119.053 37.4044 133.43 28.1199 133.727 25.2185C133.712 25.1558 133.665 25.0303 133.555 24.9676Z" fill="black"/>
<path d="M140.11 37.075C139.406 38.3767 139.187 39.2236 139.297 39.4118C139.563 39.6314 139.218 39.7882 138.812 39.7098C138.405 39.6314 136.402 37.4044 136.778 36.2909C136.997 35.6165 137.482 34.7696 138.186 33.6875L140.11 30.8331C141.628 28.6061 144.224 24.8892 145.148 23.4777C146.071 22.0348 146.587 20.6234 145.93 20.2783C145.898 20.2783 146.227 19.9803 147.15 20.7645C147.885 21.3918 149.184 23.1797 149.152 23.6973C149.152 24.1364 147.557 26.2223 145.664 28.7473C146.587 27.7122 147.588 26.7084 148.667 25.7047C150.779 23.807 155.144 20.0588 156.896 19.6824C157.679 19.5412 158.93 21.1723 158.821 22.9445C158.789 23.4307 158.602 24.5755 158.085 25.0617C158.117 24.6853 157.976 24.2775 157.757 23.9482C157.46 23.5404 156.677 23.164 155.676 23.2738C153.423 23.5404 151.124 25.0617 148.417 27.3671C144.49 30.6763 141.643 34.2521 140.11 37.075Z" fill="black"/>
<path d="M87.2637 65.2108C87.2637 65.2108 87.3419 64.9913 87.4827 64.5678C87.6235 64.1444 87.8738 63.5327 88.218 62.7329C88.9377 61.1489 90.1423 58.8435 92.3794 56.3969C94.6009 53.966 97.9644 51.5037 102.329 49.9197C106.678 48.273 111.919 47.5359 117.551 47.5045C118.959 47.5202 120.414 47.5672 121.838 47.6457C123.277 47.7241 124.732 47.7868 126.218 47.8652C129.19 48.0064 132.272 48.1789 135.417 48.3671C141.721 48.7278 148.37 49.0728 155.222 49.2924C156.943 49.3708 158.664 49.3865 160.401 49.4179C161.277 49.4335 162.137 49.4179 163.013 49.4179C163.889 49.4179 164.765 49.4335 165.641 49.4022C166.518 49.3865 167.394 49.3708 168.285 49.3394C169.161 49.2924 170.038 49.2453 170.929 49.1983C171.821 49.1512 172.681 49.0571 173.573 48.9944C174.011 48.9474 174.465 48.9317 174.903 48.8689L176.217 48.6964L177.531 48.5239L178.845 48.2887L180.159 48.0534C180.597 47.975 181.02 47.8495 181.458 47.7554L182.756 47.4418L183.054 47.3634L183.382 47.2693L184.039 47.0654C184.493 46.9399 184.868 46.7831 185.291 46.6262C185.697 46.4851 186.104 46.2969 186.511 46.1401C189.749 44.7443 192.784 42.7368 195.194 40.102C196.398 38.7846 197.478 37.3418 198.385 35.8048C199.292 34.2522 199.996 32.6055 200.544 30.896C201.091 29.1865 201.451 27.43 201.639 25.6578C201.811 23.8856 201.78 22.0977 201.576 20.3255C201.483 19.4473 201.31 18.569 201.123 17.7221C200.904 16.8752 200.669 16.0283 200.356 15.1971C199.762 13.5504 198.979 11.9977 198.009 10.5706C196.085 7.73192 193.426 5.47354 190.422 4.14046C187.434 2.77602 184.164 2.27416 180.989 2.39963C179.408 2.44668 177.828 2.65056 176.311 2.94854C175.935 3.02696 175.544 3.08969 175.169 3.19947C174.793 3.29357 174.418 3.38767 174.042 3.48177L173.98 3.49745C173.98 3.49745 173.886 3.52882 173.964 3.49745L173.823 3.5445L173.542 3.6386L172.963 3.81112C172.588 3.9209 172.181 4.03068 171.884 4.18751C171.555 4.31298 171.226 4.45413 170.898 4.57959C170.569 4.72074 170.257 4.90894 169.928 5.06577C169.772 5.14419 169.599 5.2226 169.443 5.3167L168.989 5.599C168.692 5.7872 168.379 5.95971 168.098 6.17928C166.94 6.97912 165.939 7.9358 165.11 8.98657L164.812 9.37865C164.703 9.50412 164.609 9.64527 164.531 9.78641C164.359 10.0687 164.187 10.351 164.014 10.6333C163.874 10.9313 163.717 11.2293 163.576 11.5116C163.436 11.8095 163.342 12.1232 163.217 12.4212C162.763 13.6288 162.497 14.8991 162.403 16.1381C162.309 17.3928 162.419 18.6317 162.653 19.808C162.716 20.106 162.763 20.4039 162.872 20.6706C162.966 20.9529 163.029 21.2508 163.138 21.5174C163.248 21.7841 163.342 22.0664 163.451 22.333C163.576 22.5996 163.702 22.8505 163.827 23.1014C164.359 24.1052 165.016 24.9991 165.767 25.7519C166.518 26.5047 167.394 27.0693 168.285 27.5084C169.177 27.9632 170.147 28.1514 171.07 28.2612C171.539 28.2769 172.009 28.3396 172.478 28.2769C172.713 28.2612 172.932 28.2455 173.166 28.2299C173.37 28.1985 173.651 28.1671 173.855 28.1358C175.654 27.8535 177.281 27.2418 178.595 26.4733C179.909 25.7049 180.895 24.7168 181.489 23.6974C182.084 22.678 182.303 21.6429 182.318 20.8117C182.35 19.9648 182.224 19.3061 182.131 18.8827C182.021 18.4435 181.974 18.224 181.974 18.224C181.974 18.224 182.068 18.4435 182.24 18.8513C182.396 19.2747 182.616 19.9178 182.709 20.796C182.803 21.6743 182.725 22.8348 182.209 24.0581C181.677 25.2814 180.676 26.5047 179.299 27.5241C177.922 28.5278 176.201 29.3277 174.199 29.8452C173.933 29.908 173.73 29.955 173.448 30.0177C173.182 30.0491 172.916 30.0962 172.65 30.1275C172.118 30.2216 171.539 30.2059 170.976 30.2216C169.834 30.1589 168.614 30.0021 167.456 29.5159C166.299 29.0611 165.157 28.3867 164.187 27.4927C163.201 26.5988 162.356 25.5323 161.652 24.3404C160.948 23.1485 160.432 21.8154 160.103 20.4039C159.775 18.9925 159.603 17.5182 159.697 15.997C159.775 14.4914 160.056 12.9544 160.588 11.4488C160.729 11.0881 160.854 10.696 161.042 10.3353C161.214 9.97461 161.402 9.6139 161.574 9.25319C161.777 8.90816 161.996 8.56312 162.215 8.21809C162.325 8.04558 162.434 7.87306 162.56 7.71623L162.935 7.23005C163.06 7.07322 163.185 6.90071 163.311 6.74387L163.733 6.28906C164.014 5.99108 164.28 5.67742 164.609 5.4108C164.922 5.14419 165.219 4.84621 165.548 4.57959C165.876 4.32866 166.22 4.09341 166.564 3.84248C166.893 3.59155 167.268 3.40335 167.628 3.18379L168.176 2.87012C168.364 2.77602 168.551 2.68193 168.739 2.58783C169.115 2.41531 169.49 2.21143 169.881 2.0546C170.288 1.89777 170.695 1.75662 171.101 1.59978C171.524 1.42727 171.899 1.33317 172.275 1.22339L172.854 1.06656L173.135 0.98814L173.276 0.941091C173.401 0.909724 173.354 0.925407 173.401 0.909724L173.479 0.894041C173.886 0.799942 174.293 0.721526 174.7 0.627427C175.106 0.533327 175.529 0.486278 175.935 0.407862C177.594 0.141247 179.315 -0.0155845 181.051 9.87124e-05C184.508 0.0314651 188.107 0.752892 191.345 2.41531C194.583 4.06205 197.384 6.63409 199.324 9.77073C201.326 12.876 202.468 16.4988 202.906 20.2001C203.11 22.0507 203.141 23.9327 202.953 25.799C202.781 27.6653 202.437 29.5159 201.889 31.3194C200.794 34.9266 198.964 38.3298 196.461 41.2155C195.209 42.6584 193.832 43.9758 192.315 45.1207C190.797 46.2812 189.17 47.2693 187.45 48.1161C187.012 48.32 186.605 48.5396 186.151 48.7121C185.713 48.9003 185.244 49.1042 184.821 49.261L184.18 49.4963L183.851 49.6217C183.851 49.6217 183.773 49.6531 183.742 49.6531L183.664 49.6845L183.492 49.7315L182.146 50.1393C181.693 50.2648 181.254 50.4373 180.801 50.5314L179.44 50.8607L178.079 51.1901L176.718 51.441C173.073 52.1154 169.427 52.4918 165.845 52.68C162.247 52.8838 158.711 52.8995 155.238 52.8525C148.292 52.7427 141.612 52.2722 135.292 51.786C133.712 51.6606 132.163 51.5351 130.63 51.4253C129.096 51.2998 127.595 51.1587 126.108 51.0332C124.622 50.9078 123.167 50.7823 121.744 50.6568C120.304 50.5314 118.959 50.4216 117.598 50.3588C114.907 50.2334 112.31 50.2648 109.87 50.5314C109.26 50.5784 108.665 50.6725 108.071 50.7509C107.492 50.845 106.897 50.9391 106.334 51.0489C105.192 51.2528 104.113 51.5194 103.064 51.8331C102.016 52.1311 101.031 52.5075 100.092 52.8838C99.169 53.2916 98.2773 53.7151 97.4638 54.1699C95.8211 55.0795 94.4131 56.1303 93.2555 57.181C92.0821 58.2475 91.1435 59.2983 90.3926 60.2863C90.2048 60.5372 90.0328 60.7725 89.8607 61.0077C89.6886 61.243 89.5478 61.4782 89.3913 61.6821C89.0785 62.1056 88.8438 62.529 88.6248 62.8897C88.1867 63.6268 87.8738 64.2228 87.6861 64.6149C87.3576 65.007 87.2637 65.2108 87.2637 65.2108Z" fill="#E71D73"/>
<path d="M50.7969 28.1514C48.7632 27.7122 46.7138 27.4143 44.68 27.179C45.1181 27.9945 45.384 28.8885 45.384 29.8608C45.384 34.2051 39.9398 38.8944 33.2284 42.3447C25.7817 46.2027 16.7394 48.6179 11.4829 48.6179C7.88471 48.6179 0 46.3282 0 41.9683C0 33.6875 20.9633 25.7675 36.5763 25.7675C38.391 25.7675 40.2058 25.8773 42.0205 26.0655C40.284 24.0267 35.7159 22.5681 31.4919 21.4233C28.3787 20.5764 25.3437 19.7922 23.3725 19.0394C22.34 18.663 21.7455 18.1925 21.3388 17.7064C19.8213 15.8871 21.6047 13.2837 24.3738 11.1351C28.7854 7.71616 36.6702 4.86182 43.1156 4.86182C47.1987 4.86182 50.0773 7.38681 50.0773 11.1821C50.0773 14.3815 40.1901 19.6511 37.8122 19.6511C37.5149 19.6511 37.2959 19.4315 37.7027 19.2119C41.7858 16.6869 47.8871 11.2606 47.8871 8.40622C47.8871 7.59069 47.2926 6.96337 45.7438 6.96337C35.8879 6.96337 22.0271 15.4009 25.2186 18.2866C25.7817 18.7728 28.629 19.4001 32.0707 20.3255C36.4355 21.5174 41.7076 23.2896 44.0699 26.3007C46.2914 26.6301 48.4816 27.1163 50.6248 27.7436C51.0629 27.8534 51.1255 28.2298 50.7969 28.1514ZM42.6463 27.0379C41.3791 26.9594 40.1275 26.9594 38.9073 26.9594C22.0897 26.9594 2.56566 37.4358 2.56566 43.6777C2.56566 45.4186 5.75709 45.9832 6.93041 45.9832C13.6418 45.9832 22.2618 43.3013 29.3486 39.7413C36.983 35.9146 42.8027 31.1312 42.8027 27.8534C42.7871 27.6025 42.7245 27.3045 42.6463 27.0379Z" fill="#E71D73"/>
<path d="M66.7228 26.191C67.3173 26.9751 67.9118 28.0102 67.8648 28.3396C67.8648 28.418 67.8335 28.4493 67.7866 28.5278L66.8636 29.5628C63.6409 33.2327 61.7166 36.4791 61.6697 37.1378C61.6697 37.2476 61.6697 37.326 61.8574 37.326C62.6709 37.326 69.0381 32.1663 73.9348 27.4142C74.2008 27.1476 74.4511 27.4456 74.2633 27.7122C72.5268 30.1588 63.813 39.3335 61.482 40.0079C61.3725 40.0392 61.3412 40.0392 61.2942 40.0392C59.8862 40.0392 57.8056 37.7024 57.9151 36.2909C57.9151 36.1812 57.9464 36.0243 57.9933 35.9145C58.2123 35.2872 59.5421 33.3582 62.358 29.751L59.9175 32.0251C55.7718 35.8518 50.5779 40.0079 49.1386 40.0079C48.0592 40.0079 45.65 37.624 45.65 35.8518C45.65 33.468 49.2012 28.9042 53.4252 25.3754C57.0233 22.3643 61.0909 19.9961 63.766 19.9961C66.6915 19.9961 69.0694 21.9251 69.0694 24.1521C69.0694 24.7011 67.8805 25.6264 66.7228 26.191ZM64.955 24.9677C64.9237 24.9677 65.1427 24.7481 65.7372 25.1559C65.8467 25.2343 65.9562 25.297 66.3004 25.6734C67.2703 24.3717 67.5676 23.2896 67.4111 22.5838C67.2703 21.9565 66.7854 21.7683 66.2222 21.7683C65.9249 21.7683 65.5964 21.7997 65.2992 21.8781C62.5927 22.474 59.3387 24.7795 56.4132 27.524C52.2206 31.4605 48.7475 35.8832 48.7475 37.1378C48.7475 37.2476 48.7788 37.4044 49.0448 37.4044C50.4528 37.4044 64.8298 28.12 65.1271 25.2186C65.0958 25.1559 65.0645 25.0304 64.955 24.9677Z" fill="#E71D73"/>
</svg>
