<svg width="0" height="0" class="hidden">
  <symbol fill="none" xmlns="http://www.w3.org/2000/svg" viewBox="0 0 27 27" id="login">
    <path d="M17.6666 1H23.2222C23.9589 1 24.6654 1.29266 25.1864 1.81359C25.7073 2.33453 26 3.04107 26 3.77778V23.2222C26 23.9589 25.7073 24.6655 25.1864 25.1864C24.6654 25.7073 23.9589 26 23.2222 26H17.6666" stroke="#212121" stroke-width="2" stroke-linecap="round" stroke-linejoin="round"></path>
    <path d="M17.6667 13.5H1" stroke="#212121" stroke-width="2" stroke-linecap="round" stroke-linejoin="round"></path>
  </symbol>
  <symbol fill="none" xmlns="http://www.w3.org/2000/svg" viewBox="0 0 27 24" id="heart">
    <path d="M24.0723 2.94496C23.4614 2.32835 22.7361 1.83921 21.9378 1.50549C21.1396 1.17177 20.2839 1 19.4199 1C18.5558 1 17.7001 1.17177 16.9019 1.50549C16.1036 1.83921 15.3783 2.32835 14.7674 2.94496L13.4997 4.22404L12.2319 2.94496C10.998 1.70004 9.3245 1.00065 7.57951 1.00065C5.83452 1.00065 4.16099 1.70004 2.92709 2.94496C1.6932 4.18988 1 5.87836 1 7.63895C1 9.39954 1.6932 11.088 2.92709 12.3329L4.19485 13.612L13.4997 23L22.8045 13.612L24.0723 12.3329C24.6834 11.7166 25.1682 10.9849 25.499 10.1794C25.8298 9.37403 26 8.51076 26 7.63895C26 6.76714 25.8298 5.90387 25.499 5.09846C25.1682 4.29305 24.6834 3.56128 24.0723 2.94496V2.94496Z" stroke="#212121" stroke-width="2" stroke-linecap="round" stroke-linejoin="round"></path>
  </symbol>
  <symbol fill="none" xmlns="http://www.w3.org/2000/svg" viewBox="0 0 20 20" id="search">
    <path d="M9 17C13.4183 17 17 13.4183 17 9.00002C17 4.58174 13.4183 1.00002 9 1.00002C4.58172 1.00002 1 4.58174 1 9.00002C1 13.4183 4.58172 17 9 17Z" stroke="white" stroke-linecap="round" stroke-linejoin="round"></path>
    <path d="M19 19L14.65 14.65" stroke="white" stroke-linecap="round" stroke-linejoin="round"></path>
  </symbol>
  <symbol fill="none" xmlns="http://www.w3.org/2000/svg" viewBox="0 0 26 25" id="wheel">
    <path d="M12.9716 21.043C8.26059 21.043 4.42737 17.2104 4.42737 12.4997C4.42737 7.78931 8.26059 3.95675 12.9716 3.95675C17.6796 3.95675 21.5157 7.78931 21.5157 12.4997C21.5157 17.2104 17.6796 21.043 12.9716 21.043ZM22.7157 19.4282L23.1531 19.7438C23.4575 19.3179 23.7353 18.874 23.9865 18.4109L23.5048 18.1652C23.4102 18.1165 23.3688 17.9992 23.4191 17.9032C23.4693 17.8074 23.5846 17.7687 23.6821 17.818L24.1638 18.0637C24.3974 17.5966 24.6013 17.1132 24.7756 16.6152L24.2584 16.4482C24.1579 16.4148 24.1017 16.3048 24.1373 16.2026C24.1697 16.1001 24.2791 16.0442 24.3796 16.0773L24.9027 16.2457C25.0564 15.7496 25.1806 15.2388 25.2722 14.7181L24.7372 14.6338C24.6337 14.617 24.5599 14.5171 24.5776 14.4107C24.5953 14.3043 24.6929 14.231 24.7992 14.2487L25.3371 14.3336C25.414 13.8211 25.4554 13.2974 25.4672 12.7666H24.9264C24.8199 12.7654 24.7343 12.6785 24.7343 12.5703C24.7343 12.4628 24.8199 12.3753 24.9264 12.3753H25.4702C25.4643 11.8442 25.4258 11.3211 25.3579 10.8068L24.823 10.8913C24.8111 10.8932 24.8022 10.8937 24.7933 10.8937C24.6958 10.8937 24.616 10.8252 24.6012 10.7291C24.5835 10.6227 24.6545 10.5231 24.7609 10.5063L25.2987 10.4214C25.2101 9.89951 25.0919 9.38819 24.9411 8.88989L24.4269 9.05779C24.4062 9.06426 24.3826 9.06699 24.3648 9.06699C24.282 9.06699 24.2052 9.01463 24.1786 8.93219C24.1461 8.82996 24.1993 8.71968 24.3057 8.68664L24.8199 8.51873C24.6515 8.01899 24.4564 7.5316 24.2289 7.06195L23.7442 7.30816C23.7176 7.32268 23.688 7.32979 23.6584 7.32979C23.5876 7.32979 23.5166 7.29076 23.4841 7.22308C23.4339 7.12732 23.4722 7.00999 23.5668 6.96091L24.0516 6.71504C23.8062 6.24922 23.5343 5.80063 23.2359 5.3712L22.8014 5.68652C22.7688 5.71198 22.7245 5.72378 22.6861 5.72378C22.627 5.72378 22.5679 5.69626 22.5295 5.64335C22.4645 5.5562 22.4822 5.43418 22.5709 5.37058L23.0112 5.05351C22.695 4.6323 22.3551 4.23333 21.9916 3.85506L21.6133 4.23279C21.5778 4.27086 21.5276 4.28978 21.4744 4.28978C21.4241 4.28978 21.3769 4.27086 21.3384 4.23279C21.2615 4.15682 21.2615 4.03328 21.3384 3.95675L21.7168 3.57696C21.3443 3.20985 20.9454 2.86645 20.5286 2.54875L20.2154 2.98262C20.1769 3.03522 20.1149 3.06299 20.0558 3.06299C20.0174 3.06299 19.9789 3.0512 19.9406 3.02543C19.8549 2.96254 19.8341 2.84019 19.8991 2.75328L20.2154 2.31818C19.7898 2.01413 19.3435 1.73481 18.8825 1.48534L18.6372 1.96648C18.6017 2.03424 18.5337 2.07317 18.4628 2.07317C18.4333 2.07317 18.4007 2.06616 18.3741 2.05163C18.2766 2.00319 18.2412 1.88523 18.2884 1.78915L18.5337 1.30689C18.0698 1.0737 17.585 0.869482 17.0856 0.695427L16.9201 1.20992C16.8934 1.29236 16.8166 1.34472 16.7339 1.34472C16.7161 1.34472 16.6925 1.34145 16.6718 1.33522C16.5713 1.30155 16.5152 1.19189 16.5477 1.08934L16.7191 0.570373C16.2196 0.414035 15.7083 0.291365 15.1882 0.197674L15.1054 0.731729C15.0906 0.827815 15.0049 0.896047 14.9133 0.896047C14.9015 0.896047 14.8897 0.895168 14.8808 0.893413C14.7744 0.876813 14.7005 0.776979 14.7182 0.670519L14.804 0.132084C14.2897 0.0564285 13.7666 0.0144479 13.2375 0.00319532V0.542909C13.2375 0.650486 13.1518 0.737964 13.0425 0.737964C12.9332 0.737964 12.8475 0.650486 12.8475 0.542909V0C12.3184 0.00526714 11.7923 0.0446117 11.2781 0.114361L11.3638 0.648417C11.3786 0.754797 11.3077 0.854721 11.2012 0.87156C11.1924 0.873315 11.1806 0.874194 11.1717 0.874194C11.0742 0.874194 10.9944 0.805321 10.9767 0.709315L10.8939 0.172548C10.3708 0.260333 9.85947 0.379471 9.36005 0.530143L9.53147 1.0456C9.56395 1.14815 9.50777 1.25813 9.40435 1.29149C9.38368 1.29803 9.36302 1.30098 9.3453 1.30098C9.26254 1.30098 9.18567 1.24896 9.1591 1.1662L8.99064 0.649851C8.49114 0.81832 8.00354 1.01456 7.53357 1.2424L7.77888 1.72507C7.82915 1.82108 7.7907 1.93872 7.69318 1.98748C7.6666 2.002 7.63403 2.00878 7.60745 2.00878C7.5365 2.00878 7.46566 1.97008 7.43309 1.9024L7.18776 1.42038C6.72082 1.66474 6.2716 1.93695 5.846 2.23606L6.15637 2.66989C6.22141 2.75712 6.2036 2.87913 6.11494 2.9421C6.08246 2.96756 6.04112 2.9796 6.00265 2.9796C5.94056 2.9796 5.88151 2.95183 5.84304 2.89923L5.52684 2.46215C5.10419 2.7757 4.70525 3.11647 4.3269 3.4791L4.70525 3.85649C4.77907 3.93247 4.77907 4.05635 4.70525 4.13257C4.66679 4.17071 4.61659 4.18962 4.56631 4.18962C4.51603 4.18962 4.46879 4.17071 4.42737 4.13257L4.04911 3.75253C3.68264 4.12665 3.33979 4.52329 3.02065 4.94091L3.45502 5.2562C3.54074 5.31917 3.5615 5.4415 3.49645 5.52841C3.46102 5.581 3.40189 5.60878 3.33981 5.60878C3.29847 5.60878 3.25999 5.59664 3.22456 5.57159L2.79009 5.25564C2.48571 5.68124 2.20783 6.12544 1.95668 6.58879L2.43838 6.83379C2.53295 6.88287 2.57438 7.00018 2.52115 7.09627C2.48867 7.16394 2.42067 7.20267 2.34972 7.20267C2.3202 7.20267 2.28764 7.19588 2.26106 7.18144L1.77937 6.93579C1.54586 7.40249 1.339 7.88627 1.16758 8.38425L1.68185 8.55122C1.78528 8.58466 1.84137 8.69485 1.80889 8.79684C1.77936 8.87959 1.70252 8.93188 1.62272 8.93188C1.60205 8.93188 1.5813 8.92891 1.56358 8.92212L1.04045 8.75366C0.886825 9.24989 0.762656 9.76056 0.67104 10.2814L1.20302 10.3656C1.3094 10.3827 1.38328 10.4827 1.36556 10.5887C1.3508 10.685 1.26804 10.7533 1.17347 10.7533C1.16166 10.7533 1.15281 10.7525 1.14395 10.7509L0.603018 10.6664C0.529198 11.1792 0.487796 11.7026 0.475985 12.2337H1.01386C1.12319 12.2337 1.21188 12.3209 1.21188 12.4288C1.21188 12.5367 1.12319 12.6238 1.01386 12.6238H0.470093C0.475998 13.1555 0.514365 13.6786 0.585312 14.192L1.12026 14.1072C1.22664 14.09 1.3272 14.1627 1.34196 14.2694C1.35968 14.3758 1.28578 14.4757 1.18235 14.4925L0.644448 14.5777C0.733112 15.0996 0.851292 15.6112 1.00204 16.1091L1.51632 15.9416C1.61975 15.9085 1.72908 15.9647 1.76157 16.0672C1.79708 16.1692 1.74089 16.2797 1.63746 16.3128L1.12026 16.4804C1.28872 16.9805 1.4867 17.4675 1.71431 17.9374L2.19604 17.6912C2.2906 17.6416 2.40886 17.6803 2.46201 17.7764C2.50934 17.8721 2.46792 17.99 2.37335 18.0385L1.89165 18.2844C2.13697 18.7505 2.40888 19.1988 2.70735 19.6279L3.14179 19.3129C3.23045 19.2496 3.3516 19.2686 3.41369 19.356C3.47578 19.4429 3.45797 19.5653 3.36939 19.6282L2.93495 19.946C3.24523 20.3674 3.59103 20.7661 3.94863 21.1444L4.32986 20.7667C4.40671 20.6905 4.5309 20.6905 4.60472 20.7667C4.68157 20.8427 4.68157 20.9665 4.60472 21.0427L4.22642 21.4227C4.59879 21.7895 4.99488 22.133 5.41449 22.4509L5.72779 22.0171C5.78988 21.9299 5.91399 21.9101 6.00265 21.9739C6.08541 22.0369 6.10609 22.1589 6.04408 22.2462L5.72779 22.6812C6.15339 22.9853 6.59969 23.2649 7.06072 23.5143L7.30603 23.0332C7.35623 22.9374 7.47155 22.8984 7.56908 22.9478C7.6666 22.9966 7.70202 23.1142 7.65477 23.2102L7.4065 23.6929C7.87344 23.9254 8.3582 24.13 8.85762 24.304L9.02312 23.7895C9.0556 23.687 9.16796 23.6311 9.27139 23.6641C9.37186 23.6976 9.42805 23.8075 9.39549 23.9101L9.22703 24.4291C9.72062 24.5854 10.2349 24.7083 10.755 24.802L10.8377 24.2679C10.8555 24.1619 10.956 24.0889 11.0624 24.1057C11.1688 24.1226 11.2426 24.2225 11.2249 24.3289L11.1363 24.8674C11.6505 24.9427 12.1736 24.985 12.7056 24.9962V24.4569C12.7056 24.3486 12.7942 24.2618 12.9007 24.2618C13.01 24.2618 13.0957 24.3486 13.0957 24.4569V25C13.6277 24.9944 14.1508 24.9552 14.6621 24.8854L14.5793 24.3514C14.5616 24.2449 14.6355 24.1444 14.7419 24.1279C14.8483 24.1108 14.9459 24.1841 14.9636 24.2901L15.0493 24.8275C15.5724 24.7394 16.0837 24.6203 16.5802 24.4699L16.4147 23.9538C16.3792 23.8515 16.4353 23.7413 16.5388 23.7082C16.6423 23.6749 16.7516 23.7313 16.7841 23.8335L16.9526 24.3495C17.4521 24.1811 17.9397 23.9851 18.4095 23.7573L18.1614 23.2744C18.114 23.1783 18.1496 23.0607 18.25 23.0119C18.3446 22.9626 18.4598 23.001 18.5101 23.0973L18.7554 23.5794C19.2224 23.3353 19.6716 23.0631 20.1001 22.764L19.7839 22.3301C19.7218 22.2426 19.7425 22.1209 19.8282 22.0576C19.9168 21.9941 20.0381 22.0133 20.1001 22.1005L20.4163 22.5375C20.839 22.2243 21.2379 21.8832 21.6162 21.5209L21.2379 21.1432C21.164 21.067 21.164 20.9434 21.2379 20.8672C21.3148 20.7909 21.4389 20.7909 21.5157 20.8672L21.8941 21.2473C22.2606 20.873 22.6034 20.4764 22.9225 20.0589L22.4881 19.7435C22.4024 19.6803 22.3817 19.5585 22.4438 19.471C22.5088 19.3841 22.63 19.3646 22.7157 19.4282Z" fill="#FFB200"></path>
    <path d="M18.6311 7.55402C18.5779 7.57414 18.5277 7.59219 18.4952 7.604C18.0785 7.73967 17.7268 8.00893 17.5169 8.36271C17.2982 8.72558 17.245 9.13289 17.3662 9.50997L18.2883 12.3469C18.4094 12.724 18.6932 13.0225 19.0833 13.1874C19.2902 13.2749 19.5148 13.3189 19.7453 13.3189C19.9345 13.3189 20.1296 13.2882 20.3217 13.2264C20.4133 13.1963 20.5019 13.1582 20.5876 13.115C20.4901 14.3318 20.106 15.469 19.5089 16.4594C19.4793 16.4263 19.4527 16.3917 19.4232 16.3545C19.3877 16.3099 19.3552 16.2691 19.3316 16.2392C19.0774 15.8843 18.7109 15.6372 18.309 15.5435C17.8982 15.4475 17.4903 15.5228 17.1741 15.7557L14.7565 17.5095C14.4374 17.7421 14.2423 18.1033 14.2068 18.5256C14.1684 18.937 14.2925 19.3593 14.5497 19.7136C14.6088 19.7931 14.6708 19.8658 14.7388 19.9341C14.1714 20.0692 13.5803 20.1431 12.9715 20.1431C12.3716 20.1431 11.7863 20.0713 11.2248 19.9394C11.2484 19.9045 11.2721 19.8677 11.2987 19.8274C11.3312 19.7801 11.3607 19.7367 11.3784 19.7065C11.6385 19.3517 11.7627 18.9293 11.7272 18.5179C11.6888 18.0958 11.4908 17.7347 11.1716 17.5018L8.757 15.7484C8.43778 15.5152 8.0359 15.4398 7.62211 15.5362C7.21726 15.6299 6.85668 15.8769 6.59955 16.2318C6.54041 16.3104 6.49318 16.3932 6.44586 16.4783C5.84293 15.49 5.45579 14.3537 5.35826 13.1381C5.39665 13.1496 5.43808 13.1615 5.48533 13.1741C5.54151 13.1892 5.59171 13.2028 5.62427 13.2143C5.81636 13.2764 6.01138 13.3057 6.20052 13.3057C6.86554 13.3057 7.4625 12.9339 7.65762 12.3348L8.57968 9.49818C8.70083 9.12079 8.64768 8.71322 8.43189 8.35027C8.21913 7.99649 7.86744 7.72698 7.45365 7.59187C7.36203 7.56202 7.2704 7.54048 7.17583 7.52516C7.94132 6.6323 8.91073 5.91676 10.0101 5.45309C10.0101 5.49531 10.0131 5.53966 10.016 5.58754C10.019 5.64484 10.0219 5.6969 10.0219 5.7344C10.0219 6.65057 10.6781 7.39563 11.4879 7.39563H14.4669C15.2767 7.39563 15.9358 6.65057 15.9358 5.7344C15.9358 5.63656 15.924 5.5399 15.9092 5.44446C17.0145 5.90525 17.981 6.61776 18.7523 7.50854C18.7139 7.52275 18.6754 7.5375 18.6311 7.55402ZM19.0183 7.83129C20.0173 9.12341 20.6142 10.7427 20.6142 12.4994C20.6142 12.552 20.6113 12.604 20.6113 12.6561C20.5995 12.6605 20.5877 12.6625 20.5788 12.6691C20.4636 12.748 20.3394 12.8109 20.2005 12.8553C19.8725 12.962 19.5296 12.9522 19.2341 12.8281C18.9504 12.7078 18.7464 12.4944 18.6607 12.2266L17.7356 9.38939C17.6499 9.12164 17.6913 8.82845 17.8479 8.56421C18.0164 8.29088 18.2854 8.08163 18.6164 7.97493C18.6548 7.96193 18.708 7.94126 18.7701 7.91876C18.841 7.8925 18.9385 7.85435 19.0183 7.83129ZM15.1851 19.8153C15.1762 19.8065 15.1733 19.7964 15.1615 19.7887C15.0521 19.7033 14.9516 19.601 14.8689 19.4846C14.6649 19.2056 14.5674 18.8766 14.594 18.5587C14.6206 18.251 14.7595 17.9903 14.99 17.8248L17.4017 16.0713C17.6293 15.9061 17.9189 15.8535 18.2203 15.9236C18.5336 15.996 18.8144 16.1896 19.0183 16.4686C19.042 16.5026 19.0804 16.5481 19.1188 16.5986C19.1661 16.6571 19.2341 16.7419 19.2784 16.8085C18.309 18.2289 16.8667 19.3046 15.1851 19.8153ZM10.9736 19.6131C10.9322 19.677 10.8702 19.7686 10.8229 19.833C9.13235 19.3374 7.68713 18.2732 6.70002 16.862C6.70593 16.8525 6.71184 16.8454 6.7148 16.8351C6.76212 16.7029 6.83003 16.5776 6.91574 16.4608C7.11677 16.1822 7.39754 15.9886 7.71077 15.9159C8.00932 15.8459 8.30187 15.8985 8.5294 16.0637L10.9441 17.8172C11.1716 17.9827 11.3135 18.243 11.3371 18.5507C11.3666 18.8693 11.2662 19.1979 11.0652 19.4772C11.0416 19.5112 11.009 19.5599 10.9736 19.6131ZM5.32572 12.4997C5.32572 10.7667 5.90796 9.16682 6.88326 7.88331C6.89507 7.88507 6.90393 7.88979 6.91574 7.89011C7.05468 7.89394 7.19649 7.9182 7.33248 7.96281C7.66055 8.06919 7.92951 8.27842 8.09798 8.55215C8.25751 8.81631 8.29598 9.10951 8.21027 9.37757L7.28515 12.2142C7.10192 12.7775 6.41338 13.0603 5.74541 12.8431C5.70703 12.8301 5.65082 12.8148 5.58873 12.7976C5.51491 12.7778 5.40848 12.7489 5.3317 12.7222C5.3317 12.6478 5.32572 12.5745 5.32572 12.4997ZM10.4002 5.3029C11.2042 5.01448 12.0701 4.85639 12.9715 4.85639C13.8522 4.85639 14.6945 5.00738 15.4807 5.28135C15.4807 5.29261 15.4777 5.30408 15.4836 5.31533C15.525 5.44981 15.5427 5.59075 15.5427 5.73472C15.5427 6.43572 15.061 7.00586 14.4669 7.00586H11.4879C10.8938 7.00586 10.4121 6.43572 10.4121 5.73472C10.4121 5.69218 10.4091 5.63362 10.4062 5.56921C10.4032 5.49388 10.3973 5.38358 10.4002 5.3029ZM12.9715 4.38641C8.49694 4.38641 4.85876 8.02609 4.85876 12.4997C4.85876 16.9734 8.49694 20.6133 12.9715 20.6133C17.4431 20.6133 21.0842 16.9734 21.0842 12.4997C21.0842 8.02609 17.4431 4.38641 12.9715 4.38641Z" fill="#FFB200"></path>
    <path d="M12.9212 13.8899C12.2148 13.8899 11.6414 13.3157 11.6414 12.6096C11.6414 11.9033 12.2148 11.329 12.9212 11.329C13.6275 11.329 14.2009 11.9033 14.2009 12.6096C14.2009 13.3157 13.6275 13.8899 12.9212 13.8899ZM12.9212 10.939C11.999 10.939 11.2513 11.6884 11.2513 12.6094C11.2513 13.5302 11.999 14.2798 12.9212 14.2798C13.8432 14.2801 14.591 13.5309 14.591 12.6094C14.591 11.6884 13.8432 10.939 12.9212 10.939Z" fill="#FFB200"></path>
    <path d="M12.9719 9.53185C13.0104 9.53185 13.0369 9.5617 13.0369 9.59896C13.0369 9.63591 13.0104 9.66577 12.9719 9.66577C12.9335 9.66577 12.9069 9.63591 12.9069 9.59896C12.904 9.5617 12.9335 9.53185 12.9719 9.53185ZM12.9719 9.92193C13.1522 9.92193 13.2941 9.77685 13.2941 9.59896C13.2941 9.42076 13.1522 9.27591 12.9719 9.27591C12.7946 9.27591 12.6498 9.42076 12.6498 9.59896C12.6498 9.77685 12.7946 9.92193 12.9719 9.92193Z" fill="#FFB200"></path>
    <path d="M10.1373 11.6527C10.1254 11.687 10.0841 11.7062 10.0546 11.6959C10.0368 11.6902 10.022 11.6782 10.0131 11.6622C10.0043 11.6465 10.0043 11.6276 10.0072 11.6114C10.019 11.5836 10.0457 11.5649 10.0723 11.5649C10.0811 11.5649 10.087 11.5656 10.0929 11.5679C10.1106 11.5732 10.1225 11.5853 10.1313 11.601C10.1403 11.6169 10.1432 11.6355 10.1373 11.6527ZM10.1757 11.3244C10.0072 11.2708 9.82104 11.3657 9.76781 11.5315C9.73829 11.6134 9.74715 11.7011 9.78561 11.7783C9.82695 11.8551 9.88904 11.9119 9.97475 11.9391C10.0043 11.9494 10.0397 11.9547 10.0723 11.9547C10.2141 11.9547 10.3383 11.8649 10.3796 11.7316C10.4092 11.6494 10.4003 11.5619 10.3619 11.4848C10.3206 11.408 10.2555 11.3506 10.1757 11.3244Z" fill="#FFB200"></path>
    <path d="M11.1662 15.0552C11.1455 15.084 11.1012 15.0913 11.0746 15.0701C11.0421 15.0485 11.0362 15.0062 11.0569 14.9764C11.0717 14.9592 11.0894 14.9486 11.113 14.9486C11.1278 14.9486 11.1397 14.9533 11.1515 14.9616C11.181 14.9832 11.1898 15.0254 11.1662 15.0552ZM11.3022 14.7547C11.1633 14.6533 10.9535 14.6873 10.8501 14.826C10.7465 14.9705 10.7791 15.1726 10.9209 15.2773C10.9771 15.3174 11.0421 15.3387 11.113 15.3387C11.2136 15.3387 11.314 15.2893 11.3731 15.206C11.4263 15.1359 11.444 15.0509 11.4322 14.9655C11.4175 14.88 11.3731 14.8055 11.3022 14.7547Z" fill="#FFB200"></path>
    <path d="M14.6913 15.1296C14.6617 15.1499 14.6174 15.1429 14.5967 15.1145C14.576 15.0843 14.5789 15.0421 14.6115 15.0205C14.6233 15.0123 14.6381 15.0075 14.6499 15.0075C14.6706 15.0075 14.6943 15.0179 14.7031 15.035C14.7149 15.0495 14.7179 15.0678 14.7149 15.0852C14.712 15.1027 14.7031 15.1187 14.6913 15.1296ZM14.4608 14.8133C14.3928 14.8642 14.3426 14.939 14.3308 15.0241C14.3189 15.1095 14.3396 15.1949 14.3898 15.2646C14.4519 15.348 14.5465 15.3977 14.6499 15.3977C14.7179 15.3977 14.7859 15.3763 14.839 15.3359C14.91 15.2854 14.9543 15.2106 14.9691 15.1255C14.9839 15.0404 14.9632 14.9547 14.9129 14.8852C14.8125 14.7465 14.5997 14.712 14.4608 14.8133Z" fill="#FFB200"></path>
    <path d="M15.8202 11.7904C15.7847 11.8026 15.7463 11.7816 15.7345 11.7479C15.7285 11.7308 15.7315 11.7121 15.7404 11.6959C15.7493 11.6805 15.7641 11.6683 15.7788 11.6627C15.7847 11.6603 15.7936 11.6598 15.7995 11.6598C15.829 11.6598 15.8557 11.6782 15.8645 11.7062C15.8764 11.741 15.8557 11.7786 15.8202 11.7904ZM15.702 11.4192C15.5305 11.4748 15.436 11.6572 15.4922 11.8262C15.5335 11.9601 15.6577 12.0499 15.7995 12.0499C15.832 12.0499 15.8675 12.0446 15.9 12.0342C15.9827 12.007 16.0478 11.9503 16.0862 11.8734C16.1246 11.796 16.1335 11.7086 16.1069 11.627C16.0537 11.4615 15.8675 11.3652 15.702 11.4192Z" fill="#FFB200"></path>
  </symbol>
  <symbol fill="none" xmlns="http://www.w3.org/2000/svg" viewBox="0 0 18 25" id="filter">
    <path d="M8.92845 1.84277C5.80407 1.84277 5.80408 2.25714 5.80408 2.56173C5.80408 2.86303 5.80407 3.27742 8.92845 3.27742C12.053 3.27742 12.053 2.86303 12.053 2.56173C12.053 2.25714 12.053 1.84277 8.92845 1.84277Z" fill="#FFB200"></path>
    <path d="M8.86878 4.55184C5.87396 4.55184 3.56591 4.11235 2.26551 3.59749C2.25172 3.58806 2.23687 3.58177 2.22139 3.57865C1.4895 3.28038 1.08748 2.96028 1.08748 2.68399C1.08748 1.92425 4.11886 0.819375 8.86878 0.819375C13.6186 0.819375 16.65 1.92425 16.65 2.68399C16.65 3.44684 13.6186 4.55184 8.86878 4.55184ZM2.91474 17.6325C2.76311 17.6325 2.62376 17.6765 2.49527 17.7424V15.8526C2.62376 15.9186 2.76311 15.9625 2.91474 15.9625C3.45843 15.9625 3.9004 15.4884 3.9004 14.9078C3.9004 14.3239 3.45843 13.85 2.91474 13.85C2.76311 13.85 2.62376 13.8938 2.49527 13.9598V11.9005C2.62376 11.9665 2.76311 12.0103 2.91474 12.0103C3.45843 12.0103 3.9004 11.5364 3.9004 10.9556C3.9004 10.3717 3.45843 9.89768 2.91474 9.89768C2.76311 9.89768 2.62376 9.94175 2.49527 10.0077V7.81655C2.62376 7.88239 2.76311 7.92635 2.91474 7.92635C3.45843 7.92635 3.9004 7.45235 3.9004 6.87155C3.9004 6.28782 3.45843 5.81373 2.91474 5.81373C2.76311 5.81373 2.62376 5.85767 2.49527 5.9236V4.54242C3.14342 4.75891 3.90165 4.92842 4.72581 5.06029C4.68301 5.17962 4.65471 5.30526 4.65471 5.43705C4.65471 6.01775 5.09626 6.4949 5.63897 6.4949C6.18239 6.4949 6.62426 6.02095 6.62426 5.43705C6.62426 5.38054 6.60185 5.33339 6.595 5.28018C7.3381 5.33971 8.10423 5.37111 8.86878 5.37111C9.69419 5.37111 10.5207 5.33337 11.3191 5.26753C11.2647 5.39629 11.2328 5.54063 11.2328 5.69127C11.2328 6.27518 11.6747 6.7491 12.2175 6.7491C12.7602 6.7491 13.2021 6.27518 13.2021 5.69127C13.2021 5.45271 13.1144 5.24244 12.9889 5.06349C13.8562 4.92841 14.6537 4.74645 15.326 4.51732L15.3193 5.86399C15.2416 5.84513 15.1661 5.81373 15.0818 5.81373C14.5391 5.81373 14.0974 6.28782 14.0974 6.87155C14.0974 7.45235 14.5391 7.92635 15.0818 7.92635C15.1628 7.92635 15.235 7.89814 15.3104 7.87918L15.3006 9.94484C15.2284 9.92589 15.1595 9.89768 15.0818 9.89768C14.5391 9.89768 14.0974 10.3717 14.0974 10.9556C14.0974 11.5364 14.5391 12.0103 15.0818 12.0103C15.1566 12.0103 15.2218 11.9821 15.2907 11.9665L15.2818 13.8939C15.2145 13.8781 15.1522 13.85 15.0808 13.85C14.5384 13.85 14.0965 14.3239 14.0965 14.9078C14.0965 15.4884 14.5384 15.9625 15.0808 15.9625C15.149 15.9625 15.208 15.9374 15.2719 15.9218L15.264 17.6733C15.2023 17.6608 15.1457 17.6325 15.0808 17.6325C14.5384 17.6325 14.0965 18.1066 14.0965 18.6905C14.0965 19.2744 14.5384 19.7483 15.0808 19.7483C15.1424 19.7483 15.1958 19.7201 15.2548 19.7106L15.2499 21.0228L15.2491 21.2865C14.9908 21.3807 14.7144 21.4748 14.4128 21.569C13.0159 22.0022 11.1854 22.3977 9.12942 22.3977C6.5554 22.3977 4.50175 21.9803 3.16256 21.4999C2.91412 21.4121 2.69201 21.3211 2.49527 21.2332V19.6353C2.62376 19.7012 2.76311 19.7452 2.91474 19.7452C3.45843 19.7452 3.9004 19.2711 3.9004 18.6905C3.9004 18.1066 3.45843 17.6325 2.91474 17.6325ZM16.65 22.313C16.65 23.0758 13.6186 24.1808 8.86878 24.1808C4.11886 24.1808 1.08748 23.0759 1.08748 22.3161C1.08748 22.1937 1.26704 21.9425 1.71721 21.6694C1.72379 21.682 1.73367 21.6945 1.74159 21.7041C1.75574 21.726 1.76793 21.7511 1.78546 21.7699C1.80485 21.7919 1.82959 21.8075 1.85299 21.8232C1.86883 21.8359 1.8803 21.8515 1.89846 21.8609C1.90602 21.8641 1.91563 21.8673 1.92284 21.8703C1.9248 21.8703 1.92615 21.8703 1.92677 21.8703C3.59031 22.7117 6.27831 23.2139 9.12879 23.2139C11.9018 23.2139 14.2882 22.5328 15.8021 21.9582C15.8047 21.9582 15.8064 21.9552 15.8088 21.9552C15.8384 21.9425 15.8621 21.9206 15.8875 21.9048C15.9053 21.8891 15.9267 21.8829 15.9425 21.8673C15.9613 21.8483 15.9731 21.8264 15.9876 21.8045C16.0025 21.7824 16.0213 21.7605 16.0311 21.7385C16.0367 21.7229 16.0377 21.7102 16.0417 21.6944C16.4615 21.9645 16.65 22.2125 16.65 22.313ZM17.4705 2.68399C17.4705 0.922924 13.1438 0 8.86977 0C4.59537 0 0.267944 0.922924 0.267944 2.68399C0.267944 3.30242 0.804779 3.81409 1.67539 4.21905V20.7591C1.0631 21.0574 0.267944 21.5878 0.267944 22.3161C0.267944 24.0772 4.59474 25 8.86878 25C13.1431 25 17.4695 24.0772 17.4695 22.3161C17.4695 21.5941 16.5825 21.0323 16.0704 20.7686L16.1475 4.17828C16.9671 3.77955 17.4705 3.28036 17.4705 2.68399Z" fill="#FFB200"></path>
    <path d="M8.92842 8.5731C9.4721 8.5731 9.91267 8.10228 9.91267 7.51838C9.91267 6.93447 9.4721 6.46045 8.92842 6.46045C8.38428 6.46045 7.94373 6.93447 7.94373 7.51838C7.94373 8.10228 8.38428 8.5731 8.92842 8.5731Z" fill="#FFB200"></path>
    <path d="M8.92842 12.6571C9.4721 12.6571 9.91267 12.1862 9.91267 11.6023C9.91267 11.0184 9.4721 10.5444 8.92842 10.5444C8.38428 10.5444 7.94373 11.0184 7.94373 11.6023C7.94373 12.1862 8.38428 12.6571 8.92842 12.6571Z" fill="#FFB200"></path>
    <path d="M8.92842 16.6092C9.4721 16.6092 9.91267 16.1352 9.91267 15.5546C9.91267 14.9707 9.4721 14.4966 8.92842 14.4966C8.38428 14.4966 7.94373 14.9707 7.94373 15.5546C7.94373 16.1352 8.38428 16.6092 8.92842 16.6092Z" fill="#FFB200"></path>
    <path d="M8.92842 20.392C9.4721 20.392 9.91267 19.921 9.91267 19.3371C9.91267 18.7533 9.4721 18.2793 8.92842 18.2793C8.38428 18.2793 7.94373 18.7533 7.94373 19.3371C7.94373 19.921 8.38428 20.392 8.92842 20.392Z" fill="#FFB200"></path>
    <path d="M12.2175 10.8301C12.7612 10.8301 13.2021 10.3592 13.2021 9.77535C13.2021 9.19144 12.7612 8.71753 12.2175 8.71753C11.6737 8.71753 11.2328 9.19144 11.2328 9.77535C11.2328 10.3592 11.6737 10.8301 12.2175 10.8301Z" fill="#FFB200"></path>
    <path d="M12.2175 14.7821C12.7612 14.7821 13.2021 14.3112 13.2021 13.7273C13.2021 13.1436 12.7612 12.6694 12.2175 12.6694C11.6737 12.6694 11.2328 13.1436 11.2328 13.7273C11.2328 14.3112 11.6737 14.7821 12.2175 14.7821Z" fill="#FFB200"></path>
    <path d="M12.2175 18.568C12.7612 18.568 13.2021 18.0939 13.2021 17.5099C13.2021 16.9261 12.7612 16.4553 12.2175 16.4553C11.6737 16.4553 11.2328 16.9261 11.2328 17.5099C11.2328 18.0939 11.6737 18.568 12.2175 18.568Z" fill="#FFB200"></path>
    <path d="M5.63892 10.5759C6.18269 10.5759 6.62324 10.105 6.62324 9.52106C6.62324 8.93724 6.18269 8.46313 5.63892 8.46313C5.09523 8.46313 4.65466 8.93724 4.65466 9.52106C4.65466 10.105 5.09523 10.5759 5.63892 10.5759Z" fill="#FFB200"></path>
    <path d="M5.27577 21.5124C5.38887 21.5626 5.51007 21.5909 5.63892 21.5909C5.76091 21.5909 5.8749 21.5595 5.9823 21.5187C6.2077 21.4277 6.38565 21.2487 6.49804 21.0227C6.57181 20.8752 6.62324 20.7151 6.62324 20.5362C6.62422 19.9523 6.18234 19.4783 5.63892 19.4783C5.09621 19.4783 4.65466 19.9523 4.65466 20.5362C4.65466 20.7151 4.70699 20.8752 4.77987 21.0227C4.88896 21.2425 5.0583 21.4214 5.27577 21.5124Z" fill="#FFB200"></path>
    <path d="M12.0411 21.5532C12.1001 21.5658 12.1552 21.594 12.2175 21.594C12.2765 21.594 12.3282 21.5689 12.3845 21.5564C12.6864 21.4998 12.9372 21.3052 13.0765 21.0227C13.1504 20.8752 13.2021 20.7151 13.2021 20.5362C13.2021 19.9523 12.7602 19.4783 12.2175 19.4783C11.6747 19.4783 11.2328 19.9523 11.2328 20.5362C11.2328 20.7151 11.2852 20.8752 11.3584 21.0227C11.4968 21.302 11.7436 21.4936 12.0411 21.5532Z" fill="#FFB200"></path>
    <path d="M5.63892 14.5279C6.18269 14.5279 6.62324 14.057 6.62324 13.4731C6.62324 12.8892 6.18269 12.4153 5.63892 12.4153C5.09523 12.4153 4.65466 12.8892 4.65466 13.4731C4.65466 14.057 5.09523 14.5279 5.63892 14.5279Z" fill="#FFB200"></path>
    <path d="M5.63892 18.3137C6.18269 18.3137 6.62324 17.8397 6.62324 17.2558C6.62324 16.6719 6.18269 16.198 5.63892 16.198C5.09523 16.198 4.65466 16.6719 4.65466 17.2558C4.65466 17.8397 5.09523 18.3137 5.63892 18.3137Z" fill="#FFB200"></path>
  </symbol>
  <symbol fill="none" xmlns="http://www.w3.org/2000/svg" viewBox="0 0 48 24" id="car">
    <path d="M40.5044 21.1278C39.6304 21.1278 38.9197 20.4171 38.9197 19.5431C38.9197 18.6696 39.6304 17.959 40.5044 17.959C41.3773 17.959 42.0879 18.6696 42.0879 19.5431C42.0879 20.4171 41.3773 21.1278 40.5044 21.1278ZM40.5044 15.9962C38.5476 15.9962 36.9566 17.5873 36.9566 19.5431C36.9566 21.4994 38.5476 23.0903 40.5044 23.0903C42.4601 23.0903 44.0513 21.4994 44.0513 19.5431C44.0513 17.5873 42.4601 15.9962 40.5044 15.9962Z" fill="#FFB200"></path>
    <path d="M7.63763 21.1278C6.76368 21.1278 6.05302 20.4171 6.05302 19.5431C6.05302 18.6696 6.76368 17.959 7.63763 17.959C8.51167 17.959 9.22233 18.6696 9.22233 19.5431C9.22233 20.4171 8.51167 21.1278 7.63763 21.1278ZM7.63763 15.9962C5.68196 15.9962 4.09071 17.5873 4.09071 19.5431C4.09071 21.4994 5.68196 23.0903 7.63763 23.0903C9.59339 23.0903 11.1843 21.4994 11.1843 19.5431C11.1843 17.5873 9.59339 15.9962 7.63763 15.9962Z" fill="#FFB200"></path>
    <path d="M46.2082 15.5709H45.1852C44.533 15.5709 43.9137 15.286 43.4896 14.7907L43.1862 14.4364C42.7621 13.9412 43.1139 13.1767 43.7661 13.1767H46.2082V15.5709ZM47.1039 17.855V3.95835C47.0005 2.38197 45.6891 1.13504 44.0866 1.13504H35.3015C34.6268 1.13504 34.0798 1.68233 34.0798 2.35709V15.6446H10.1644C11.4419 16.4754 12.292 17.9092 12.292 19.543C12.292 19.5946 12.2784 19.6428 12.2768 19.6942H35.864C35.8624 19.6428 35.8487 19.5946 35.8487 19.543C35.8487 16.9767 37.9374 14.8886 40.5044 14.8886C43.0712 14.8886 45.1588 16.9767 45.1588 19.543C45.1588 19.5936 45.1455 19.6403 45.1439 19.6904C46.1776 19.6712 47.0211 18.8719 47.1039 17.855ZM37.3437 8.32868V2.80644H43.8009C44.5966 2.80644 45.2417 3.45151 45.2417 4.24725V8.32868H37.3437ZM2.98306 19.543C2.98306 17.9092 3.83321 16.4754 5.11035 15.6446H0V17.9383C0 18.9083 0.786185 19.6942 1.75616 19.6942H2.99832C2.9967 19.6428 2.98306 19.5946 2.98306 19.543Z" fill="#FFB200"></path>
    <path d="M0 13.4353H31.8663V0H0V13.4353Z" fill="#FFB200"></path>
  </symbol>
  <symbol fill="none" xmlns="http://www.w3.org/2000/svg" viewBox="0 0 17 25" id="oil">
    <path d="M16.104 22.2879C15.5365 17.1415 14.2386 12.6556 12.321 9.13071C12.2947 9.15391 12.2614 9.16896 12.2239 9.16896H0.768921C1.81525 11.9912 2.19696 17.916 2.20529 22.2879H16.104Z" fill="#FFB200"></path>
    <path d="M3.0307 2.90891H8.02594C7.99184 2.29686 7.76035 1.92435 7.58882 1.92435H7.38859V2.41639C7.38859 2.48023 7.33735 2.53223 7.27455 2.53223H6.61409C6.5513 2.53223 6.50006 2.48023 6.50006 2.41639V1.92435H5.97286V2.41639C5.97286 2.48023 5.922 2.53223 5.85883 2.53223H5.19838C5.13529 2.53223 5.08443 2.48023 5.08443 2.41639V1.92435H4.55753V2.41639C4.55753 2.48023 4.50666 2.53223 4.44358 2.53223H3.78304C3.72024 2.53223 3.66909 2.48023 3.66909 2.41639V1.92435H3.46838C3.29685 1.92435 3.06537 2.29686 3.0307 2.90891Z" fill="#FFB200"></path>
    <path d="M2.82135 3.21722C2.6106 3.21722 2.43377 3.34348 2.37732 3.51473C2.539 3.49086 2.70352 3.4754 2.87221 3.4754H7.51917C8.06076 3.47502 8.73172 3.90296 9.12707 4.30143C9.12707 4.30181 9.12773 4.30183 9.12849 4.3022C9.27265 4.44314 9.41435 4.58908 9.55462 4.73712L9.42097 4.48908C9.42097 4.48842 9.42069 4.48842 9.42069 4.48842C9.0404 3.79917 8.5743 3.21722 8.40173 3.21722H2.82135Z" fill="#FFB200"></path>
    <path d="M6.93008 7.88623L6.94031 8.04063V7.88623C7.15702 7.88623 7.36227 7.79438 7.51732 7.62739C7.71376 7.41627 7.81577 7.10539 7.79721 6.77502C7.76112 6.14507 7.30544 5.62594 6.78033 5.6196C6.55406 5.6196 6.34928 5.71145 6.19385 5.87777C5.99741 6.08965 5.89502 6.40006 5.91359 6.73081C5.94939 7.36152 6.40507 7.8796 6.93008 7.88623Z" fill="#FFB200"></path>
    <path d="M3.05692 8.28406C3.94194 8.28406 4.66169 7.51658 4.66169 6.5734C4.66169 5.63012 3.94156 4.86237 3.05692 4.86237C2.17227 4.86237 1.45251 5.63012 1.45251 6.5734C1.45251 7.51658 2.17227 8.28406 3.05692 8.28406Z" fill="#FFB200"></path>
    <path d="M3.05732 4.55458C4.10924 4.55458 4.96547 5.46064 4.96547 6.57355C4.96547 7.68656 4.10924 8.59223 3.05732 8.59223C2.00569 8.59223 1.14955 7.68656 1.14955 6.57355C1.14955 5.46026 2.00569 4.55458 3.05732 4.55458ZM5.97286 5.66646C6.18616 5.43782 6.46918 5.31154 6.77085 5.31154C7.46502 5.32025 8.05539 5.96886 8.10028 6.75766C8.1234 7.17261 7.99155 7.56653 7.7379 7.83912C7.5247 8.06852 7.24121 8.19479 6.93992 8.19479C6.93954 8.19479 6.92694 8.19442 6.92628 8.19442C6.24546 8.18599 5.65509 7.53745 5.61058 6.74819C5.58699 6.33361 5.71893 5.93943 5.97286 5.66646ZM0.103882 6.1891C0.108807 6.58757 0.211579 6.99133 0.269829 7.21514C0.270492 7.21761 0.272283 7.2193 0.272946 7.22177L0.666212 8.86095H12.1709C11.2266 7.17727 10.1382 5.71909 8.9175 4.52406C8.91721 4.52368 8.91683 4.52304 8.91645 4.52228C8.91617 4.52228 8.91617 4.52228 8.91617 4.52228C8.55236 4.15507 7.95613 3.7832 7.51939 3.7832H2.87243C1.36597 3.7832 0.138927 4.8573 0.103882 6.1891Z" fill="#FFB200"></path>
    <path d="M3.89685 1.92432V2.30063H4.3297V1.92432H3.89685Z" fill="#FFB200"></path>
    <path d="M2.41931 24.3241C2.10571 23.84 1.91524 23.2132 1.91524 22.5285C1.91524 22.5212 1.91808 22.5152 1.91874 22.5082C1.90889 22.4882 1.90264 22.466 1.90264 22.4419C1.90264 19.185 1.69464 15.0186 1.15372 11.946V22.8639C1.15372 23.6071 1.70516 24.2224 2.41931 24.3241Z" fill="#FFB200"></path>
    <path d="M5.31287 1.92432V2.30063H5.74543V1.92432H5.31287Z" fill="#FFB200"></path>
    <path d="M6.72791 1.92432V2.30063H7.16038V1.92432H6.72791Z" fill="#FFB200"></path>
    <path d="M7.6398 1.67002V0.233664C7.64056 0.104566 7.54091 0 7.41778 0H3.64003C3.51728 0 3.41736 0.104566 3.41736 0.233664V1.67002H3.67129V0.360587C3.67129 0.305557 3.71581 0.260654 3.77018 0.260654C3.82454 0.260654 3.8684 0.305557 3.8684 0.360587V1.67002H4.11219V0.360587C4.11219 0.305557 4.15642 0.260654 4.21041 0.260654C4.26478 0.260654 4.30892 0.305557 4.30892 0.360587V1.67002H4.55272V0.360587C4.55272 0.305557 4.59732 0.260654 4.65131 0.260654C4.70568 0.260654 4.74953 0.305557 4.74953 0.360587V1.67002H4.99334V0.360587C4.99334 0.305557 5.03786 0.260654 5.09184 0.260654C5.14621 0.260654 5.19044 0.305557 5.19044 0.360587V1.67002H5.43386V0.360587C5.43386 0.305557 5.47838 0.260654 5.53275 0.260654C5.58683 0.260654 5.63097 0.305557 5.63097 0.360587V1.67002H5.87515V0.360587C5.87515 0.305557 5.919 0.260654 5.97365 0.260654C6.02773 0.260654 6.07187 0.305557 6.07187 0.360587V1.67002H6.31529V0.360587C6.31529 0.305557 6.3599 0.260654 6.41389 0.260654C6.46826 0.260654 6.51248 0.305557 6.51248 0.360587V1.67002H6.75628V0.360587C6.75628 0.305557 6.80043 0.260654 6.85479 0.260654C6.90916 0.260654 6.95339 0.305557 6.95339 0.360587V1.67002H7.19681V0.360587C7.19681 0.305557 7.24132 0.260654 7.29541 0.260654C7.34977 0.260654 7.39392 0.305557 7.39392 0.360587V1.67002H7.6398Z" fill="#FFB200"></path>
    <path d="M4.01732 24.9919H15.3C15.314 24.9919 15.327 24.9965 15.34 25C15.3529 24.9965 15.3653 24.9919 15.3797 24.9919C15.8686 24.9919 16.2664 24.5612 16.2674 24.0315C16.231 23.5475 16.1871 23.0694 16.1377 22.5962H2.22104C2.24737 23.9231 3.04222 24.9919 4.01732 24.9919Z" fill="#FFB200"></path>
  </symbol>
  <symbol fill="none" xmlns="http://www.w3.org/2000/svg" viewBox="0 0 20 17" id="catalog">
    <path d="M15 6H1" stroke="#FFB200" stroke-width="2" stroke-linecap="round" stroke-linejoin="round"></path>
    <path d="M19 1H1" stroke="#FFB200" stroke-width="2" stroke-linecap="round" stroke-linejoin="round"></path>
    <path d="M19 11H1" stroke="#FFB200" stroke-width="2" stroke-linecap="round" stroke-linejoin="round"></path>
    <path d="M15 16H1" stroke="#FFB200" stroke-width="2" stroke-linecap="round" stroke-linejoin="round"></path>
  </symbol>
  <symbol fill="none" xmlns="http://www.w3.org/2000/svg" viewBox="0 0 29 27" id="cart">
    <path d="M10.8868 26C11.5442 26 12.0772 25.467 12.0772 24.8095C12.0772 24.152 11.5442 23.619 10.8868 23.619C10.2293 23.619 9.69629 24.152 9.69629 24.8095C9.69629 25.467 10.2293 26 10.8868 26Z" stroke="#FFB200" stroke-width="2" stroke-linecap="round" stroke-linejoin="round"></path>
    <path d="M23.982 26C24.6395 26 25.1725 25.467 25.1725 24.8095C25.1725 24.152 24.6395 23.619 23.982 23.619C23.3245 23.619 22.7915 24.152 22.7915 24.8095C22.7915 25.467 23.3245 26 23.982 26Z" stroke="#FFB200" stroke-width="2" stroke-linecap="round" stroke-linejoin="round"></path>
    <path d="M1.36292 1H6.12482L9.3153 16.9405C9.42416 17.4886 9.72233 17.9809 10.1576 18.3313C10.5929 18.6817 11.1376 18.8678 11.6962 18.8571H23.2677C23.8264 18.8678 24.371 18.6817 24.8063 18.3313C25.2416 17.9809 25.5398 17.4886 25.6486 16.9405L27.5534 6.95238H7.3153" stroke="#FFB200" stroke-width="2" stroke-linecap="round" stroke-linejoin="round"></path>
  </symbol>
  <symbol fill="none" xmlns="http://www.w3.org/2000/svg" viewBox="0 0 22 25" id="tools">
    <path d="M11.9982 23.6306C11.9982 24.091 11.5882 24.4642 11.0849 24.4642C10.5814 24.4642 10.1714 24.091 10.1714 23.6306V16.7397C10.1714 16.2822 10.5814 15.9091 11.0849 15.9091C11.5882 15.9091 11.9982 16.2822 11.9982 16.7397V23.6306ZM13.1145 16.1017C12.5608 16.0476 12.1296 15.6535 12.1296 15.1749C12.1296 14.6995 12.5608 14.3053 13.1145 14.2511V13.1287H9.05347V14.2511C9.60757 14.3053 10.0384 14.6995 10.0384 15.1749C10.0384 15.6535 9.60757 16.0476 9.05347 16.1017V23.9015C9.05347 24.4612 9.98382 24.9336 11.0849 24.9336C12.1826 24.9336 13.1095 24.4642 13.1154 23.9075C13.1154 23.9044 13.1145 23.9044 13.1145 23.9015V16.1017Z" fill="#FFB200"></path>
    <path d="M20.9052 5.38627V2.82551C20.9052 1.4534 20.1919 0.788239 18.7243 0.788239C17.0091 0.788239 16.7557 0.944768 15.1067 1.96793L14.9706 2.05212V2.96395H18.6823C18.7559 2.96395 18.816 3.0211 18.816 3.09633V5.35615C18.9309 5.3773 19.0541 5.38627 19.1785 5.38627H19.2847V2.05212C19.2847 2.04317 19.2876 2.03403 19.292 2.02507C19.3258 1.80841 19.5172 1.64292 19.75 1.64292C20.0062 1.64292 20.2147 1.84449 20.2147 2.09118V5.38627H20.9052Z" fill="#FFB200"></path>
    <path d="M18.9161 5.639C18.5237 5.59694 18.126 5.45852 17.9601 5.21167H14.9706V6.98408C15.077 6.99312 15.1813 7.01129 15.2824 7.04123H17.1044L18.9161 5.639Z" fill="#FFB200"></path>
    <path d="M19.7499 1.77518C19.5667 1.77518 19.4182 1.91653 19.4182 2.09105V5.38614H20.0812V2.09105C20.0812 1.91653 19.9325 1.77518 19.7499 1.77518Z" fill="#FFB200"></path>
    <path d="M2.62085 19.4603H3.94511V6.81885H2.62085V19.4603Z" fill="#FFB200"></path>
    <path d="M4.73131 20.8084C4.75306 20.7783 4.79452 20.7723 4.8248 20.7934C4.8248 20.7934 4.82479 20.7963 4.82513 20.7963C4.8352 20.7993 4.84504 20.8054 4.85169 20.8144C4.87344 20.8445 4.86712 20.8867 4.8371 20.9077C4.71836 20.995 4.69149 21.1605 4.77619 21.2779C4.81756 21.335 4.87855 21.3712 4.94798 21.3831C5.01844 21.3922 5.08828 21.3771 5.14577 21.335C5.17545 21.3109 5.21744 21.3199 5.23893 21.35C5.23927 21.35 5.23927 21.35 5.23927 21.35C5.24746 21.3561 5.25473 21.3651 5.25822 21.3771C5.26991 21.4132 5.25063 21.4494 5.21558 21.4613C5.14802 21.4824 5.09263 21.5306 5.06047 21.5939C5.02823 21.6539 5.02227 21.7261 5.04368 21.7924C5.08855 21.9309 5.23835 22.006 5.37764 21.961C5.4133 21.9489 5.45055 21.97 5.46198 22.0031C5.46735 22.0152 5.4717 22.0241 5.4717 22.0361C5.4717 22.0722 5.44144 22.1024 5.40477 22.1024C5.25788 22.1024 5.13881 22.2227 5.13881 22.3672C5.13881 22.5115 5.25788 22.6289 5.40477 22.6289C5.44144 22.6289 5.4717 22.659 5.4717 22.6952H5.47147C5.47335 22.7071 5.47392 22.7192 5.47051 22.7313C5.45908 22.7643 5.42157 22.7854 5.38617 22.7734C5.24688 22.7282 5.09708 22.8035 5.05221 22.9389C5.00768 23.0773 5.08481 23.2277 5.22411 23.2729C5.25916 23.285 5.27809 23.321 5.26709 23.3572C5.26675 23.3572 5.26639 23.3572 5.26639 23.3572C5.26511 23.3693 5.2623 23.3783 5.25539 23.3873C5.23322 23.4174 5.19185 23.4263 5.16216 23.4023C5.10433 23.3602 5.03396 23.3451 4.96444 23.3542C4.89459 23.3661 4.83366 23.4023 4.79255 23.4595C4.75118 23.5167 4.73508 23.5858 4.74617 23.6551C4.75751 23.7243 4.79573 23.7874 4.85322 23.8296C4.88291 23.8506 4.88955 23.8929 4.86805 23.923C4.86805 23.923 4.86779 23.923 4.86745 23.923C4.86302 23.9319 4.8567 23.941 4.84689 23.9499C4.81687 23.9711 4.77526 23.965 4.75376 23.9349C4.71205 23.8778 4.65046 23.8386 4.5806 23.8266C4.51117 23.8146 4.44163 23.8326 4.38508 23.8717C4.32819 23.9138 4.29093 23.974 4.28052 24.0463C4.26977 24.1154 4.28682 24.1847 4.32887 24.2418C4.35036 24.272 4.34373 24.3141 4.31404 24.3352C4.3137 24.3352 4.31334 24.3352 4.31334 24.3352C4.30575 24.3442 4.29698 24.3502 4.28555 24.3562C4.25024 24.3652 4.21261 24.3471 4.20152 24.3112C4.15606 24.1726 4.00731 24.0974 3.86956 24.1395C3.73188 24.1847 3.65631 24.3352 3.70186 24.4735C3.71354 24.5097 3.69427 24.5457 3.65888 24.5578C3.65853 24.5578 3.65853 24.5578 3.65828 24.5578C3.64847 24.5638 3.63805 24.5668 3.62602 24.5668C3.58909 24.5668 3.55942 24.5398 3.55942 24.5007C3.55942 24.3562 3.44153 24.2358 3.29652 24.2358C3.15186 24.2358 3.0344 24.3562 3.0344 24.5007C3.0344 24.5398 3.00402 24.5668 2.96742 24.5668C2.96614 24.5668 2.96419 24.5668 2.96299 24.5668C2.95949 24.5668 2.95694 24.5699 2.95353 24.5699C2.94653 24.5699 2.93963 24.5699 2.93264 24.5668C2.89792 24.5549 2.87864 24.5187 2.88999 24.4825C2.91208 24.4164 2.9067 24.3442 2.87479 24.2809C2.84323 24.2177 2.78888 24.1696 2.72252 24.1486C2.65556 24.1275 2.58487 24.1336 2.522 24.1667C2.45948 24.1968 2.41265 24.2538 2.39056 24.3201C2.37981 24.3532 2.34696 24.3712 2.31412 24.3652C2.31378 24.3652 2.31353 24.3652 2.31319 24.3652C2.31285 24.3652 2.31261 24.3652 2.31192 24.3652C2.31039 24.3652 2.3084 24.3652 2.30652 24.3622C2.30499 24.3622 2.3037 24.3622 2.30183 24.3622C2.29202 24.3593 2.28257 24.3593 2.27404 24.3532C2.24435 24.3291 2.23769 24.29 2.25944 24.2599C2.30116 24.1997 2.31855 24.1305 2.30746 24.0612C2.29705 23.992 2.25979 23.9319 2.20323 23.8897C2.08603 23.8056 1.92082 23.8326 1.83458 23.9499C1.81283 23.98 1.77173 23.9861 1.74179 23.965C1.74179 23.965 1.74143 23.965 1.74109 23.965C1.74083 23.965 1.74083 23.965 1.74049 23.965C1.73034 23.959 1.72123 23.9529 1.71423 23.9439C1.69248 23.9138 1.69911 23.8717 1.72879 23.8506C1.84753 23.7634 1.87476 23.5979 1.7898 23.4805C1.74835 23.4264 1.68742 23.3873 1.6179 23.3782C1.54779 23.3661 1.47793 23.3842 1.42019 23.4263C1.39238 23.4444 1.35538 23.4415 1.33269 23.4174C1.33235 23.4143 1.33201 23.4143 1.33175 23.4143C1.33013 23.4143 1.32824 23.4114 1.32662 23.4114C1.32569 23.4084 1.32543 23.4084 1.32449 23.4053C1.31784 23.3992 1.3106 23.3933 1.3077 23.3812C1.29601 23.3481 1.31562 23.3091 1.35068 23.297C1.41798 23.2758 1.47291 23.2309 1.50575 23.1677C1.53799 23.1044 1.54371 23.0321 1.52221 22.966C1.50037 22.8997 1.45362 22.8456 1.3911 22.8126C1.32789 22.7825 1.25591 22.7764 1.18801 22.7974C1.15321 22.8095 1.11533 22.7914 1.10398 22.7554C1.09827 22.7463 1.09452 22.7342 1.09452 22.7221C1.09452 22.6861 1.12422 22.656 1.16116 22.656C1.30804 22.656 1.42712 22.5387 1.42712 22.3942C1.42712 22.2498 1.30804 22.1294 1.16116 22.1294C1.12422 22.1294 1.09452 22.1024 1.09452 22.0633C1.09256 22.0512 1.09195 22.0421 1.09545 22.03C1.1068 21.994 1.14444 21.976 1.17975 21.988C1.24739 22.0091 1.31936 22.003 1.38257 21.9729C1.44543 21.9398 1.49219 21.8857 1.51368 21.8194C1.55855 21.681 1.48111 21.5337 1.34182 21.4885C1.3071 21.4764 1.28782 21.4373 1.29917 21.4042C1.29917 21.4042 1.2995 21.4042 1.2995 21.4013C1.30078 21.3922 1.3036 21.3801 1.3106 21.3712C1.33235 21.3411 1.37369 21.335 1.40406 21.3561C1.52279 21.4433 1.68864 21.4163 1.77334 21.2989C1.85864 21.1816 1.83144 21.016 1.7127 20.9317C1.68267 20.9107 1.676 20.8686 1.69784 20.8385C1.69818 20.8385 1.69818 20.8385 1.69844 20.8385C1.70322 20.8264 1.70919 20.8175 1.719 20.8114C1.74902 20.7903 1.7904 20.7964 1.81249 20.8265C1.8542 20.8836 1.91543 20.9198 1.98529 20.9317C2.05506 20.9438 2.12459 20.9288 2.18114 20.8867C2.298 20.8024 2.32326 20.6368 2.23702 20.5165C2.21561 20.4864 2.22191 20.4443 2.25185 20.4232C2.25219 20.4232 2.25254 20.4232 2.25288 20.4232C2.26039 20.4142 2.26891 20.4081 2.28034 20.4052C2.31573 20.3931 2.35328 20.4111 2.36437 20.4473C2.40983 20.5857 2.55926 20.6639 2.69633 20.6188C2.76295 20.5977 2.81729 20.5496 2.84894 20.4864C2.8805 20.4233 2.88588 20.354 2.86413 20.2848C2.85236 20.2487 2.87165 20.2126 2.90705 20.2006C2.90705 20.2006 2.90737 20.2006 2.90771 20.2006C2.91744 20.1946 2.92795 20.1915 2.94023 20.1915C2.97691 20.1915 3.00657 20.2216 3.00657 20.2578C3.00657 20.4052 3.12473 20.5225 3.2694 20.5225C3.41407 20.5225 3.53159 20.4052 3.53159 20.2578C3.53159 20.2216 3.56155 20.1915 3.59857 20.1915C3.59882 20.1915 3.59882 20.1915 3.5995 20.1915C3.61025 20.1885 3.62157 20.1885 3.63292 20.1915C3.66798 20.2036 3.68725 20.2427 3.67557 20.2758C3.65382 20.345 3.65919 20.4172 3.6911 20.4804C3.72266 20.5437 3.777 20.5887 3.84337 20.6098C3.90999 20.6309 3.98076 20.6249 4.04389 20.5948C4.10675 20.5617 4.15324 20.5075 4.17533 20.4383C4.18668 20.4052 4.22431 20.3841 4.25936 20.3962H4.25996C4.27139 20.3962 4.28215 20.3992 4.29162 20.4081C4.32164 20.4293 4.3282 20.4714 4.30645 20.5015C4.26473 20.5586 4.24768 20.628 4.25843 20.6971C4.26884 20.7693 4.30576 20.8294 4.36266 20.8717C4.47986 20.9559 4.64541 20.9288 4.73131 20.8084ZM2.48719 6.74969C2.48719 6.71352 2.51721 6.68342 2.55389 6.68342H4.01173C4.04867 6.68342 4.0787 6.71352 4.0787 6.74969V19.5265C4.0787 19.5627 4.04867 19.5927 4.01173 19.5927H2.55389C2.51721 19.5927 2.48719 19.5627 2.48719 19.5265V6.74969ZM4.69779 1.61914V3.73148C4.69779 3.97825 4.49659 4.1799 4.24897 4.1799H2.31669C2.06898 4.1799 1.86777 3.97825 1.86777 3.73148V1.61914H1.35954L0.362915 2.6152V4.36646L2.09551 6.09972C2.10813 6.11175 2.11795 6.12686 2.1246 6.14187C2.13159 6.15697 2.13499 6.17495 2.13499 6.19295V19.9509C2.13499 20.008 2.09746 20.0561 2.0456 20.0741C1.19363 20.5345 0.664526 21.4163 0.664526 22.3822C0.664526 23.8266 1.83934 25.0001 3.28259 25.0001C4.72687 25.0001 5.90136 23.8266 5.90136 22.3822C5.90136 21.3682 5.37949 20.5045 4.5051 20.0712C4.49913 20.0681 4.4953 20.0622 4.48967 20.0591C4.48208 20.0531 4.47356 20.0472 4.46725 20.041C4.46128 20.035 4.45742 20.026 4.45299 20.02C4.44855 20.0141 4.44351 20.0049 4.44036 19.999C4.4372 19.9898 4.43628 19.9809 4.43466 19.9689C4.43372 19.9629 4.43089 19.9568 4.43089 19.9509V6.19295C4.43089 6.17495 4.43438 6.15697 4.44129 6.14187C4.44794 6.12686 4.45776 6.11175 4.47005 6.09972L6.20271 4.36646V2.6152L5.20608 1.61914H4.69779Z" fill="#FFB200"></path>
    <path d="M11.0852 16.0415C10.655 16.0415 10.3053 16.3546 10.3053 16.7397V23.6306C10.3053 24.0157 10.655 24.3288 11.0852 24.3288C11.5152 24.3288 11.8645 24.0157 11.8645 23.6306V16.7397C11.8645 16.3546 11.5152 16.0415 11.0852 16.0415Z" fill="#FFB200"></path>
    <path d="M10.5704 0L10.4911 0.30391H11.7566L11.688 0H10.5704Z" fill="#FFB200"></path>
    <path d="M9.9248 2.46752L10.5809 3.52965C10.5828 3.53281 10.5828 3.53571 10.5841 3.53878C10.5885 3.54782 10.591 3.55371 10.5935 3.56284C10.5958 3.57188 10.598 3.58094 10.5989 3.5899C10.5992 3.59288 10.6008 3.59594 10.6008 3.59892V12.8611H11.6616V3.59892C11.6616 3.59594 11.6625 3.59593 11.6625 3.59286C11.6628 3.58382 11.6656 3.57793 11.6679 3.5688C11.6697 3.55976 11.6716 3.55082 11.6755 3.54178C11.6764 3.5388 11.6761 3.53879 11.677 3.53572L12.2459 2.47052L11.7866 0.43631H10.4565L9.9248 2.46752Z" fill="#FFB200"></path>
    <path d="M16.6744 12.2744H17.8899V12.0125L16.6744 12.2081V12.2744Z" fill="#FFB200"></path>
    <path d="M20.0812 23.2186V13.2885H19.4182V23.2186C19.5022 23.1343 19.6198 23.0833 19.7499 23.0833C19.8794 23.0833 19.9969 23.1343 20.0812 23.2186Z" fill="#FFB200"></path>
    <path d="M19.1555 5.65421C19.1425 5.65421 19.1299 5.65421 19.1169 5.65421L17.1685 7.16179C17.1672 7.16179 17.1657 7.16177 17.1644 7.16476C17.1533 7.17081 17.1417 7.17689 17.1275 7.17689H15.6039C16.3321 7.56807 16.8539 8.50389 16.8934 9.60527H17.6247V9.41871C17.6247 9.34339 17.6843 9.28316 17.7583 9.28316H18.5272C18.6008 9.28316 18.6607 9.34339 18.6607 9.41871V12.7107C18.6607 12.7107 18.6601 12.7107 18.6598 12.7136C18.6601 12.7136 18.6607 12.7136 18.6607 12.7166C18.6607 12.7889 18.6008 12.8491 18.5272 12.8491H17.7583C17.6843 12.8491 17.6247 12.7889 17.6247 12.7166V12.5422H16.9183V13.0236H21.1323V5.65421H19.1579C19.157 5.65421 19.1564 5.65421 19.1555 5.65421Z" fill="#FFB200"></path>
    <path d="M19.7499 23.8505C19.9325 23.8505 20.0812 23.7061 20.0812 23.5346C20.0812 23.36 19.9325 23.2156 19.7499 23.2156C19.5667 23.2156 19.4182 23.36 19.4182 23.5346C19.4182 23.7061 19.5667 23.8505 19.7499 23.8505Z" fill="#FFB200"></path>
    <path d="M16.6744 10.5862L17.8899 10.3906V10.2099L16.6744 10.4055V10.5862Z" fill="#FFB200"></path>
    <path d="M20.2145 23.5347C20.2145 23.7814 20.0061 23.9829 19.7498 23.9829C19.5171 23.9829 19.3256 23.8174 19.2919 23.6008C19.2874 23.5917 19.2845 23.5828 19.2845 23.5706V13.2885H18.9907L18.7365 13.5322L18.9914 13.779C18.992 13.779 18.9924 13.779 18.9927 13.7819C18.9933 13.7819 18.9946 13.7819 18.9952 13.7819C19.0003 13.788 19.0031 13.7941 19.0075 13.803C19.0126 13.8091 19.0189 13.815 19.0221 13.824C19.0256 13.8331 19.0256 13.8422 19.0274 13.8482C19.029 13.8572 19.0319 13.8662 19.0319 13.8752C19.0319 13.8842 19.029 13.8903 19.0274 13.8993C19.0256 13.9083 19.0256 13.9174 19.0221 13.9233C19.0189 13.9325 19.0126 13.9384 19.0078 13.9474C19.0035 13.9535 19.0005 13.9625 18.9952 13.9685C18.9946 13.9685 18.9933 13.9685 18.9927 13.9685C18.9924 13.9685 18.992 13.9715 18.9914 13.9715L18.7011 14.2484L18.9618 14.501C18.9624 14.501 18.9623 14.501 18.963 14.501C18.964 14.5042 18.9645 14.5042 18.9655 14.5042C18.9712 14.5102 18.9737 14.5161 18.9781 14.5252C18.9829 14.5312 18.9892 14.5373 18.9924 14.5462C18.9955 14.5553 18.9961 14.5644 18.9977 14.5705C18.9996 14.5793 19.0022 14.5885 19.0022 14.5974C19.0022 14.6035 18.9996 14.6125 18.9977 14.6215C18.9961 14.6305 18.9955 14.6395 18.9924 14.6456C18.9892 14.6546 18.9829 14.6606 18.9781 14.6697C18.9737 14.6757 18.9712 14.6817 18.9655 14.6876C18.9649 14.6907 18.964 14.6907 18.963 14.6907C18.9623 14.6907 18.9624 14.6907 18.9618 14.6937L18.6218 15.0187V15.774C18.8746 15.8462 19.0638 16.1171 19.0638 16.439V23.6309C19.0638 23.989 19.3777 24.2807 19.7635 24.2807C20.1491 24.2807 20.4628 23.989 20.4628 23.6309V16.439C20.4628 16.1171 20.652 15.8462 20.9051 15.774V13.2885H20.2145V23.5347Z" fill="#FFB200"></path>
    <path d="M18.245 11.9552L18.1571 11.9672V12.4065C18.1571 12.4819 18.0974 12.5421 18.0239 12.5421H17.8915V12.5811H18.3934V9.55099H17.8915V9.60517H18.0239C18.0974 9.60517 18.1571 9.6652 18.1571 9.74052V9.89695L18.2027 9.89092C18.275 9.87898 18.3442 9.92706 18.3559 10.0024C18.3675 10.0745 18.3179 10.1407 18.245 10.1528L18.1571 10.1679V10.3484L18.2027 10.3393C18.275 10.3272 18.3442 10.3785 18.3559 10.4506C18.3675 10.5228 18.3179 10.5921 18.245 10.6042L18.1571 10.6192V10.7968L18.2027 10.7907C18.275 10.7786 18.3442 10.8269 18.3559 10.902C18.3675 10.9742 18.3179 11.0435 18.245 11.0526L18.1571 11.0676V11.2482L18.2027 11.239C18.275 11.227 18.3442 11.2783 18.3559 11.3505C18.3675 11.4226 18.3179 11.4919 18.245 11.5039L18.1571 11.519V11.6964L18.2027 11.6904C18.275 11.6784 18.3442 11.7265 18.3559 11.8018C18.3675 11.874 18.3179 11.9432 18.245 11.9552Z" fill="#FFB200"></path>
    <path d="M17.8899 9.87296H16.6744V10.1348L17.8899 9.93923V9.87296Z" fill="#FFB200"></path>
    <path d="M16.6744 11.0373L17.8899 10.8418V10.6612L16.6744 10.8567V11.0373Z" fill="#FFB200"></path>
    <path d="M16.6744 11.9373L17.8899 11.7418V11.5612L16.6744 11.7568V11.9373Z" fill="#FFB200"></path>
    <path d="M16.6744 11.4858L17.8899 11.2902V11.1096L16.6744 11.3052V11.4858Z" fill="#FFB200"></path>
  </symbol>
  <symbol fill="none" xmlns="http://www.w3.org/2000/svg" viewBox="0 0 25 25" id="akses">
    <path d="M20.5073 19.9737H20.5071V19.9739L19.327 19.9708C19.327 19.9705 19.327 19.9708 19.3268 19.9705H19.3265L19.0995 19.9701L19.1018 19.1711C19.1245 19.1729 19.1472 19.1761 19.1703 19.1761L21.9579 19.1833C21.9579 19.1833 21.9579 19.1833 21.9581 19.1833C21.9581 19.1833 21.9581 19.1833 21.9584 19.1833C21.9813 19.1833 22.0035 19.1802 22.0265 19.1785C22.0265 19.1785 22.0265 19.1785 22.0267 19.1785L22.0244 19.9776L21.5778 19.9764H21.5776C21.5776 19.9764 21.5776 19.9766 21.5776 19.9764L20.5073 19.9737ZM19.9142 21.0392C19.8617 21.039 19.8125 21.0186 19.7756 20.9813C19.7755 20.9813 19.7755 20.9813 19.7755 20.9813C19.7386 20.9442 19.7182 20.8948 19.7182 20.8424C19.7186 20.7342 19.8069 20.6463 19.915 20.6465C19.9692 20.6467 20.0184 20.6688 20.0537 20.7044C20.0894 20.7403 20.1113 20.7892 20.1111 20.8434C20.1108 20.9517 20.0225 21.0394 19.9144 21.0392L19.9142 21.0903L19.914 21.1415L19.9142 21.0392ZM18.1663 17.2915L18.1671 16.9336C18.1677 16.744 18.3223 16.5903 18.5118 16.5907C18.5118 16.5907 18.5118 16.5907 18.512 16.5907L22.6295 16.6011C22.6337 16.6011 22.6379 16.5999 22.642 16.5988C22.6453 16.5978 22.6487 16.5976 22.6523 16.5969C22.831 16.6093 22.9728 16.7574 22.9724 16.9392L22.9714 17.3037L18.1663 17.2915ZM18.6171 15.5067L19.0089 15.5077L20.2473 15.5108L20.8985 15.5127L22.5302 15.5167L22.5277 16.3965L18.6145 16.3867L18.6171 15.5067ZM19.8838 14.3983H19.884L20.1481 14.3989L20.1457 15.3062V15.3065L19.8815 15.3056L19.8838 14.3983ZM20.3525 14.3995L20.7993 14.4007L20.797 15.3079V15.3082L20.3502 15.3069L20.3525 14.3995ZM19.1136 14.4668L19.1249 10.1247L20.2102 10.1274H20.2106C20.2236 10.1501 20.2452 10.1679 20.2723 10.1751L20.6016 10.2655L20.6012 10.3622L20.6008 10.362L20.3254 10.2865C20.3254 10.2865 20.3254 10.2865 20.3252 10.2865C20.2706 10.2718 20.2148 10.3036 20.2 10.358C20.1852 10.4126 20.2171 10.4686 20.2714 10.4836L20.6008 10.5736L20.6006 10.6609H20.6002L20.3248 10.5853H20.3246C20.27 10.5703 20.2139 10.6022 20.1991 10.6567C20.1842 10.7111 20.2162 10.7674 20.2706 10.7822L20.6002 10.8726L20.6 10.9596L20.5995 10.9594L20.3241 10.884C20.324 10.884 20.324 10.884 20.324 10.884C20.2694 10.8692 20.2133 10.9011 20.1985 10.9556C20.1836 11.01 20.2159 11.0663 20.2702 11.0811L20.5993 11.1712L20.5987 11.4569C20.5985 11.4621 20.6008 11.4664 20.6016 11.4715C20.6027 11.4792 20.6033 11.4869 20.606 11.4942C20.6089 11.501 20.6139 11.5073 20.6183 11.5139C20.621 11.5181 20.6224 11.5227 20.626 11.5266C20.6264 11.5271 20.6268 11.5271 20.6273 11.5275C20.6362 11.5369 20.6468 11.544 20.6579 11.549C20.6589 11.5496 20.6596 11.5506 20.6608 11.551C20.6731 11.5562 20.6862 11.5591 20.7004 11.5591H20.7006C20.7137 11.5594 20.7266 11.5567 20.7389 11.5517C20.7445 11.5494 20.7489 11.5452 20.7541 11.542C20.7595 11.5387 20.7656 11.5364 20.7704 11.5319L21.3042 11.0355L21.3047 11.0352L21.302 12.0153L20.3356 12.0126C20.2794 12.0126 20.2334 12.0582 20.2334 12.1147C20.2334 12.157 20.2587 12.1935 20.2954 12.2089C20.3065 12.2134 20.319 12.2158 20.3317 12.2164C20.3329 12.2164 20.3338 12.217 20.335 12.217L20.3352 12.2172L21.3009 12.2195H21.3014L21.2993 13.0611L20.8318 13.5262C20.822 13.5358 20.8147 13.5472 20.8097 13.5593C20.8043 13.5718 20.8018 13.585 20.8018 13.5985L20.8001 14.1961L20.3533 14.1949L20.3548 13.5973C20.355 13.5408 20.3093 13.495 20.2529 13.495C20.1967 13.495 20.1506 13.5404 20.1506 13.5969L20.1492 14.1945L19.8848 14.1939L19.8919 11.3921L20.4473 11.3933C20.5037 11.3935 20.5495 11.3479 20.5498 11.2917C20.55 11.235 20.5041 11.1894 20.4477 11.1892L19.8925 11.188V11.1875L19.8936 10.7963C19.8938 10.7396 19.848 10.6942 19.7915 10.6938C19.7353 10.6938 19.6892 10.7394 19.6892 10.7957L19.688 11.2894L19.6802 14.0879V14.1934L19.4653 14.1928H19.4651C19.4372 14.1928 19.4115 14.2041 19.3928 14.2226C19.3745 14.241 19.3628 14.2666 19.3628 14.2947C19.3626 14.3512 19.4082 14.397 19.4646 14.3972L19.6796 14.3976L19.6772 15.3052L19.1116 15.3035H19.1114L19.1136 14.4668ZM20.8033 11.2219L20.8062 10.1289L21.3065 10.1301L21.3051 10.7557L20.8033 11.2221V11.2219ZM21.4728 13.1763C21.4824 13.1669 21.4899 13.1556 21.4951 13.1431C21.5001 13.131 21.503 13.1182 21.503 13.104L21.509 10.8004L21.5107 10.1307H21.5109L22.0471 10.1322L22.0494 10.3201L22.0365 15.3112L21.0012 15.3085L21.0035 14.4011H21.0037L21.5165 14.4026C21.5301 14.4026 21.5428 14.3995 21.5547 14.3949C21.5551 14.3945 21.5557 14.3949 21.5561 14.3945C21.593 14.3791 21.6186 14.3428 21.619 14.3005C21.619 14.2582 21.5934 14.222 21.5567 14.2062C21.5551 14.2055 21.5528 14.2058 21.5511 14.2051C21.5403 14.2014 21.529 14.198 21.517 14.198L21.0039 14.1968L21.0056 13.6412L21.4728 13.1763ZM21.5732 21.7181C21.6296 21.7181 21.6755 21.6724 21.6757 21.6162L21.6794 20.181L22.1263 20.1822C22.1827 20.1824 22.2285 20.1368 22.2285 20.0803L22.2311 19.1398C22.7691 18.9696 23.1733 18.3059 23.1753 17.5127V17.5087L24.2604 17.5115C24.3166 17.5115 24.3625 17.466 24.3629 17.4094C24.3629 17.3531 24.3173 17.3073 24.2608 17.3071L23.1757 17.3042L23.1768 16.9399C23.1772 16.7934 23.1206 16.6555 23.0172 16.5516C22.9385 16.4724 22.8395 16.4209 22.732 16.4003L22.7345 15.4152C22.7347 15.3588 22.6891 15.3129 22.6327 15.3127L22.2409 15.3117L22.2537 10.3191V10.3176L22.2542 10.1299C22.2542 10.1249 22.2519 10.1208 22.2514 10.1158L22.2452 9.59602C22.2452 9.58809 22.2421 9.581 22.2404 9.57374C22.2425 9.56581 22.2454 9.55811 22.2454 9.54956C22.2465 9.07526 21.7713 8.68859 21.4244 8.61215C21.1453 8.50404 21.0193 8.32157 21.0201 8.03407C21.0201 7.92056 20.976 7.8139 20.8949 7.73352C20.8148 7.65331 20.7073 7.60915 20.5935 7.6087C20.5931 7.6087 20.5931 7.6087 20.5931 7.6087C20.3573 7.60831 20.1652 7.7981 20.1646 8.03199C20.1638 8.31616 20.039 8.49673 19.7657 8.60405C19.4511 8.66255 19.0189 8.98649 18.937 9.40414C18.9285 9.41894 18.9224 9.4352 18.9224 9.45376L18.9205 10.1166C18.9205 10.1174 18.9212 10.1182 18.921 10.1191C18.921 10.1199 18.9205 10.1208 18.9205 10.1214L18.9072 15.3031L18.5154 15.3021C18.4589 15.3021 18.4131 15.3477 18.4129 15.4039L18.4104 16.3964C18.1567 16.4438 17.9638 16.6659 17.9629 16.9332L17.9621 17.2908L16.877 17.2879C16.8208 17.2877 16.7749 17.3335 16.7745 17.3898C16.7745 17.4463 16.8202 17.4923 16.8764 17.4923L17.9617 17.495L17.9615 17.4994C17.9615 17.5087 17.9627 17.5177 17.965 17.5263C18.0042 18.2965 18.3954 18.9471 18.8976 19.1258L18.8952 20.0716C18.8949 20.0989 18.9057 20.1249 18.9247 20.1441C18.9441 20.1632 18.9697 20.1741 18.997 20.1743L19.2241 20.1747L19.2216 21.1842C19.2214 21.1894 19.2237 21.194 19.2243 21.1988C19.2255 21.2062 19.2261 21.2135 19.2287 21.2209C19.2314 21.2275 19.2359 21.2337 19.2401 21.2398C19.2428 21.244 19.2442 21.249 19.2476 21.2529L19.6307 21.6794C19.6313 21.68 19.6322 21.6801 19.633 21.6808C19.6407 21.6891 19.6503 21.6954 19.6603 21.7006C19.6626 21.7019 19.664 21.7039 19.6665 21.7047C19.6788 21.7102 19.6923 21.7133 19.7065 21.7131L20.1183 21.7143C20.1325 21.7143 20.1463 21.7114 20.1585 21.706C20.1611 21.7049 20.1625 21.7031 20.165 21.7019C20.175 21.6964 20.1844 21.6906 20.1921 21.6823C20.1927 21.6816 20.1935 21.6814 20.1941 21.6808L20.5797 21.2565C20.5833 21.2523 20.5845 21.2475 20.5874 21.2434C20.5916 21.2371 20.596 21.231 20.5987 21.2244C20.6016 21.2173 20.6021 21.21 20.6033 21.2023C20.6039 21.1973 20.606 21.1931 20.606 21.188L20.6089 20.1784L21.4751 20.1808L21.4713 21.6158C21.4713 21.672 21.517 21.7179 21.5732 21.7181Z" fill="#FFB200"></path>
    <path d="M20.08 12.2341C20.0692 12.2313 20.0584 12.2314 20.0479 12.2319C20.045 12.232 20.0421 12.231 20.0394 12.2313C19.9998 12.2367 19.9657 12.2648 19.9544 12.3056C19.9396 12.3602 19.9715 12.4164 20.0261 12.4314L20.4306 12.542C20.4396 12.5445 20.4485 12.5458 20.4575 12.5458C20.4631 12.5458 20.4681 12.5441 20.4735 12.5433C20.479 12.5423 20.4848 12.5423 20.4902 12.5404C20.495 12.5389 20.4992 12.5358 20.5035 12.5333C20.5087 12.5308 20.5143 12.5287 20.519 12.5252C20.5366 12.5121 20.5499 12.4933 20.5562 12.4706C20.5712 12.4162 20.5391 12.36 20.4846 12.345L20.1479 12.2529L20.08 12.2341Z" fill="#FFB200"></path>
    <path d="M20.5201 12.6716C20.5097 12.6634 20.4974 12.6572 20.4841 12.6536L20.0791 12.5426C20.0246 12.5274 19.9687 12.5597 19.9537 12.6142C19.9427 12.6548 19.9577 12.6967 19.9891 12.7213C19.9994 12.7297 20.0116 12.7361 20.0254 12.7397L20.4301 12.8503C20.4389 12.853 20.4478 12.854 20.4568 12.854C20.5018 12.854 20.5432 12.8242 20.5553 12.7788C20.5668 12.738 20.5514 12.6963 20.5201 12.6716Z" fill="#FFB200"></path>
    <path d="M20.4832 12.9522L20.325 12.9089L20.0784 12.8414C20.0648 12.8375 20.0511 12.8368 20.0378 12.8385C20.0286 12.8399 20.0203 12.8437 20.0117 12.8473C20.0082 12.8489 20.0042 12.8493 20.0009 12.851C19.978 12.8641 19.9605 12.8858 19.9528 12.9128C19.938 12.9672 19.9699 13.0237 20.0244 13.0383L20.4292 13.1493C20.4382 13.1518 20.4469 13.153 20.4559 13.1528C20.461 13.153 20.4658 13.1513 20.4708 13.1506C20.4767 13.1497 20.4829 13.1495 20.4886 13.1476C20.4954 13.1453 20.5015 13.1414 20.5077 13.1376C20.5108 13.1358 20.5144 13.1347 20.5173 13.1324C20.535 13.1193 20.5483 13.1005 20.5548 13.0778C20.5696 13.0233 20.5377 12.9672 20.4832 12.9522Z" fill="#FFB200"></path>
    <path d="M20.5186 13.2694C20.5082 13.2613 20.4961 13.255 20.4824 13.2513L20.0779 13.1402C20.0231 13.1252 19.9671 13.1573 19.952 13.2119C19.941 13.2527 19.9564 13.2944 19.9875 13.3192C19.9981 13.3273 20.0101 13.3335 20.0239 13.3373L20.4285 13.4484C20.4374 13.4506 20.4464 13.4521 20.4551 13.4521C20.5003 13.4521 20.5416 13.4223 20.5541 13.3769C20.5651 13.3361 20.5501 13.294 20.5186 13.2694Z" fill="#FFB200"></path>
    <path d="M17.4847 3.97399C17.498 4.01397 17.534 4.03936 17.5738 4.03936C17.5852 4.03936 17.5947 4.03767 17.6022 4.03465L18.1899 3.84391C18.3055 4.22288 18.3662 4.62402 18.3662 5.0396C18.3662 5.45518 18.3056 5.85611 18.1918 6.23509L17.6022 6.04419C17.5548 6.02786 17.4998 6.0552 17.4847 6.10506C17.4676 6.15471 17.4942 6.20815 17.5454 6.22428L18.1312 6.41482C17.8601 7.18889 17.3672 7.85905 16.7245 8.34778L16.3643 7.84994C16.3339 7.8075 16.2733 7.79818 16.2316 7.8289C16.188 7.85982 16.1804 7.91874 16.2107 7.96123L16.5709 8.45907C15.8998 8.9262 15.0846 9.2009 14.2069 9.2009C13.3272 9.2009 12.5101 8.9262 11.839 8.45907L12.1992 7.96123C12.2295 7.91874 12.222 7.85982 12.1783 7.8289C12.1366 7.79818 12.076 7.8075 12.0456 7.84994L11.6854 8.34778C11.0446 7.85905 10.5499 7.18889 10.2788 6.41482L10.8645 6.22428C10.9157 6.208 10.9423 6.15451 10.9271 6.10506C10.9101 6.05535 10.8551 6.02786 10.8077 6.0444L10.22 6.23509C10.1062 5.85611 10.0437 5.45518 10.0437 5.0396C10.0437 4.62402 10.1062 4.22288 10.22 3.84391L10.8077 4.03465C10.8171 4.03767 10.8266 4.03936 10.8361 4.03936C10.8759 4.03936 10.9138 4.01397 10.9271 3.97399C10.9423 3.92428 10.9157 3.87083 10.8645 3.85491L10.2788 3.66417C10.5499 2.89015 11.0446 2.21999 11.6854 1.73121L12.0456 2.22905C12.0646 2.25465 12.093 2.26811 12.1234 2.26811C12.1423 2.26811 12.1613 2.26223 12.1783 2.25009C12.222 2.21938 12.2295 2.16004 12.1992 2.11776L11.839 1.61997C12.4874 1.16969 13.2665 0.899339 14.1102 0.880398V1.49691C14.1102 1.54943 14.1538 1.59171 14.2069 1.59171C14.2581 1.59171 14.2997 1.54922 14.2997 1.49691V0.880398C15.1434 0.899339 15.9245 1.16969 16.5728 1.61997L16.2107 2.11776C16.1804 2.16004 16.188 2.21938 16.2316 2.25009C16.2486 2.26223 16.2676 2.26811 16.2884 2.26811C16.3169 2.26811 16.3453 2.25465 16.3643 2.22905L16.7245 1.73121C17.3672 2.21999 17.8601 2.89015 18.1312 3.66417L17.5454 3.85491C17.4942 3.87103 17.4676 3.92428 17.4847 3.97399ZM14.2069 0C11.4257 0 9.16589 2.2609 9.16589 5.0396C9.16589 7.8183 11.4257 10.079 14.2069 10.079C16.9842 10.079 19.244 7.8183 19.244 5.0396C19.244 2.2609 16.9842 0 14.2069 0Z" fill="#FFB200"></path>
    <path d="M16.512 2.66472L14.582 4.54081C14.3394 4.35713 13.9924 4.37208 13.7687 4.59067C13.5204 4.83163 13.5166 5.22786 13.7555 5.47563C13.9981 5.72345 14.3944 5.72913 14.6408 5.48797C14.8664 5.26938 14.8911 4.92357 14.7129 4.67636L16.6447 2.80028C16.6807 2.76388 16.6826 2.70399 16.6447 2.66647C16.6068 2.6293 16.548 2.62817 16.512 2.66472Z" fill="#FFB200"></path>
    <path d="M12.6844 6.24878H12.1081C12.055 6.24878 12.0133 6.29106 12.0133 6.34317V6.92159C12.0133 6.97371 12.055 7.01599 12.1081 7.01599H12.6844C12.7375 7.01599 12.7811 6.97371 12.7811 6.92159V6.34317C12.7811 6.29106 12.7375 6.24878 12.6844 6.24878Z" fill="#FFB200"></path>
    <path d="M13.5905 6.24878H13.0123C12.9592 6.24878 12.9175 6.29106 12.9175 6.34317V6.92159C12.9175 6.97371 12.9592 7.01599 13.0123 7.01599H13.5905C13.6417 7.01599 13.6834 6.97371 13.6834 6.92159V6.34317C13.6834 6.29106 13.6417 6.24878 13.5905 6.24878Z" fill="#FFB200"></path>
    <path d="M14.495 6.24878H13.9168C13.8656 6.24878 13.822 6.29106 13.822 6.34317V6.92159C13.822 6.97371 13.8656 7.01599 13.9168 7.01599H14.495C14.5481 7.01599 14.5879 6.97371 14.5879 6.92159V6.34317C14.5879 6.29106 14.5481 6.24878 14.495 6.24878Z" fill="#FFB200"></path>
    <path d="M15.3973 6.24878H14.8191C14.7679 6.24878 14.7262 6.29106 14.7262 6.34317V6.92159C14.7262 6.97371 14.7679 7.01599 14.8191 7.01599H15.3973C15.4504 7.01599 15.494 6.97371 15.494 6.92159V6.34317C15.494 6.29106 15.4504 6.24878 15.3973 6.24878Z" fill="#FFB200"></path>
    <path d="M16.3034 6.24878H15.7252C15.6721 6.24878 15.6285 6.29106 15.6285 6.34317V6.92159C15.6285 6.97371 15.6721 7.01599 15.7252 7.01599H16.3034C16.3546 7.01599 16.3963 6.97371 16.3963 6.92159V6.34317C16.3963 6.29106 16.3546 6.24878 16.3034 6.24878Z" fill="#FFB200"></path>
    <path d="M6.64333 18.0635L6.65119 17.9831C6.72389 17.2716 7.31348 16.7306 8.02492 16.7249H8.03475C8.74619 16.7306 9.33774 17.2716 9.40848 17.9831L9.41831 18.0635H11.022L11.4917 16.9291L11.1832 16.1015L8.30992 15.9274H8.05832C8.04458 15.9256 8.0328 15.9256 8.01709 15.9274H7.74389L4.87652 16.1015L4.56793 16.9291L5.03763 18.0635H6.64333Z" fill="#FFB200"></path>
    <path d="M2.45132 16.5152L3.12148 16.4217L3.46933 15.4856L2.41397 15.5791C2.38451 15.5791 2.35501 15.5679 2.33341 15.5473C2.32359 15.5399 2.31764 15.5306 2.31372 15.5212L2.12308 15.2085L2.02088 15.5231C1.9148 15.8562 1.83418 16.1896 1.78504 16.5172L1.73987 16.8224L2.00714 16.6707C2.15456 16.5883 2.3039 16.5359 2.45132 16.5152Z" fill="#FFB200"></path>
    <path d="M9.40839 18.264C9.33765 18.9755 8.74609 19.5163 8.03465 19.522H8.02483C7.31339 19.5163 6.72183 18.9755 6.65109 18.264L6.64129 18.1817H5.08472L5.78046 19.8534C5.84138 20.0031 5.98679 20.1006 6.14993 20.1006H9.90958C10.0727 20.1006 10.2162 20.0031 10.279 19.8534L10.9728 18.1817H9.41624L9.40839 18.264Z" fill="#FFB200"></path>
    <path d="M4.7723 16.0416C4.77819 16.0361 4.78407 16.0287 4.78996 16.0192C4.79389 16.0135 4.79782 16.0097 4.80567 16.0043C4.80965 16.0005 4.81751 15.9968 4.8234 15.9948C4.83518 15.993 4.84305 15.9893 4.84894 15.9854L7.74187 15.8095H7.91873H8.31182L11.2087 15.9854C11.2165 15.9893 11.2244 15.993 11.2362 15.9948C11.2421 15.9968 11.246 16.0005 11.2539 16.0043C11.2618 16.0097 11.2657 16.0135 11.2696 16.0212C11.2755 16.0286 11.2814 16.0361 11.2853 16.0416L11.6056 16.901C11.6056 16.901 11.6056 16.901 11.6056 16.9028C11.6037 16.9122 11.6017 16.9217 11.6017 16.9329C11.6017 16.9441 11.6017 16.9533 11.6037 16.9647L10.3891 19.8983C10.3085 20.0929 10.1199 20.2185 9.90962 20.2185H6.148C5.93774 20.2185 5.75098 20.0929 5.67042 19.8983L4.45395 16.9647C4.45591 16.9553 4.4559 16.9441 4.4559 16.9329C4.45393 16.9234 4.45394 16.914 4.45198 16.901L4.7723 16.0416ZM3.29634 16.6145L3.26685 16.6744L4.71923 20.1173C4.72708 20.1399 4.72904 20.1623 4.72512 20.1847C4.72512 20.1903 4.72316 20.1978 4.7212 20.2053L4.54628 20.6752L5.41889 21.3735L5.96328 20.9224C5.97113 20.9187 5.98093 20.9148 5.99081 20.9073C5.99866 20.9018 6.00456 20.8981 6.00652 20.8981C6.01241 20.8961 6.02026 20.8944 6.03204 20.8944C6.03989 20.8924 6.04977 20.8906 6.05959 20.8886H9.99998C10.0098 20.8906 10.0177 20.8924 10.0315 20.8944C10.0393 20.8944 10.0472 20.8961 10.0511 20.8961C10.055 20.8981 10.0609 20.9036 10.0727 20.9093C10.0806 20.9148 10.0904 20.9187 10.0963 20.9224L10.6407 21.3735L11.5133 20.6752L11.3384 20.2053C11.3286 20.1772 11.3286 20.1454 11.3403 20.1192L12.7907 16.6744L12.7632 16.6145C12.7593 16.6052 12.7534 16.5958 12.7475 16.5864L12.3289 15.465L8.02684 15.2346L3.73066 15.465L3.31009 16.5864C3.3042 16.5958 3.30027 16.6052 3.29634 16.6145Z" fill="#FFB200"></path>
    <path d="M8.03078 19.4039C8.7324 19.4002 9.30627 18.8255 9.30627 18.1233C9.30627 18.0783 9.30427 18.0355 9.29838 17.9923C9.23156 17.3502 8.68915 16.8447 8.03078 16.8428H8.02881C7.32719 16.8465 6.7533 17.4196 6.7533 18.1233C6.7533 18.1664 6.75527 18.2114 6.76121 18.2525C6.82606 18.8947 7.37045 19.4002 8.03078 19.4039Z" fill="#FFB200"></path>
    <path d="M4.17885 21.1319C4.05504 21.3172 3.84473 21.4278 3.62068 21.4278H3.12152L3.34754 21.6786C3.48117 21.8246 3.62068 21.9652 3.76025 22.096C3.99413 22.3132 4.24174 22.5117 4.49329 22.6821L4.72127 22.8336L4.72913 22.5622C4.74091 22.2251 4.8687 21.9182 5.08877 21.6973L5.24798 21.5383L4.37732 20.8418L4.17885 21.1319Z" fill="#FFB200"></path>
    <path d="M11.8787 21.1319L11.6802 20.8418L10.8096 21.5383L10.9688 21.6973C11.1908 21.9182 11.3186 22.2251 11.3284 22.5622L11.3382 22.8336L11.5643 22.6821C11.8178 22.5117 12.0654 22.3132 12.2993 22.096C12.4388 21.9652 12.5783 21.8246 12.71 21.6786L12.94 21.4278H12.4388C12.2148 21.4278 12.0045 21.3172 11.8787 21.1319Z" fill="#FFB200"></path>
    <path d="M1.48824 17.1575C1.48824 17.1351 1.48824 17.1125 1.48824 17.0826C1.49021 17.06 1.49021 17.0358 1.49222 17.0132C1.53935 16.3093 1.7064 15.6147 1.98549 14.9465L1.99727 14.9165C2.00316 14.8958 2.01298 14.8754 2.02084 14.8548C2.02874 14.8341 2.03659 14.8135 2.04445 14.7948C2.27243 14.2876 2.56135 13.8119 2.90916 13.3794C3.00548 13.2578 3.10767 13.1398 3.21577 13.0256C3.37296 12.8552 3.54199 12.6906 3.7169 12.5388C4.90983 11.4998 6.43689 10.9288 8.02094 10.9288L8.04646 10.9269C10.621 10.9269 12.9637 12.4453 14.0131 14.7948C14.023 14.8135 14.0308 14.8321 14.0387 14.8548C14.0466 14.8754 14.0544 14.8958 14.0623 14.9165L14.076 14.9483C14.3531 15.6147 14.5202 16.3093 14.5654 17.0115C14.5673 17.0376 14.5673 17.0637 14.5693 17.0901C14.5693 17.1125 14.5693 17.1351 14.5713 17.1575L14.5752 17.2568C14.5772 17.3242 14.5811 17.3933 14.5811 17.4607C14.5811 21.0627 11.6508 23.9926 8.04843 23.9926H8.00917C4.40872 23.9926 1.47842 21.0627 1.47842 17.4607C1.47842 17.3915 1.48234 17.3242 1.4843 17.2568L1.48824 17.1575ZM8.01111 24.9999C8.017 24.9999 8.02291 24.9999 8.0288 24.9999C8.03665 24.9999 8.04254 24.9999 8.04843 24.9999C12.205 24.9999 15.5874 21.6187 15.5874 17.4607C15.5874 13.3028 12.205 9.91968 8.04843 9.91968C8.04057 9.91968 8.03272 9.91968 8.03468 9.92165C8.02683 9.91968 8.01897 9.91968 8.01111 9.91968C3.85445 9.91968 0.470215 13.3028 0.470215 17.4607C0.470215 21.6187 3.85445 24.9999 8.01111 24.9999Z" fill="#FFB200"></path>
    <path d="M13.6083 16.5152C13.7557 16.5359 13.9051 16.5883 14.0505 16.6707L14.3197 16.8224L14.2745 16.5172C14.2254 16.1896 14.1448 15.8562 14.0387 15.5231L13.9346 15.2085L13.7459 15.5231C13.7262 15.5587 13.6909 15.5791 13.6378 15.5791C13.6359 15.5791 13.6358 15.5791 13.6358 15.5791L12.5883 15.4856L12.9382 16.4217L13.6083 16.5152Z" fill="#FFB200"></path>
  </symbol>
  <symbol fill="none" xmlns="http://www.w3.org/2000/svg" viewBox="0 0 18 14" id="catgrey">
    <path d="M13.3334 5H1.66669" stroke="#212121" stroke-width="2" stroke-linecap="round" stroke-linejoin="round"></path>
    <path d="M16.6667 1H1.66669" stroke="#212121" stroke-width="2" stroke-linecap="round" stroke-linejoin="round"></path>
    <path d="M16.6667 9H1.66669" stroke="#212121" stroke-width="2" stroke-linecap="round" stroke-linejoin="round"></path>
    <path d="M13.3334 13H1.66669" stroke="#212121" stroke-width="2" stroke-linecap="round" stroke-linejoin="round"></path>
  </symbol>
  <symbol fill="none" xmlns="http://www.w3.org/2000/svg" viewBox="0 0 32 18" id="smallcar">
    <path d="M30.5089 10.503H29.8703C29.2184 10.503 28.5988 10.2177 28.175 9.72272L27.8716 9.36847C27.4472 8.8732 27.7993 8.10836 28.4512 8.10836H30.5089V10.503ZM11.4115 5.67421V1.92916H17.1417C17.8836 1.92916 18.5629 2.34483 18.9009 3.00518L20.2659 5.67421H11.4115ZM9.19639 5.67421H4.25135L5.93114 2.88558C6.28863 2.29182 6.93071 1.92916 7.62373 1.92916H9.19639V5.67421ZM31.6768 7.71835C31.3696 7.2203 30.8623 6.88616 30.2824 6.80047L22.8188 5.98161L20.9477 2.27325C20.2403 0.871339 18.8253 0 17.2547 0H6.968C5.69486 0 4.46935 0.60216 3.69157 1.61028L0.853384 5.2896C0.302854 6.00396 0 6.89356 0 7.79572V11.1716C0 12.2812 0.672597 13.231 1.62847 13.6506C2.00469 11.4593 3.90603 9.78276 6.20325 9.78276C8.58037 9.78276 10.5242 11.5803 10.8017 13.8834H20.3979C20.6755 11.5803 22.6193 9.78276 24.9964 9.78276C27.1974 9.78276 29.0365 11.3226 29.519 13.3781C30.2971 12.9387 30.9191 12.2418 31.2149 11.35L31.8704 9.37549C32.0544 8.82064 31.9839 8.21663 31.6768 7.71835Z" fill="#FFB200"></path>
    <path d="M6.20336 16.0218C5.32932 16.0218 4.61874 15.3113 4.61874 14.4372C4.61874 13.5633 5.32932 12.8526 6.20336 12.8526C7.07739 12.8526 7.78805 13.5633 7.78805 14.4372C7.78805 15.3113 7.07739 16.0218 6.20336 16.0218ZM6.20336 10.8904C4.24791 10.8904 2.65674 12.4815 2.65674 14.4372C2.65674 16.3931 4.24791 17.9839 6.20336 17.9839C8.15911 17.9839 9.75027 16.3931 9.75027 14.4372C9.75027 12.4815 8.15911 10.8904 6.20336 10.8904Z" fill="#FFB200"></path>
    <path d="M24.9965 16.0218C24.1235 16.0218 23.4129 15.3113 23.4129 14.4372C23.4129 13.5633 24.1235 12.8526 24.9965 12.8526C25.8705 12.8526 26.5811 13.5633 26.5811 14.4372C26.5811 15.3113 25.8705 16.0218 24.9965 16.0218ZM24.9965 10.8904C23.0407 10.8904 21.4495 12.4815 21.4495 14.4372C21.4495 16.3931 23.0407 17.9839 24.9965 17.9839C26.953 17.9839 28.5442 16.3931 28.5442 14.4372C28.5442 12.4815 26.953 10.8904 24.9965 10.8904Z" fill="#FFB200"></path>
  </symbol>
  <symbol fill="none" xmlns="http://www.w3.org/2000/svg" viewBox="0 0 47 21" id="bus">
    <path d="M7.80947 18.925C6.93543 18.925 6.22485 18.2144 6.22485 17.3404C6.22485 16.4669 6.93543 15.7563 7.80947 15.7563C8.6835 15.7563 9.39409 16.4669 9.39409 17.3404C9.39409 18.2144 8.6835 18.925 7.80947 18.925ZM7.80947 13.7935C5.85403 13.7935 4.26286 15.3846 4.26286 17.3404C4.26286 19.2967 5.85403 20.8878 7.80947 20.8878C9.76522 20.8878 11.3564 19.2967 11.3564 17.3404C11.3564 15.3846 9.76522 13.7935 7.80947 13.7935Z" fill="#FFB200"></path>
    <path d="M39.9581 18.925C39.0851 18.925 38.3744 18.2144 38.3744 17.3404C38.3744 16.4669 39.0851 15.7563 39.9581 15.7563C40.8321 15.7563 41.5427 16.4669 41.5427 17.3404C41.5427 18.2144 40.8321 18.925 39.9581 18.925ZM39.9581 13.7935C38.0023 13.7935 36.4111 15.3846 36.4111 17.3404C36.4111 19.2967 38.0023 20.8878 39.9581 20.8878C41.9146 20.8878 43.5057 19.2967 43.5057 17.3404C43.5057 15.3846 41.9146 13.7935 39.9581 13.7935Z" fill="#FFB200"></path>
    <path d="M42.1773 0H4.20781C1.88755 0 0 1.88747 0 4.2078V17.1365H3.17587C3.28514 14.6666 5.31264 12.6859 7.80967 12.6859C10.3067 12.6859 12.3342 14.6666 12.4435 17.1365H35.3241C35.4334 14.6666 37.4609 12.6859 39.9579 12.6859C42.4549 12.6859 44.4832 14.6666 44.5928 17.1365H46.3851V4.2078C46.3851 1.88747 44.4976 0 42.1773 0ZM21.0372 9.64466H15.9869V3.65373H21.0372V9.64466ZM27.9075 9.64466H22.8573V3.65373H27.9075V9.64466ZM34.7777 14.1472H29.7277V3.65373H34.7777V14.1472ZM41.648 9.64466H36.5977V3.65373H41.648V9.64466ZM45.2779 13.5898H44.6396C43.9873 13.5898 43.368 13.3049 42.944 12.8096L42.6406 12.4551C42.2164 11.9601 42.5682 11.1953 43.2205 11.1953H45.2779V13.5898ZM45.2779 9.64466H43.4681V3.65373H45.2779V9.64466ZM7.29644 9.64466H2.2462V3.65373H7.29644V9.64466ZM14.1668 9.64466H9.11656V3.65373H14.1668V9.64466Z" fill="#FFB200"></path>
  </symbol>
  <symbol fill="none" xmlns="http://www.w3.org/2000/svg" viewBox="0 0 32 20" id="moto">
    <path d="M27.0045 17.8084C25.463 17.8084 24.2091 16.5583 24.2091 15.0217C24.2091 14.2358 24.5399 13.5276 25.0664 13.0203L26.2693 15.3921C26.4141 15.6787 26.7039 15.8437 27.0056 15.8437C27.1303 15.8437 27.2568 15.8157 27.3761 15.7546C27.783 15.5502 27.9462 15.0558 27.7401 14.6513L26.538 12.2809C26.6905 12.2551 26.8448 12.2338 27.0045 12.2338C28.5463 12.2338 29.8013 13.4848 29.8013 15.0217C29.8013 16.5583 28.5463 17.8084 27.0045 17.8084ZM22.4566 12.988L22.9604 10.2863C22.9291 10.159 23.1347 10.0254 23.4798 9.89227L24.0546 11.0251C23.3665 11.5315 22.8114 12.2024 22.4566 12.988ZM6.29857 17.8084C4.75677 17.8084 3.50188 16.5583 3.50188 15.0217C3.50188 13.4848 4.75677 12.2338 6.29857 12.2338C7.22136 12.2338 8.03516 12.6876 8.54486 13.3772H6.37138C5.76837 13.3772 5.27971 13.8646 5.27971 14.4654C5.27971 15.0664 5.76837 15.5537 6.37138 15.5537H9.04102C8.79091 16.8364 7.6574 17.8084 6.29857 17.8084ZM27.0045 10.0421C26.4872 10.0421 25.9978 10.1435 25.5283 10.2895L25.1012 9.4474C26.2798 9.19054 27.6569 8.9705 28.4416 8.8508C28.7465 8.80429 28.8628 8.53905 28.7079 8.27334C28.6588 8.18917 28.6119 8.11682 28.5633 8.03585L28.5657 8.03395C28.5657 8.03395 26.4155 3.64552 20.6637 0L19.4295 1.35612C19.4295 1.35612 20.239 1.83111 21.2937 2.44806C21.227 2.60275 21.1688 2.78642 21.1229 3.0137C20.9224 4.00294 20.665 5.07666 20.665 5.07666C20.665 5.07666 16.9668 4.21977 15.5735 4.56241C14.1801 4.90534 12.5808 7.30591 12.5808 7.30591L9.99326 6.62003L8.16037 4.30532L2.89795 3.90345C3.78005 4.53877 7.1129 6.90541 8.55832 7.44573L10.2808 8.15044L7.93099 7.67728C7.93099 7.67728 2.39422 5.05059 0.965777 3.75607L0.352438 3.70926C0.0516208 3.68616 -0.118402 4.04975 0.0963686 4.26094C1.26369 5.40808 4.1146 7.86072 8.16037 9.02051C10.6913 9.74596 11.9443 11.6072 12.5704 13.3772H10.9919C10.3065 11.4415 8.47228 10.0421 6.29857 10.0421C3.54364 10.0421 1.30307 12.2761 1.30307 15.0217C1.30307 17.7667 3.54364 20 6.29857 20C8.87054 20 10.9694 18.0459 11.2398 15.5537H13.0875C13.2177 16.5491 13.1828 17.2501 13.1828 17.2501H21.6615L22.0338 15.2538C22.1585 17.8892 24.3306 20 27.0045 20C29.7594 20 32 17.7667 32 15.0217C32 12.2761 29.7594 10.0421 27.0045 10.0421Z" fill="#FFB200"></path>
  </symbol>
  <symbol fill="none" xmlns="http://www.w3.org/2000/svg" viewBox="0 0 20 20" id="search-blk">
    <path d="M9 17C13.4183 17 17 13.4183 17 9C17 4.58172 13.4183 1 9 1C4.58172 1 1 4.58172 1 9C1 13.4183 4.58172 17 9 17Z" stroke="black" stroke-width="2" stroke-linecap="round" stroke-linejoin="round"></path>
    <path d="M19 19L15 15" stroke="black" stroke-width="2" stroke-linecap="round" stroke-linejoin="round"></path>
  </symbol>
  <symbol fill="none" xmlns="http://www.w3.org/2000/svg" viewBox="0 0 16 14" id="card-heart">
    <path d="M13.9205 2.06089C13.5784 1.72455 13.1722 1.45775 12.7252 1.27572C12.2782 1.09369 11.799 1 11.3151 1C10.8312 1 10.3521 1.09369 9.90504 1.27572C9.45801 1.45775 9.05185 1.72455 8.70976 2.06089L7.99982 2.75857L7.28988 2.06089C6.5989 1.38184 5.66172 1.00035 4.68453 1.00035C3.70733 1.00035 2.77016 1.38184 2.07917 2.06089C1.38819 2.73994 1 3.66092 1 4.62124C1 5.58157 1.38819 6.50255 2.07917 7.1816L2.78911 7.87928L7.99982 13L13.2105 7.87928L13.9205 7.1816C14.2627 6.84543 14.5342 6.44628 14.7194 6.00697C14.9047 5.56765 15 5.09678 15 4.62124C15 4.14571 14.9047 3.67484 14.7194 3.23552C14.5342 2.79621 14.2627 2.39706 13.9205 2.06089Z" stroke="#FF3333" stroke-width="2" stroke-linecap="round" stroke-linejoin="round"></path>
  </symbol>
  <symbol fill="none" xmlns="http://www.w3.org/2000/svg" viewBox="0 0 31 8" id="arrow">
    <path d="M30.3536 4.35355C30.5488 4.15829 30.5488 3.84171 30.3536 3.64645L27.1716 0.464466C26.9763 0.269204 26.6597 0.269204 26.4645 0.464466C26.2692 0.659728 26.2692 0.976311 26.4645 1.17157L29.2929 4L26.4645 6.82843C26.2692 7.02369 26.2692 7.34027 26.4645 7.53553C26.6597 7.7308 26.9763 7.7308 27.1716 7.53553L30.3536 4.35355ZM0 4.5H30V3.5H0V4.5Z" fill="#FFB200"></path>
  </symbol>
  <symbol fill="none" xmlns="http://www.w3.org/2000/svg" viewBox="0 0 20 24" id="point">
    <path d="M19 10C19 17 10 23 10 23C10 23 1 17 1 10C1 7.61305 1.94821 5.32387 3.63604 3.63604C5.32387 1.94821 7.61305 1 10 1C12.3869 1 14.6761 1.94821 16.364 3.63604C18.0518 5.32387 19 7.61305 19 10Z" stroke="#FFB200" stroke-width="2" stroke-linecap="round" stroke-linejoin="round"></path>
    <path d="M10 13C11.6569 13 13 11.6569 13 10C13 8.34315 11.6569 7 10 7C8.34315 7 7 8.34315 7 10C7 11.6569 8.34315 13 10 13Z" stroke="#FFB200" stroke-width="2" stroke-linecap="round" stroke-linejoin="round"></path>
  </symbol>
  <symbol fill="none" xmlns="http://www.w3.org/2000/svg" viewBox="0 0 22 22" id="phone">
    <path d="M20.9994 15.9738V18.9846C21.0005 19.2642 20.9432 19.5408 20.831 19.7969C20.7188 20.053 20.5542 20.2829 20.3478 20.4719C20.1415 20.6608 19.8978 20.8047 19.6325 20.8942C19.3672 20.9838 19.0861 21.017 18.8072 20.9919C15.7128 20.6563 12.7404 19.601 10.1289 17.9108C7.69921 16.3699 5.63926 14.3141 4.09534 11.8892C2.39586 9.27099 1.33824 6.29008 1.00816 3.18795C0.983033 2.91042 1.01608 2.63071 1.1052 2.36663C1.19432 2.10254 1.33757 1.85987 1.52581 1.65407C1.71405 1.44826 1.94317 1.28383 2.19858 1.17123C2.45398 1.05864 2.73008 1.00036 3.0093 1.0001H6.02608C6.5141 0.995304 6.98722 1.16778 7.35725 1.48537C7.72727 1.80297 7.96896 2.24401 8.03727 2.72629C8.1646 3.68982 8.40074 4.63587 8.74118 5.54642C8.87648 5.90563 8.90576 6.29602 8.82556 6.67133C8.74536 7.04665 8.55903 7.39115 8.28867 7.66402L7.01156 8.93859C8.44308 11.4512 10.5276 13.5315 13.0451 14.9602L14.3222 13.6856C14.5956 13.4158 14.9408 13.2298 15.3169 13.1498C15.6929 13.0698 16.0841 13.099 16.444 13.234C17.3564 13.5738 18.3043 13.8095 19.2698 13.9365C19.7582 14.0053 20.2044 14.2509 20.5233 14.6265C20.8422 15.0021 21.0116 15.4817 20.9994 15.9738Z" stroke="#FFB200" stroke-width="2" stroke-linecap="round" stroke-linejoin="round"></path>
  </symbol>
  <symbol fill="none" xmlns="http://www.w3.org/2000/svg" viewBox="0 0 34 26" id="eye">
    <path d="M2 13C2 13 7.45455 2 17 2C26.5455 2 32 13 32 13C32 13 26.5455 24 17 24C7.45455 24 2 13 2 13Z" stroke="#88A7AA" stroke-width="3" stroke-linecap="round" stroke-linejoin="round"></path>
    <path d="M17 16C19.2091 16 21 14.2091 21 12C21 9.79086 19.2091 8 17 8C14.7909 8 13 9.79086 13 12C13 14.2091 14.7909 16 17 16Z" stroke="#88A7AA" stroke-width="3" stroke-linecap="round" stroke-linejoin="round"></path>
  </symbol>
  <symbol fill="none" xmlns="http://www.w3.org/2000/svg" viewBox="0 0 20 20" id="message">
    <path d="M19 13C19 13.5304 18.7893 14.0391 18.4142 14.4142C18.0391 14.7893 17.5304 15 17 15H5L1 19V3C1 2.46957 1.21071 1.96086 1.58579 1.58579C1.96086 1.21071 2.46957 1 3 1H17C17.5304 1 18.0391 1.21071 18.4142 1.58579C18.7893 1.96086 19 2.46957 19 3V13Z" stroke="white" stroke-width="2" stroke-linecap="round" stroke-linejoin="round"></path>
  </symbol>
  <symbol fill="none" xmlns="http://www.w3.org/2000/svg" viewBox="0 0 23 23" id="ph-ring">
    <path d="M13.9381 5C14.9149 5.19057 15.8125 5.66826 16.5162 6.37194C17.2199 7.07561 17.6976 7.97326 17.8881 8.95M13.9381 1C15.9674 1.22544 17.8597 2.13417 19.3044 3.57701C20.749 5.01984 21.6601 6.91101 21.8881 8.94M20.8881 16.92V19.92C20.8892 20.1985 20.8322 20.4742 20.7206 20.7293C20.6091 20.9845 20.4454 21.2136 20.2402 21.4019C20.035 21.5901 19.7927 21.7335 19.5289 21.8227C19.265 21.9119 18.9855 21.9451 18.7081 21.92C15.631 21.5856 12.6751 20.5341 10.0781 18.85C7.66194 17.3147 5.61345 15.2662 4.07812 12.85C2.38809 10.2412 1.33636 7.27099 1.00812 4.18C0.983127 3.90347 1.01599 3.62476 1.10462 3.36162C1.19324 3.09849 1.33569 2.85669 1.52288 2.65162C1.71008 2.44655 1.93792 2.28271 2.19191 2.17052C2.44589 2.05833 2.72046 2.00026 2.99812 2H5.99812C6.48342 1.99522 6.95391 2.16708 7.32188 2.48353C7.68985 2.79999 7.93019 3.23945 7.99812 3.72C8.12474 4.68007 8.35957 5.62273 8.69812 6.53C8.83266 6.88792 8.86178 7.27691 8.78202 7.65088C8.70227 8.02485 8.51698 8.36811 8.24812 8.64L6.97812 9.91C8.40167 12.4135 10.4746 14.4864 12.9781 15.91L14.2481 14.64C14.52 14.3711 14.8633 14.1858 15.2372 14.1061C15.6112 14.0263 16.0002 14.0555 16.3581 14.19C17.2654 14.5286 18.2081 14.7634 19.1681 14.89C19.6539 14.9585 20.0975 15.2032 20.4146 15.5775C20.7318 15.9518 20.9003 16.4296 20.8881 16.92Z" stroke="white" stroke-width="2" stroke-linecap="round" stroke-linejoin="round"></path>
  </symbol>
  <symbol fill="none" xmlns="http://www.w3.org/2000/svg" viewBox="0 0 19 18" id="star">
    <path d="M9.5 0L12.4355 5.92429L19 6.88013L14.25 11.489L15.371 18L9.5 14.9243L3.629 18L4.75 11.489L0 6.88013L6.5645 5.92429L9.5 0Z" fill="#FFB200"></path>
  </symbol>
  <symbol fill="none" xmlns="http://www.w3.org/2000/svg" viewBox="0 0 22 22" id="ph-grey">
    <path d="M20.8881 15.9201V18.9201C20.8892 19.1986 20.8322 19.4743 20.7206 19.7294C20.6091 19.9846 20.4454 20.2137 20.2402 20.402C20.035 20.5902 19.7927 20.7336 19.5289 20.8228C19.265 20.912 18.9855 20.9452 18.7081 20.9201C15.631 20.5857 12.6751 19.5342 10.0781 17.8501C7.66194 16.3148 5.61345 14.2663 4.07812 11.8501C2.38809 9.2413 1.33636 6.27109 1.00812 3.1801C0.983127 2.90356 1.01599 2.62486 1.10462 2.36172C1.19324 2.09859 1.33569 1.85679 1.52288 1.65172C1.71008 1.44665 1.93792 1.28281 2.19191 1.17062C2.44589 1.05843 2.72046 1.00036 2.99812 1.0001H5.99812C6.48342 0.995321 6.95391 1.16718 7.32188 1.48363C7.68985 1.80008 7.93019 2.23954 7.99812 2.7201C8.12474 3.68016 8.35957 4.62282 8.69812 5.5301C8.83266 5.88802 8.86178 6.27701 8.78202 6.65098C8.70227 7.02494 8.51698 7.36821 8.24812 7.6401L6.97812 8.9101C8.40167 11.4136 10.4746 13.4865 12.9781 14.9101L14.2481 13.6401C14.52 13.3712 14.8633 13.1859 15.2372 13.1062C15.6112 13.0264 16.0002 13.0556 16.3581 13.1901C17.2654 13.5286 18.2081 13.7635 19.1681 13.8901C19.6539 13.9586 20.0975 14.2033 20.4146 14.5776C20.7318 14.9519 20.9003 15.4297 20.8881 15.9201Z" fill="white" stroke="#CECECE" stroke-width="2" stroke-linecap="round" stroke-linejoin="round"></path>
  </symbol>
  <symbol fill="none" xmlns="http://www.w3.org/2000/svg" viewBox="0 0 20 24" id="point-grey">
    <path d="M19 10C19 17 10 23 10 23C10 23 1 17 1 10C1 7.61305 1.94821 5.32387 3.63604 3.63604C5.32387 1.94821 7.61305 1 10 1C12.3869 1 14.6761 1.94821 16.364 3.63604C18.0518 5.32387 19 7.61305 19 10Z" fill="white" stroke="#CECECE" stroke-width="2" stroke-linecap="round" stroke-linejoin="round"></path>
    <path d="M10 13C11.6569 13 13 11.6569 13 10C13 8.34315 11.6569 7 10 7C8.34315 7 7 8.34315 7 10C7 11.6569 8.34315 13 10 13Z" fill="white" stroke="#CECECE" stroke-width="2" stroke-linecap="round" stroke-linejoin="round"></path>
  </symbol>
  <symbol fill="none" xmlns="http://www.w3.org/2000/svg" viewBox="0 0 22 22" id="clock">
    <path d="M11 21C16.5228 21 21 16.5228 21 11C21 5.47715 16.5228 1 11 1C5.47715 1 1 5.47715 1 11C1 16.5228 5.47715 21 11 21Z" fill="white" stroke="#CECECE" stroke-width="2" stroke-linecap="round" stroke-linejoin="round"></path>
    <path d="M11 5V11L15 13" fill="white"></path>
    <path d="M11 5V11L15 13" stroke="#CECECE" stroke-width="2" stroke-linecap="round" stroke-linejoin="round"></path>
  </symbol>
  <symbol fill="none" xmlns="http://www.w3.org/2000/svg" viewBox="0 0 22 22" id="inst">
    <path d="M16 1H6C3.23858 1 1 3.23858 1 6V16C1 18.7614 3.23858 21 6 21H16C18.7614 21 21 18.7614 21 16V6C21 3.23858 18.7614 1 16 1Z" fill="white" stroke="#CECECE" stroke-width="2" stroke-linecap="round" stroke-linejoin="round"></path>
    <path d="M15.0002 10.37C15.1236 11.2022 14.9815 12.0522 14.594 12.799C14.2065 13.5458 13.5933 14.1514 12.8418 14.5297C12.0903 14.9079 11.2386 15.0396 10.408 14.9059C9.57732 14.7723 8.80996 14.3801 8.21503 13.7852C7.62011 13.1902 7.22793 12.4229 7.09426 11.5922C6.9606 10.7615 7.09226 9.90989 7.47052 9.15837C7.84878 8.40685 8.45438 7.79374 9.20118 7.40624C9.94798 7.01874 10.7979 6.87658 11.6302 7C12.4791 7.12588 13.265 7.52146 13.8719 8.1283C14.4787 8.73515 14.8743 9.52107 15.0002 10.37Z" fill="white" stroke="#CECECE" stroke-width="2" stroke-linecap="round" stroke-linejoin="round"></path>
    <path d="M16.5 5.5H16.51" stroke="#CECECE" stroke-width="2" stroke-linecap="round" stroke-linejoin="round"></path>
  </symbol>
  <symbol fill="none" xmlns="http://www.w3.org/2000/svg" viewBox="0 0 22 18" id="mail">
    <path d="M3 1H19C20.1 1 21 1.9 21 3V15C21 16.1 20.1 17 19 17H3C1.9 17 1 16.1 1 15V3C1 1.9 1.9 1 3 1Z" fill="white" stroke="#CECECE" stroke-width="2" stroke-linecap="round" stroke-linejoin="round"></path>
    <path d="M21 3L11 10L1 3" fill="white"></path>
    <path d="M21 3L11 10L1 3" stroke="#CECECE" stroke-width="2" stroke-linecap="round" stroke-linejoin="round"></path>
  </symbol>
  <symbol fill="none" xmlns="http://www.w3.org/2000/svg" viewBox="0 0 13 22" id="fb">
    <path d="M12 1H9C7.67392 1 6.40215 1.52678 5.46447 2.46447C4.52678 3.40215 4 4.67392 4 6V9H1V13H4V21H8V13H11L12 9H8V6C8 5.73478 8.10536 5.48043 8.29289 5.29289C8.48043 5.10536 8.73478 5 9 5H12V1Z" stroke="#CECECE" stroke-width="2" stroke-linecap="round" stroke-linejoin="round"></path>
  </symbol>
  <symbol fill="none" xmlns="http://www.w3.org/2000/svg" viewBox="0 0 38 31" id="drop">
    <path d="M36.4444 26.7778C36.4444 27.6324 36.105 28.4519 35.5007 29.0562C34.8964 29.6605 34.0768 30 33.2222 30H4.22222C3.36764 30 2.54805 29.6605 1.94377 29.0562C1.33948 28.4519 1 27.6324 1 26.7778V9.05556C1 8.20097 1.33948 7.38138 1.94377 6.7771C2.54805 6.17282 3.36764 5.83333 4.22222 5.83333H10.6667L13.8889 1H23.5556L26.7778 5.83333H33.2222C34.0768 5.83333 34.8964 6.17282 35.5007 6.7771C36.105 7.38138 36.4444 8.20097 36.4444 9.05556V26.7778Z" stroke="#FFB200" stroke-width="2" stroke-linecap="round" stroke-linejoin="round"></path>
    <path d="M19 25C23.4183 25 27 21.4183 27 17C27 12.5817 23.4183 9 19 9C14.5817 9 11 12.5817 11 17C11 21.4183 14.5817 25 19 25Z" fill="#FFB200"></path>
    <path d="M24 17H14M19 12V22" stroke="white" stroke-width="2" stroke-linecap="round" stroke-linejoin="round"></path>
  </symbol>
  <symbol fill="none" xmlns="http://www.w3.org/2000/svg" viewBox="0 0 16 16" id="crossdel">
    <rect x="0.5" y="0.5" width="15" height="15" rx="7.5" fill="white" stroke="#CECECE"></rect>
    <path d="M11 11L8 8M8 8L5 5M8 8L11 5M8 8L5 11" stroke="#212121" stroke-linecap="round" stroke-linejoin="round"></path>
  </symbol>
  <symbol fill="none" xmlns="http://www.w3.org/2000/svg" viewBox="0 0 16 16" id="rotate">
    <rect x="0.5" y="0.5" width="15" height="15" rx="7.5" fill="white" stroke="#CECECE"></rect>
    <path d="M12.7211 4.43042V7.01379H10.1377" stroke="#212121" stroke-linecap="round" stroke-linejoin="round"></path>
    <path d="M11.6401 9.1659C11.3602 9.95809 10.8305 10.6379 10.1306 11.1028C9.4308 11.5677 8.59882 11.7926 7.76007 11.7435C6.92132 11.6944 6.12124 11.3741 5.4804 10.8307C4.83955 10.2874 4.39266 9.55048 4.20706 8.73106C4.02146 7.91163 4.10722 7.05408 4.4514 6.28763C4.79558 5.52118 5.37955 4.88735 6.1153 4.48167C6.85105 4.07598 7.69872 3.92042 8.53058 4.03841C9.36244 4.1564 10.1334 4.54156 10.7273 5.13585L12.7208 7.01309" stroke="#212121" stroke-linecap="round" stroke-linejoin="round"></path>
  </symbol>
  <symbol fill="none" xmlns="http://www.w3.org/2000/svg" viewBox="0 0 27 30" id="wallet">
    <path d="M13.5039 1.20352C13.7313 0.886552 14.0234 0.618548 14.3621 0.416229C14.7007 0.21391 15.0787 0.0816178 15.4722 0.0276055C15.8658 -0.0264067 16.2667 -0.000979461 16.6497 0.102301C17.0327 0.205581 17.3897 0.384499 17.6985 0.627889L24.0049 5.60605C24.5684 6.05061 24.9395 6.68483 25.0445 7.38293C25.1495 8.08102 24.9808 8.79199 24.5719 9.37483H22.2191L22.9712 8.3267C23.1112 8.13256 23.1704 7.89404 23.1367 7.6592C23.1031 7.42436 22.9792 7.21064 22.7899 7.06107L19.5422 4.4998L16.0785 9.37483H13.7314L18.0399 3.31479L16.4816 2.08478C16.3787 2.00361 16.2597 1.94393 16.1321 1.90946C16.0044 1.87498 15.8708 1.86645 15.7396 1.8844C15.6084 1.90234 15.4825 1.94638 15.3695 2.01376C15.2566 2.08114 15.1592 2.17042 15.0834 2.27603L9.99 9.37296H7.63714L13.5039 1.20352ZM20.25 20.6249C19.9943 20.6249 19.749 20.7237 19.5681 20.8995C19.3873 21.0753 19.2857 21.3138 19.2857 21.5624C19.2857 21.8111 19.3873 22.0495 19.5681 22.2254C19.749 22.4012 19.9943 22.4999 20.25 22.4999H22.1786C22.4343 22.4999 22.6796 22.4012 22.8604 22.2254C23.0413 22.0495 23.1429 21.8111 23.1429 21.5624C23.1429 21.3138 23.0413 21.0753 22.8604 20.8995C22.6796 20.7237 22.4343 20.6249 22.1786 20.6249H20.25ZM2.89286 7.49982H7.07593L5.72593 9.37483H2.89286C2.63711 9.37483 2.39184 9.47361 2.211 9.64942C2.03017 9.82524 1.92857 10.0637 1.92857 10.3123C1.92857 10.561 2.03017 10.7994 2.211 10.9753C2.39184 11.1511 2.63711 11.2498 2.89286 11.2498H23.1429C24.1658 11.2498 25.1469 11.6449 25.8703 12.3482C26.5936 13.0515 27 14.0053 27 14.9999V26.25C27 27.2445 26.5936 28.1984 25.8703 28.9016C25.1469 29.6049 24.1658 30 23.1429 30H4.82143C3.54271 30 2.31636 29.5061 1.41216 28.6271C0.50797 27.748 0 26.5557 0 25.3125V10.3123C0 9.56641 0.304782 8.85104 0.847298 8.32359C1.38981 7.79614 2.12562 7.49982 2.89286 7.49982ZM1.92857 25.3125C1.92857 26.0584 2.23335 26.7738 2.77587 27.3012C3.31839 27.8287 4.0542 28.125 4.82143 28.125H23.1429C23.6543 28.125 24.1449 27.9274 24.5066 27.5758C24.8682 27.2242 25.0714 26.7473 25.0714 26.25V14.9999C25.0714 14.5026 24.8682 14.0257 24.5066 13.674C24.1449 13.3224 23.6543 13.1249 23.1429 13.1249H2.89286C2.55536 13.1249 2.22943 13.0686 1.92857 12.9655V25.3125Z" fill="#212121"></path>
  </symbol>
  <symbol fill="none" xmlns="http://www.w3.org/2000/svg" viewBox="0 0 21 21" id="plus">
    <path d="M19 10.5H2" stroke="#FFB200" stroke-width="3" stroke-linecap="round" stroke-linejoin="round"></path>
    <path d="M10.5 2V19" stroke="#FFB200" stroke-width="3" stroke-linecap="round" stroke-linejoin="round"></path>
  </symbol>
  <symbol fill="none" xmlns="http://www.w3.org/2000/svg" viewBox="0 0 20 20" id="google">
    <path fill-rule="evenodd" clip-rule="evenodd" d="M19.7875 10.2273C19.7875 9.51819 19.7239 8.83637 19.6057 8.18182H10.1875V12.05H15.5693C15.3375 13.3 14.633 14.3591 13.5739 15.0682V17.5773H16.8057C18.6966 15.8364 19.7875 13.2727 19.7875 10.2273Z" fill="#4285F4"></path>
    <path fill-rule="evenodd" clip-rule="evenodd" d="M10.1871 20C12.8871 20 15.1508 19.1045 16.8053 17.5772L13.5735 15.0682C12.678 15.6682 11.5326 16.0227 10.1871 16.0227C7.58256 16.0227 5.37801 14.2636 4.59165 11.9H1.25073V14.4909C2.89619 17.7591 6.27802 20 10.1871 20Z" fill="#34A853"></path>
    <path fill-rule="evenodd" clip-rule="evenodd" d="M4.59205 11.9C4.39205 11.3 4.27842 10.659 4.27842 9.99995C4.27842 9.34086 4.39205 8.69995 4.59205 8.09995V5.50903H1.25114C0.573864 6.85904 0.1875 8.38631 0.1875 9.99995C0.1875 11.6136 0.573864 13.1409 1.25114 14.4909L4.59205 11.9Z" fill="#FBBC05"></path>
    <path fill-rule="evenodd" clip-rule="evenodd" d="M10.1871 3.97728C11.6553 3.97728 12.9735 4.48183 14.0099 5.47274L16.878 2.60455C15.1462 0.990911 12.8826 0 10.1871 0C6.27802 0 2.89619 2.24091 1.25073 5.5091L4.59165 8.10002C5.37801 5.73638 7.58256 3.97728 10.1871 3.97728Z" fill="#EA4335"></path>
  </symbol>
  <symbol fill="none" xmlns="http://www.w3.org/2000/svg" viewBox="0 0 27 25" id="soc-phone">
    <path d="M26.5149 21.7231C25.9547 23.2078 23.3406 24.6925 22.0335 24.8781C20.9131 25.0637 19.4193 25.0637 17.9256 24.6925C16.9919 24.3213 15.6849 23.9502 14.1911 23.2078C7.46898 20.424 3.17432 13.7428 2.80087 13.186C2.42742 12.8148 0 9.65979 0 6.31919C0 2.97859 1.68052 1.49388 2.24069 0.75152C2.80086 0.00916432 3.54776 0.00916474 4.10793 0.00916474C4.48138 0.00916474 5.04155 0.00916474 5.415 0.00916474C5.78845 0.00916474 6.34863 -0.176423 6.9088 1.1227C7.46898 2.42182 8.77604 5.76243 8.96277 5.94802C9.14949 6.31919 9.14949 6.69037 8.96277 7.06155C8.77604 7.43273 8.58932 7.8039 8.21587 8.17508C7.84242 8.54626 7.46897 9.10303 7.28225 9.28862C6.9088 9.65979 6.53535 10.031 6.9088 10.5877C7.28225 11.3301 8.58932 13.3716 10.6433 15.2275C13.2574 17.4545 15.3114 18.1969 16.0583 18.5681C16.8052 18.9392 17.1786 18.7537 17.5521 18.3825C17.9255 18.0113 19.2326 16.5266 19.6061 15.7842C19.9795 15.0419 20.5397 15.2275 21.0999 15.4131C21.66 15.5986 25.0211 17.2689 25.5813 17.6401C26.3282 18.0113 26.7016 18.1969 26.8883 18.3825C27.075 18.9392 27.0751 20.2384 26.5149 21.7231Z" fill="white"></path>
  </symbol>
  <symbol fill="none" xmlns="http://www.w3.org/2000/svg" viewBox="0 0 12 23" id="fb">
    <path d="M7.65708 12.3648H11.3793L11.9637 8.56055H7.65632V6.48134C7.65632 4.90099 8.16957 3.49962 9.63891 3.49962H12V0.179741C11.5852 0.123382 10.7078 0 9.04996 0C5.58819 0 3.55867 1.8393 3.55867 6.0297V8.56055H0V12.3648H3.55867V22.821C4.26344 22.9276 4.97729 23 5.71007 23C6.37245 23 7.01893 22.9391 7.65708 22.8522V12.3648Z" fill="#fff"></path>
  </symbol>
  <symbol fill="none" xmlns="http://www.w3.org/2000/svg" viewBox="0 0 24 24" id="x">
    <path d="M18 6L6 18" stroke="#212121" stroke-width="2" stroke-linecap="round" stroke-linejoin="round"></path>
    <path d="M6 6L18 18" stroke="#212121" stroke-width="2" stroke-linecap="round" stroke-linejoin="round"></path>
  </symbol>
</svg>