<svg width="0" height="0" class="hidden">
   <symbol fill="none" xmlns="http://www.w3.org/2000/svg" viewBox="0 0 18 20" id="bag">
    <path d="M14.6895 3.8963H12.8782C12.7878 2.83374 12.2991 1.84363 11.5089 1.12204C10.7186 0.400446 9.68444 0 8.61111 0C7.53778 0 6.50359 0.400446 5.71333 1.12204C4.92308 1.84363 4.43439 2.83374 4.34405 3.8963H2.53268C1.86097 3.8963 1.21677 4.1614 0.741805 4.63328C0.266835 5.10516 0 5.74517 0 6.41251L0 17.4838C0 18.1511 0.266835 18.7911 0.741805 19.263C1.21677 19.7349 1.86097 20 2.53268 20H14.6895C15.3613 20 16.0054 19.7349 16.4804 19.263C16.9554 18.7911 17.2222 18.1511 17.2222 17.4838V6.41251C17.2222 5.74517 16.9554 5.10516 16.4804 4.63328C16.0054 4.1614 15.3613 3.8963 14.6895 3.8963ZM8.61111 1.00267C9.41614 1.00515 10.1922 1.30119 10.7921 1.83461C11.3919 2.36802 11.7738 3.10167 11.8651 3.8963H5.35712C5.44847 3.10167 5.83031 2.36802 6.43015 1.83461C7.02999 1.30119 7.80608 1.00515 8.61111 1.00267ZM16.2092 17.4838C16.2092 17.8842 16.049 18.2682 15.7641 18.5513C15.4791 18.8345 15.0926 18.9935 14.6895 18.9935H2.53268C2.12965 18.9935 1.74314 18.8345 1.45815 18.5513C1.17317 18.2682 1.01307 17.8842 1.01307 17.4838V6.41251C1.01307 6.0121 1.17317 5.6281 1.45815 5.34497C1.74314 5.06184 2.12965 4.90278 2.53268 4.90278H14.6895C15.0926 4.90278 15.4791 5.06184 15.7641 5.34497C16.049 5.6281 16.2092 6.0121 16.2092 6.41251V17.4838Z" fill="black"></path>
  </symbol>
  <symbol fill="none" xmlns="http://www.w3.org/2000/svg" viewBox="0 0 23 22" id="heart">
    <path d="M15.7104 5.50336C16.894 5.88147 17.7351 6.94414 17.8402 8.19445M11.29 20.8375C8.87822 19.3532 6.63457 17.6063 4.59921 15.628C3.16826 14.2033 2.07889 12.4664 1.41455 10.5504C0.219049 6.83367 1.61548 2.5787 5.52347 1.31947C7.57735 0.658261 9.8205 1.03617 11.5512 2.33497C13.2826 1.03775 15.525 0.659975 17.579 1.31947C21.4869 2.5787 22.8934 6.83367 21.6979 10.5504C21.0336 12.4664 19.9442 14.2033 18.5133 15.628C16.4779 17.6063 14.2343 19.3532 11.8225 20.8375L11.5613 21L11.29 20.8375Z" stroke="black" stroke-linecap="round" stroke-linejoin="round"></path>
  </symbol>
  <symbol fill="none" xmlns="http://www.w3.org/2000/svg" viewBox="0 0 20 20" id="search">
    <path d="M9.80584 17.2966C13.9429 17.2966 17.2967 13.9428 17.2967 9.80578C17.2967 5.6687 13.9429 2.31494 9.80584 2.31494C5.66876 2.31494 2.315 5.6687 2.315 9.80578C2.315 13.9428 5.66876 17.2966 9.80584 17.2966Z" stroke="#200E32" stroke-linecap="round" stroke-linejoin="round"></path>
    <path d="M15.015 15.4043L17.9517 18.3335" stroke="#200E32" stroke-linecap="round" stroke-linejoin="round"></path>
  </symbol>
  <symbol fill="none" xmlns="http://www.w3.org/2000/svg" viewBox="0 0 18 24" id="kurt">
    <path d="M8.76267 1.71663e-05C7.03136 1.71663e-05 5.45781 0.446206 4.28878 1.19784C3.11959 1.94947 2.33427 3.0405 2.33427 4.28576C2.33427 4.97641 2.7078 5.58237 3.21653 6.09045C3.3054 6.17919 3.40442 6.26245 3.50197 6.34659C1.57 7.08682 0.191406 8.95408 0.191406 11.1428V20.1428C0.191406 20.6971 0.552553 21.1693 1.04856 21.3482V21.8571C1.04856 22.562 1.6294 23.1429 2.33428 23.1429H3.27179C3.45069 23.6388 3.92305 24 4.47715 24H13.0486C13.6027 24 14.0751 23.6388 14.254 23.1429H15.1915C15.8964 23.1429 16.4772 22.562 16.4772 21.8571V21.3482C16.9732 21.1693 17.3344 20.6971 17.3344 20.1428V11.1428C17.3344 8.95429 15.9569 7.08614 14.0255 6.34573C14.1225 6.26197 14.2208 6.17876 14.3093 6.09043C14.818 5.58235 15.1915 4.97635 15.1915 4.28574C15.1915 3.04048 14.4062 1.94946 13.237 1.19782C12.0678 0.446189 10.4943 0 8.76311 0L8.76267 1.71663e-05ZM8.76267 0.857166C10.3451 0.857166 11.7715 1.27417 12.7739 1.91857C13.7763 2.56298 14.3341 3.4008 14.3341 4.28576C14.3341 4.66025 14.1184 5.06873 13.703 5.48358C13.5181 5.66819 13.2934 5.84852 13.0484 6.02265V4.71434C13.0484 4.00946 12.4676 3.42861 11.7627 3.42861H5.76265C5.05778 3.42861 4.47693 4.00946 4.47693 4.71434V6.02265C4.23193 5.84852 4.00721 5.66819 3.82237 5.48358C3.40698 5.06873 3.1912 4.66025 3.1912 4.28576C3.1912 3.4008 3.74908 2.56294 4.75147 1.91857C5.75387 1.27421 7.18025 0.857166 8.76267 0.857166ZM5.76265 4.28576H8.3341V7.66164C8.07872 7.61546 7.76135 7.54048 7.41082 7.43062C6.81197 7.24293 6.12248 6.96831 5.47889 6.63291C5.42958 6.60721 5.3828 6.57898 5.33408 6.55255V4.71435C5.33408 4.46951 5.51781 4.28578 5.76266 4.28578L5.76265 4.28576ZM9.19125 4.28576H11.7627C12.0075 4.28576 12.1913 4.46949 12.1913 4.71434V6.55254C12.1426 6.57896 12.0958 6.60719 12.0465 6.63289C11.4029 6.96833 10.7134 7.24293 10.1145 7.4306C9.76398 7.54046 9.44664 7.61544 9.19125 7.66163V4.28574L9.19125 4.28576ZM4.35993 6.97438C4.59407 7.12172 4.83406 7.26353 5.08229 7.39291C5.77799 7.75548 6.50816 8.04571 7.15483 8.24839C7.32703 8.30235 7.49068 8.3491 7.64787 8.39069C7.52355 8.56347 7.41458 8.75534 7.31639 8.96575C7.00868 9.62511 6.79263 10.452 6.62831 11.2735C6.2997 12.9166 6.19219 14.5431 6.19219 14.5431C6.17641 14.7793 6.35521 14.9836 6.59147 14.9993C6.82773 15.0151 7.032 14.8363 7.04769 14.6C7.04769 14.6 7.15448 13.0122 7.46873 11.441C7.62585 10.6553 7.83838 9.87504 8.09316 9.32908C8.17178 9.16061 8.2535 9.02655 8.33424 8.91138V23.1431H4.47707C4.23222 23.1431 4.04849 22.9593 4.04849 22.7145V11.5715C4.04849 11.4579 4.00334 11.3489 3.92296 11.2685C3.84259 11.1881 3.73358 11.143 3.61992 11.143C3.50625 11.143 3.39724 11.1881 3.31687 11.2685C3.2365 11.3489 3.19134 11.4579 3.19134 11.5715V20.5716H1.47704C1.23527 20.5716 1.04847 20.3848 1.04847 20.143V11.143C1.04847 9.1072 2.46058 7.41463 4.35989 6.9744L4.35993 6.97438ZM13.1624 6.97689C15.0631 7.41562 16.4772 9.10627 16.4772 11.1429V20.143C16.4772 20.3848 16.2904 20.5716 16.0486 20.5716H14.3343V11.5715C14.3343 11.4578 14.2892 11.3488 14.2088 11.2685C14.1284 11.1881 14.0194 11.1429 13.9057 11.1429C13.7921 11.1429 13.6831 11.1881 13.6027 11.2685C13.5223 11.3488 13.4772 11.4578 13.4772 11.5715V22.7144C13.4772 22.9593 13.2934 23.143 13.0486 23.143H9.19142V8.91135C9.27216 9.02651 9.35388 9.16057 9.43249 9.32904C9.68729 9.87504 9.89981 10.6553 10.0569 11.4409C10.3712 13.0122 10.478 14.6 10.478 14.6C10.4936 14.8363 10.6979 15.015 10.9342 14.9993C11.1704 14.9836 11.3492 14.7793 11.3335 14.5431C11.3335 14.5431 11.226 12.9166 10.8973 11.2735C10.733 10.452 10.517 9.62512 10.2093 8.96571C10.1111 8.75531 10.0021 8.56344 9.87779 8.39065C10.035 8.34907 10.1986 8.30232 10.3708 8.24835C11.0175 8.04568 11.7477 7.75545 12.4434 7.39288C12.6904 7.26414 12.9293 7.12336 13.1624 6.97686L13.1624 6.97689ZM1.90548 21.4289H3.1912V22.286H2.33406C2.08921 22.286 1.90548 22.1023 1.90548 21.8574V21.4289ZM14.3341 21.4289H15.6199V21.8574C15.6199 22.1023 15.4361 22.286 15.1913 22.286H14.3341V21.4289Z" fill="white"></path>
  </symbol>
  <symbol fill="none" xmlns="http://www.w3.org/2000/svg" viewBox="0 0 21 24" id="pants">
    <path d="M20.9331 23.058L18.1335 1.73056C18.2845 1.48124 18.3521 1.19032 18.3265 0.899993C18.301 0.609665 18.1836 0.335017 17.9915 0.115869C17.9162 0.0429288 17.816 0.00148216 17.7112 1.5365e-07H3.30976C3.25771 -4.56819e-05 3.20617 0.0101639 3.15807 0.0300451C3.10997 0.0499264 3.06626 0.0790898 3.02943 0.115869C2.8385 0.335992 2.72284 0.61133 2.69931 0.901769C2.67578 1.19221 2.74561 1.48257 2.89861 1.73056L0.0990645 23.058C0.0862895 23.1554 0.110201 23.2542 0.166152 23.335C0.222103 23.4158 0.306098 23.4729 0.40182 23.4953C1.82987 23.8104 3.28648 23.9782 4.74878 23.9961C5.85696 24.029 6.96142 23.8527 8.00433 23.4766C8.0667 23.4507 8.12142 23.4093 8.16328 23.3563C8.20515 23.3033 8.23278 23.2405 8.24354 23.1738L10.5161 9.68068L12.7886 23.1738C12.7972 23.2413 12.824 23.3051 12.8661 23.3585C12.9083 23.4118 12.9642 23.4526 13.0278 23.4766C14.0707 23.8527 15.1752 24.029 16.2834 23.9961C17.7457 23.9782 19.2023 23.8104 20.6303 23.4953C20.726 23.4729 20.81 23.4158 20.866 23.335C20.9219 23.2542 20.9459 23.1554 20.9331 23.058ZM13.5324 22.8374L10.916 7.24369V7.20631V7.16894V7.1353C10.9172 7.12412 10.9172 7.11284 10.916 7.10166L10.8936 7.07175L10.8674 7.04185L10.8375 7.01569H10.8114L10.7702 6.99326H10.7441H10.6992H10.6693H10.4413H10.389H10.3666L10.318 7.01943L10.2731 7.05307C10.2588 7.06491 10.2462 7.07876 10.2357 7.09418C10.2257 7.10829 10.2169 7.12331 10.2096 7.13903H10.1423C10.1407 7.15394 10.1407 7.16898 10.1423 7.18389V7.21753L7.49974 22.8374C5.37672 23.585 2.02025 23.0281 0.932575 22.815L3.61625 2.38466H5.21599C5.32107 2.38466 5.42185 2.34292 5.49615 2.26862C5.57045 2.19432 5.61219 2.09354 5.61219 1.98846C5.61219 1.88339 5.57045 1.78261 5.49615 1.70831C5.42185 1.63401 5.32107 1.59227 5.21599 1.59227H3.69848C3.69136 1.54754 3.67616 1.50448 3.65363 1.46518C3.57919 1.37043 3.52876 1.25909 3.50663 1.14064C3.4845 1.0222 3.49134 0.900156 3.52655 0.78492H17.5019C17.5326 0.895518 17.5375 1.01171 17.5161 1.1245C17.4947 1.23728 17.4476 1.34363 17.3785 1.43528C17.3335 1.51329 17.3152 1.60382 17.3262 1.69318L20.0996 22.7851C19.0119 23.0094 15.6554 23.585 13.5324 22.8374Z" fill="white"></path>
    <path d="M12.8447 1.57373H10.9384C10.8334 1.57373 10.7326 1.61547 10.6583 1.68977C10.584 1.76408 10.5422 1.86485 10.5422 1.96993C10.5422 2.07501 10.584 2.17578 10.6583 2.25008C10.7326 2.32438 10.8334 2.36613 10.9384 2.36613H12.8447C12.9498 2.36613 13.0505 2.32438 13.1248 2.25008C13.1991 2.17578 13.2409 2.07501 13.2409 1.96993C13.2409 1.86485 13.1991 1.76408 13.1248 1.68977C13.0505 1.61547 12.9498 1.57373 12.8447 1.57373ZM9.021 1.57373H7.11477C7.00969 1.57373 6.90891 1.61547 6.83461 1.68977C6.76031 1.76408 6.71857 1.86485 6.71857 1.96993C6.71857 2.07501 6.76031 2.17578 6.83461 2.25008C6.90891 2.32438 7.00969 2.36613 7.11477 2.36613H9.021C9.12608 2.36613 9.22685 2.32438 9.30115 2.25008C9.37545 2.17578 9.4172 2.07501 9.4172 1.96993C9.4172 1.86485 9.37545 1.76408 9.30115 1.68977C9.22685 1.61547 9.12608 1.57373 9.021 1.57373ZM16.6571 1.57373H14.7509C14.6458 1.57373 14.5451 1.61547 14.4708 1.68977C14.3965 1.76408 14.3547 1.86485 14.3547 1.96993C14.3547 2.07501 14.3965 2.17578 14.4708 2.25008C14.5451 2.32438 14.6458 2.36613 14.7509 2.36613H16.6571C16.7622 2.36613 16.863 2.32438 16.9373 2.25008C17.0116 2.17578 17.0533 2.07501 17.0533 1.96993C17.0533 1.86485 17.0116 1.76408 16.9373 1.68977C16.863 1.61547 16.7622 1.57373 16.6571 1.57373Z" fill="white"></path>
  </symbol>
  <symbol fill="none" xmlns="http://www.w3.org/2000/svg" viewBox="0 0 25 24" id="tshirt">
    <path d="M18.6914 11.3C19.1914 11.4 19.6914 11.5 20.1914 11.5C21.0914 11.5 21.8914 11.3 22.6914 11C22.6914 11 21.6914 5 20.6914 3.5C19.4914 2.1 17.9914 1 16.1914 0.5C15.6914 1 13.1914 1.5 12.1914 1.5C11.1914 1.5 8.69141 1 8.19141 0.5C6.39141 1 4.89141 2.1 3.69141 3.5C2.69141 5 1.69141 11 1.69141 11C2.49141 11.3 3.29141 11.5 4.19141 11.5C4.69141 11.5 5.19141 11.4 5.59141 11.3" stroke="white" stroke-linecap="round" stroke-linejoin="round"></path>
    <path d="M19.1914 6C19.1914 6 18.6914 6.5 18.6914 8.5V22.5C18.6914 22.5 17.1914 23.5 12.1914 23.5C7.19141 23.5 5.69141 22.5 5.69141 22.5V8.5C5.69141 6.5 5.19141 6 5.19141 6M16.1914 0.5C15.5914 2.2 13.9914 3.4 12.1914 3.5C10.3914 3.4 8.79141 2.2 8.19141 0.5" stroke="white" stroke-linecap="round" stroke-linejoin="round"></path>
  </symbol>
  <symbol fill="none" xmlns="http://www.w3.org/2000/svg" viewBox="0 0 22 24" id="dress">
    <path d="M0.621955 21.7924C1.51818 22.1848 2.41615 22.5205 3.31527 22.8079C3.36652 22.8485 3.42567 22.8803 3.49305 22.8975C3.53289 22.9076 3.57274 22.9123 3.61211 22.9123C3.62345 22.9123 3.63373 22.9076 3.64495 22.9068C4.8528 23.2755 6.06259 23.5508 7.27358 23.7301C7.31415 23.745 7.35391 23.7621 7.39914 23.7656C7.41133 23.7666 7.42399 23.767 7.43617 23.767C7.45211 23.767 7.46597 23.7599 7.48155 23.7583C8.54283 23.906 9.60476 23.988 10.6668 23.9902C10.6834 23.992 10.6979 24 10.7151 24C10.7322 24 10.7467 23.992 10.7634 23.9902C11.8255 23.988 12.8875 23.9059 13.9489 23.7583C13.9645 23.7599 13.9785 23.767 13.9945 23.767C14.0066 23.767 14.0193 23.7666 14.032 23.7656C14.0774 23.7621 14.1173 23.7449 14.158 23.7299C15.3685 23.5506 16.5779 23.2753 17.7852 22.9068C17.7964 22.9076 17.8067 22.9123 17.818 22.9123C17.8574 22.9123 17.8973 22.9076 17.9371 22.8975C18.0045 22.8803 18.0637 22.8485 18.1149 22.8079C19.014 22.5205 19.912 22.1848 20.8082 21.7924C21.0491 21.687 21.1602 21.4071 21.0576 21.1652L15.0805 7.08867C15.044 6.80019 15.0268 6.51779 15.0195 6.24047L16.9274 6.35672C16.9373 6.35742 16.9471 6.35766 16.9565 6.35766C17.1627 6.35766 17.3479 6.22523 17.4126 6.02719C17.8457 4.70672 17.8213 3.5843 17.3413 2.69086C16.7913 1.66784 15.8325 1.31944 15.6296 1.25522L14.5229 0.760957L13.6565 0.0986719C13.6434 0.0886524 13.6265 0.0872168 13.6126 0.0786914C13.577 0.0566016 13.5405 0.039375 13.4994 0.0271582C13.4718 0.0188965 13.4456 0.0136816 13.417 0.0105176C13.3991 0.00849611 13.3834 0 13.3649 0H8.06524C8.04654 0 8.03067 0.00855469 8.01253 0.0106348C7.98411 0.0137988 7.95819 0.0189844 7.93079 0.0271582C7.88975 0.039375 7.85321 0.0566309 7.81759 0.0786914C7.80367 0.0872168 7.78677 0.0886524 7.77367 0.0986719L6.90766 0.760986L5.80106 1.25522C5.59815 1.31944 4.63935 1.66787 4.0893 2.69109C3.60883 3.58453 3.58492 4.70695 4.01805 6.02719C4.0832 6.22523 4.26789 6.35766 4.47414 6.35766C4.48352 6.35766 4.49336 6.35742 4.5032 6.35672L6.41078 6.24047C6.40346 6.51779 6.38623 6.80019 6.34961 7.08867L0.37258 21.1652C0.269924 21.4073 0.381017 21.687 0.621955 21.7924ZM16.4957 3.14555C16.807 3.72445 16.8435 4.47328 16.6049 5.37539L15.0439 5.28029C15.1449 3.9755 15.49 2.90314 15.7068 2.34234C15.9568 2.48854 16.2763 2.73747 16.4957 3.14555ZM10.7151 1.73024C10.3304 1.60277 9.64967 1.32615 9.13185 0.96H12.2985C11.7808 1.32612 11.1001 1.60274 10.7151 1.73024ZM7.94524 1.17609C8.44586 1.77117 9.25586 2.18789 9.85023 2.43352C9.49539 2.73492 9.0168 3.01594 8.65492 2.74781C8.06477 2.30977 7.80274 1.70695 7.69539 1.36711L7.94524 1.17609ZM13.4849 1.17609L13.7352 1.36711C13.6279 1.70719 13.3659 2.30977 12.7752 2.74781C12.4134 3.01594 11.9348 2.73492 11.5799 2.43352C12.1743 2.18789 12.9848 1.77117 13.4849 1.17609ZM4.92789 3.1582C5.147 2.74395 5.47076 2.49129 5.72418 2.34311C5.94098 2.90414 6.28574 3.97617 6.38647 5.28029L4.8257 5.37539C4.58899 4.47984 4.6232 3.73523 4.92789 3.1582ZM7.25899 7.40344C7.27539 7.36406 7.28711 7.32258 7.29274 7.28016C7.61383 4.8982 6.9543 2.83477 6.60274 1.94859L6.84379 1.84099C7.02174 2.32075 7.37951 2.99684 8.08305 3.51891C8.3732 3.7343 8.67508 3.82289 8.9732 3.82289C9.62365 3.82289 10.2563 3.40104 10.7151 2.95107C11.1739 3.40104 11.8065 3.82289 12.457 3.82289C12.7551 3.82289 13.057 3.7343 13.3471 3.51891C14.0509 2.99684 14.4088 2.32072 14.5868 1.84096L14.8279 1.94859C14.5571 2.63121 14.1053 4.01364 14.0578 5.7007C14.0578 5.70079 14.0577 5.70085 14.0577 5.70094C14.0577 5.70108 14.0578 5.70117 14.0578 5.70132C14.0436 6.20423 14.0638 6.73304 14.1374 7.27992C14.143 7.32258 14.1548 7.36406 14.1712 7.40344L19.9865 21.0998C19.3746 21.3555 18.7617 21.5785 18.1483 21.7833L17.114 17.7251C17.0484 17.468 16.7863 17.3137 16.5304 17.3784C16.2735 17.4441 16.1184 17.7054 16.184 17.9623L17.2311 22.0707C16.2992 22.3431 15.3662 22.5593 14.4323 22.7145L13.9785 16.8173C13.9584 16.5534 13.7334 16.3545 13.4629 16.3755C13.199 16.3959 13.0012 16.6266 13.0213 16.8909L13.4799 22.8503C12.7185 22.9444 11.9569 22.9994 11.1951 23.0158V15.3696C11.1951 15.1045 10.9804 14.8896 10.7151 14.8896C10.4498 14.8896 10.2351 15.1045 10.2351 15.3696V23.0157C9.47345 22.9994 8.71194 22.9444 7.95071 22.8503L8.40883 16.8909C8.42899 16.6266 8.23117 16.3959 7.9668 16.3755C7.70336 16.354 7.4718 16.5534 7.45164 16.8173L6.9983 22.7145C6.06429 22.5592 5.13107 22.343 4.19907 22.0705L5.24617 17.9623C5.3118 17.7054 5.15664 17.4441 4.89977 17.3784C4.64242 17.3133 4.38133 17.468 4.31617 17.7251L3.28188 21.7831C2.66852 21.5782 2.0556 21.3553 1.44367 21.0996L7.25899 7.40344Z" fill="white"></path>
    <path d="M10.7142 6.3593C10.8435 6.3593 10.9635 6.30656 11.0549 6.21539C11.1459 6.12891 11.1942 6.00422 11.1942 5.8793C11.1942 5.74969 11.1459 5.625 11.0549 5.53852C10.8773 5.36086 10.5557 5.36086 10.3729 5.53852C10.2867 5.625 10.2342 5.74969 10.2342 5.8793C10.2342 6.00422 10.2867 6.12891 10.3729 6.21539C10.4643 6.30656 10.589 6.3593 10.7142 6.3593ZM10.7142 9.04266C10.8388 9.04266 10.9635 8.98969 11.0549 8.89852C11.1459 8.81227 11.1942 8.68734 11.1942 8.55773C11.1942 8.43305 11.1459 8.30812 11.0549 8.22187C10.8773 8.04422 10.5557 8.0393 10.3729 8.22187C10.2867 8.30812 10.2342 8.43305 10.2342 8.55773C10.2342 8.68734 10.2867 8.81227 10.3729 8.89852C10.4643 8.98969 10.589 9.04266 10.7142 9.04266ZM10.7142 11.7209C10.8435 11.7209 10.9635 11.673 11.0549 11.5819C11.1459 11.4905 11.1942 11.3705 11.1942 11.2409C11.1942 11.1785 11.1843 11.1162 11.1604 11.0585C11.1313 11.0009 11.0981 10.9481 11.0549 10.905C10.8773 10.7227 10.5557 10.7227 10.3729 10.905C10.3298 10.9481 10.2965 11.0009 10.2721 11.0585C10.2482 11.1162 10.2342 11.1785 10.2342 11.2409C10.2342 11.3705 10.2867 11.4905 10.3729 11.5819C10.4643 11.673 10.589 11.7209 10.7142 11.7209Z" fill="white"></path>
  </symbol>
  <symbol fill="none" xmlns="http://www.w3.org/2000/svg" viewBox="0 0 25 24" id="hoodie">
    <path d="M19.4279 7.43668C19.2958 5.97372 18.3643 4.9779 17.0071 4.69929C17.0335 3.58625 16.7765 2.83772 16.7646 2.80364C16.7535 2.77241 16.7381 2.7429 16.7187 2.71598C15.2829 0.719463 12.4109 0.867637 12.3034 0.874593C8.43975 0.962246 7.53645 2.55355 7.48601 2.6499C7.22062 3.26903 7.17784 4.2099 7.17471 4.69233H7.17402C5.86828 4.95668 5.03001 5.72885 4.94097 7.03668L2.96532 20.5219C2.95141 20.6193 2.98271 20.7236 3.0488 20.8002C3.10445 20.8628 3.17749 20.901 3.25749 20.9149V21.8889C3.25749 22.0802 3.41054 22.2367 3.60532 22.2367H5.05575C5.24706 22.2367 5.40358 22.0802 5.40358 21.8889V20.901C5.52532 20.8697 5.61923 20.7723 5.64706 20.6436L7.07662 13.9306L7.14967 20.3515C7.15314 20.4976 7.24358 20.6262 7.38271 20.6749C7.52532 20.7236 7.66445 20.7723 7.80706 20.8176V22.3689C7.80706 22.5323 7.92184 22.6749 8.08532 22.7097C9.41054 22.988 10.7636 23.1306 12.1375 23.1306C13.5114 23.1306 14.9062 22.988 16.3079 22.7097C16.4714 22.6749 16.5862 22.5323 16.5862 22.3689V20.7758C16.6905 20.7445 16.7984 20.7132 16.9027 20.6784C17.0488 20.6332 17.1462 20.501 17.1462 20.348L17.1636 13.9341L18.694 20.6471C18.7288 20.8071 18.8714 20.9184 19.0314 20.9184V21.8889C19.0314 22.0802 19.1879 22.2367 19.3792 22.2367H20.8297C21.021 22.2367 21.1775 22.0802 21.1775 21.8889V20.901C21.2401 20.8836 21.2923 20.8489 21.334 20.7967C21.4001 20.7202 21.4314 20.6193 21.4175 20.5184L19.4279 7.43668ZM16.3086 4.31007C16.3138 4.45025 16.3128 4.6019 16.3072 4.75877C15.7333 5.04746 15.2085 5.27703 14.7392 5.46138C15.3758 5.02659 15.9392 4.59877 16.3045 4.31355L16.3086 4.31007ZM12.0505 6.18833C10.6871 5.41616 9.30271 4.59529 8.34619 3.75007C9.44532 3.2979 12.4471 2.35181 15.8488 3.78485C15.0488 4.41094 13.3097 5.6979 12.0505 6.18833ZM8.11628 2.94555C8.20149 2.81894 9.08149 1.64329 12.3319 1.5692C12.3577 1.56851 14.8989 1.44085 16.1222 3.07877L16.1424 3.15042C12.4495 1.58346 9.24358 2.60885 8.05784 3.1132C8.07482 3.05671 8.09431 3.001 8.11628 2.94625V2.94555ZM7.88323 4.27077L7.88358 4.27112C8.45749 4.77546 9.16358 5.2659 9.92532 5.73894C9.21337 5.48312 8.52565 5.16429 7.87036 4.78625C7.87036 4.65964 7.87245 4.47842 7.88323 4.27112V4.27077ZM4.70793 21.541H3.95315V20.9184H4.70793V21.541ZM15.8905 22.0802C13.3723 22.5497 10.8888 22.5532 8.50271 22.0836V21.0193C9.65054 21.3219 10.8262 21.4749 12.0262 21.4749C13.2923 21.4749 14.5827 21.308 15.8905 20.9671V22.0802ZM20.4818 21.541H19.7271V20.9184H20.4818V21.541ZM19.3097 20.2228L17.1671 10.8036C17.1253 10.6297 16.9688 10.5149 16.7879 10.5323C16.614 10.5532 16.4784 10.7028 16.4784 10.8767L16.4505 20.0906C13.5521 20.9741 10.6498 21.0311 7.85923 20.101C7.85228 20.101 7.8488 20.101 7.84184 20.0976L7.73401 10.7897C7.73054 10.6158 7.59836 10.4662 7.42097 10.4489C7.24706 10.4315 7.08358 10.5497 7.04532 10.7236L5.02445 20.2228H3.71315L5.63315 7.1132C5.70549 6.04468 6.37088 5.53059 7.45228 5.34972C7.80358 5.55842 8.9201 6.19146 10.301 6.59842V10.668C10.301 10.8593 10.4575 11.0158 10.6488 11.0158C10.8401 11.0158 10.9966 10.8593 10.9966 10.668V6.77581C11.8655 6.96364 12.0238 6.98451 13.0627 6.74103V10.668C13.0627 10.8593 13.2192 11.0158 13.4105 11.0158C13.6053 11.0158 13.7584 10.8593 13.7584 10.668V6.54625C14.5166 6.31668 15.501 5.94451 16.6905 5.34625C17.8878 5.5299 18.6231 6.30764 18.7392 7.52016L20.6662 20.2228H19.3097Z" fill="white"></path>
    <path d="M15.7375 15.9617C14.7114 15.3009 14.7288 13.5548 14.7288 13.5374C14.7288 13.4435 14.694 13.3531 14.6279 13.287C14.5618 13.2209 14.4749 13.1826 14.381 13.1826H9.81402C9.7201 13.1826 9.62967 13.2209 9.56706 13.287C9.50097 13.3531 9.46619 13.4435 9.46619 13.5374C9.49749 15.3739 8.59315 15.9304 8.55836 15.9478C8.45054 16.0104 8.38097 16.1252 8.38097 16.2539V17.4191C8.38097 17.6104 8.53749 17.767 8.7288 17.767H15.5462C15.741 17.767 15.894 17.6104 15.894 17.4191V16.2539C15.8943 16.196 15.8801 16.139 15.8528 16.088C15.8255 16.037 15.7858 15.9936 15.7375 15.9617ZM15.1984 17.0713H9.07662V16.4313C9.41054 16.16 10.0888 15.4226 10.1584 13.8783H14.0471C14.0958 14.4904 14.3045 15.7357 15.1984 16.4313V17.0713Z" fill="white"></path>
  </symbol>
  <symbol fill="none" xmlns="http://www.w3.org/2000/svg" viewBox="0 0 12 24" id="komb">
    <path d="M10.6052 12.2668C10.5885 11.9576 10.5425 11.6506 10.4676 11.3501L8.81758 4.734C8.78215 4.59178 8.70014 4.46551 8.5846 4.37532C8.46906 4.28513 8.32665 4.23622 8.18008 4.23637H7.71808L7.73214 3.99563H7.90577C8.01252 3.99559 8.11552 3.95622 8.19508 3.88504C8.27464 3.81385 8.32517 3.71584 8.33702 3.60975L8.68746 0.48225C8.69424 0.421571 8.68814 0.360144 8.66956 0.301982C8.65098 0.243821 8.62034 0.190233 8.57964 0.14472C8.53894 0.099207 8.48909 0.0627923 8.43336 0.0378548C8.37763 0.0129174 8.31727 1.82068e-05 8.25621 0H7.36239C7.25564 3.18346e-05 7.15264 0.0394031 7.07309 0.110589C6.99353 0.181774 6.943 0.27978 6.93115 0.385875L6.58071 3.51319C6.5739 3.57388 6.57998 3.63533 6.59855 3.69351C6.61711 3.7517 6.64775 3.80531 6.68845 3.85084C6.72915 3.89638 6.77901 3.93281 6.83475 3.95776C6.8905 3.98271 6.95088 3.99561 7.01196 3.99563H7.16833L7.15427 4.23637H4.03652L4.02246 3.99563H4.17883C4.23991 3.99561 4.30029 3.98271 4.35604 3.95776C4.41178 3.93281 4.46164 3.89638 4.50234 3.85084C4.54304 3.80531 4.57368 3.7517 4.59225 3.69351C4.61081 3.63533 4.61689 3.57388 4.61008 3.51319L4.2604 0.385875C4.24854 0.27978 4.19801 0.181774 4.11845 0.110589C4.0389 0.0394031 3.9359 3.18346e-05 3.82915 0H2.93533C2.87425 4.17932e-05 2.81386 0.0129698 2.75812 0.0379396C2.70237 0.0629093 2.65252 0.099359 2.61182 0.144908C2.57112 0.190456 2.54049 0.244079 2.52192 0.302273C2.50336 0.360466 2.49728 0.421922 2.50408 0.482625L2.85415 3.60975C2.866 3.71584 2.91653 3.81385 2.99609 3.88504C3.07564 3.95622 3.17864 3.99559 3.2854 3.99563H3.45902L3.47308 4.23637H3.01033C2.86376 4.23622 2.72136 4.28513 2.60582 4.37532C2.49028 4.46551 2.40826 4.59178 2.37283 4.734L0.722833 11.3501C0.647971 11.6506 0.601887 11.9574 0.585208 12.2666L0.000957589 23.0329C-0.00386173 23.122 0.00954603 23.2112 0.040361 23.2949C0.071176 23.3787 0.118751 23.4553 0.180176 23.52C0.241602 23.5847 0.315587 23.6363 0.397608 23.6714C0.47963 23.7066 0.567963 23.7247 0.657208 23.7246H4.26246C4.42314 23.7246 4.57824 23.6656 4.69837 23.5589C4.81849 23.4522 4.89529 23.3051 4.91421 23.1456L5.59558 17.3964L6.27696 23.1461C6.29587 23.3057 6.37267 23.4528 6.4928 23.5595C6.61292 23.6662 6.76803 23.7251 6.92871 23.7251H10.5341C10.6234 23.7253 10.7117 23.7072 10.7937 23.672C10.8758 23.6368 10.9498 23.5853 11.0112 23.5206C11.0726 23.4558 11.1202 23.3792 11.151 23.2955C11.1818 23.2117 11.1952 23.1226 11.1904 23.0334L10.6052 12.2668ZM7.47715 0.5625H8.11258L7.79102 3.43313H7.15577L7.47715 0.5625ZM3.07858 0.5625H3.71402L4.0354 3.43313H3.40015L3.07858 0.5625ZM10.6018 23.1328C10.5931 23.1421 10.5825 23.1494 10.5708 23.1544C10.5591 23.1595 10.5465 23.1621 10.5338 23.1621H6.92871C6.90565 23.1622 6.88334 23.1539 6.86604 23.1386C6.84874 23.1234 6.83768 23.1023 6.83496 23.0794L6.06115 16.5443C6.04777 16.4302 5.99297 16.325 5.90715 16.2486C5.82132 16.1723 5.71045 16.1301 5.59558 16.1301C5.48071 16.1301 5.36984 16.1723 5.28402 16.2486C5.19819 16.325 5.14339 16.4302 5.13002 16.5443L4.35546 23.0794C4.35274 23.1023 4.34167 23.1234 4.32438 23.1386C4.30708 23.1539 4.28477 23.1622 4.26171 23.1621H0.65702C0.644271 23.1621 0.631652 23.1595 0.619935 23.1545C0.608218 23.1494 0.597648 23.1421 0.588873 23.1328C0.580098 23.1236 0.573301 23.1126 0.568899 23.1007C0.564497 23.0887 0.562582 23.076 0.56327 23.0632L1.14771 12.2964C1.16246 12.023 1.2032 11.7516 1.26939 11.4859L2.9194 4.86975C2.92442 4.84942 2.9361 4.83137 2.95259 4.81845C2.96907 4.80554 2.9894 4.79852 3.01033 4.7985H8.18083C8.20177 4.79852 8.2221 4.80554 8.23858 4.81845C8.25506 4.83137 8.26675 4.84942 8.27177 4.86975L9.92177 11.4859C9.98795 11.7517 10.0288 12.0231 10.0436 12.2966L10.6277 23.0629C10.6284 23.0757 10.6265 23.0885 10.622 23.1005C10.6176 23.1126 10.6107 23.1235 10.6018 23.1328Z" fill="white"></path>
    <path d="M7.30748 7.01471H3.88373C3.70968 7.01471 3.54276 7.08385 3.41969 7.20692C3.29662 7.32999 3.22748 7.49691 3.22748 7.67096V9.83096C3.22783 10.1561 3.35713 10.4678 3.58702 10.6977C3.81691 10.9276 4.12861 11.0569 4.45373 11.0572H6.73748C7.06259 11.0569 7.37429 10.9276 7.60418 10.6977C7.83408 10.4678 7.96338 10.1561 7.96373 9.83096V7.67096C7.96373 7.58478 7.94675 7.49944 7.91377 7.41982C7.88079 7.3402 7.83246 7.26786 7.77152 7.20692C7.71058 7.14598 7.63823 7.09764 7.55861 7.06466C7.47899 7.03168 7.39366 7.01471 7.30748 7.01471ZM7.40123 9.83096C7.40108 10.0069 7.3311 10.1757 7.20666 10.3001C7.08221 10.4246 6.91347 10.4946 6.73748 10.4947H4.45373C4.27774 10.4946 4.109 10.4246 3.98455 10.3001C3.86011 10.1757 3.79013 10.0069 3.78998 9.83096V7.67096C3.78998 7.64609 3.79985 7.62225 3.81744 7.60467C3.83502 7.58708 3.85886 7.57721 3.88373 7.57721H7.30748C7.33234 7.57721 7.35619 7.58708 7.37377 7.60467C7.39135 7.62225 7.40123 7.64609 7.40123 7.67096V9.83096ZM8.05185 6.15071C6.42553 5.87489 4.76437 5.87489 3.13804 6.15071C3.06853 6.16246 3.00596 6.1999 2.96274 6.25559C2.91952 6.31129 2.89879 6.38119 2.90466 6.45145C2.91054 6.5217 2.94258 6.58719 2.99445 6.63494C3.04632 6.68269 3.11423 6.70922 3.18473 6.70927C3.20063 6.70928 3.2165 6.7079 3.23217 6.70514C4.79638 6.43993 6.39408 6.43993 7.95829 6.70514C8.03186 6.71758 8.10736 6.70027 8.16818 6.65704C8.22899 6.61381 8.27014 6.54819 8.28257 6.47461C8.295 6.40104 8.2777 6.32554 8.23447 6.26473C8.19123 6.20391 8.12561 6.16276 8.05204 6.15033L8.05185 6.15071Z" fill="white"></path>
    <path d="M6.9319 8.13867H4.25928C4.18469 8.13867 4.11315 8.1683 4.0604 8.22105C4.00766 8.27379 3.97803 8.34533 3.97803 8.41992C3.97803 8.49451 4.00766 8.56605 4.0604 8.6188C4.11315 8.67154 4.18469 8.70117 4.25928 8.70117H6.9319C7.00649 8.70117 7.07803 8.67154 7.13078 8.6188C7.18352 8.56605 7.21315 8.49451 7.21315 8.41992C7.21315 8.34533 7.18352 8.27379 7.13078 8.22105C7.07803 8.1683 7.00649 8.13867 6.9319 8.13867Z" fill="white"></path>
  </symbol>
  <symbol fill="none" xmlns="http://www.w3.org/2000/svg" viewBox="0 0 21 24" id="kost">
    <path d="M16.2116 18.4045C16.2301 18.5357 16.1958 18.669 16.1161 18.7749C16.0364 18.8808 15.918 18.9508 15.7867 18.9694C15.7668 18.9694 15.7415 18.9747 15.7164 18.9747C15.5962 18.9738 15.4802 18.9299 15.3894 18.851C15.2986 18.7721 15.239 18.6634 15.2213 18.5445C15.2119 18.4794 15.2154 18.4132 15.2317 18.3495C15.248 18.2858 15.2768 18.226 15.3163 18.1735C15.3558 18.121 15.4053 18.0769 15.462 18.0436C15.5187 18.0103 15.5814 17.9886 15.6465 17.9796H15.648C15.9177 17.9454 16.1768 18.135 16.2116 18.4045ZM20.9013 6.18535L19.9015 8.68534C19.8642 8.77805 19.8002 8.85753 19.7174 8.91355C19.6347 8.96958 19.5371 8.99961 19.4372 8.99978C19.3342 8.99978 19.2321 8.96821 19.1466 8.90658L16.4364 6.97055L16.2602 8.7181C16.2602 8.72316 16.2607 8.72822 16.2605 8.73328L16.094 11.2973C16.0714 11.5438 16.0484 11.7683 16.0261 11.9872C15.9383 12.8427 15.8626 13.5814 15.9353 14.4583C15.9359 14.464 15.9347 14.4696 15.935 14.4753C15.9356 14.4836 15.9374 14.4914 15.9374 14.4997V16.4997C15.9374 16.7519 15.7504 16.9583 15.5077 16.9925C15.4848 16.9958 15.4616 16.9997 15.4374 16.9997H14.4376C14.3049 16.9997 14.1777 16.947 14.084 16.8532C13.9902 16.7594 13.9375 16.6322 13.9375 16.4996C13.9375 16.367 13.9902 16.2398 14.084 16.146C14.1777 16.0522 14.3049 15.9995 14.4376 15.9995H14.9375V14.9996H6.93671L6.93344 15.9995H7.43665C7.56928 15.9995 7.69648 16.0522 7.79027 16.146C7.88405 16.2398 7.93674 16.367 7.93674 16.4996C7.93674 16.6322 7.88405 16.7594 7.79027 16.8532C7.69648 16.947 7.56928 16.9997 7.43665 16.9997H6.87031L6.30159 20.9998H9.92681C10.0338 20.8456 10.1766 20.7195 10.3429 20.6325C10.5092 20.5455 10.6942 20.5 10.8819 20.5C11.0696 20.5 11.2545 20.5455 11.4208 20.6325C11.5872 20.7195 11.7299 20.8456 11.8369 20.9998H15.5717L15.5068 20.5249C15.4971 20.4599 15.5005 20.3937 15.5169 20.3302C15.5332 20.2666 15.5621 20.207 15.6018 20.1547C15.6816 20.049 15.8 19.979 15.9311 19.96H15.932C16.2018 19.9201 16.457 20.1148 16.4969 20.3849L16.6469 21.4297V21.4333L16.9319 23.4292C16.9421 23.5001 16.9369 23.5725 16.9167 23.6412C16.8965 23.71 16.8617 23.7736 16.8148 23.8278C16.7678 23.8819 16.7097 23.9253 16.6445 23.955C16.5793 23.9848 16.5084 24.0001 16.4367 24H11.9367C11.8211 23.9999 11.7092 23.9598 11.6198 23.8865C11.5305 23.8133 11.4693 23.7113 11.4466 23.598L11.0634 21.6825C11.0588 21.6704 11.0545 21.6582 11.0506 21.6459L11.0464 21.6346C11.0023 21.4723 10.7805 21.4658 10.7206 21.6266L10.7194 21.6352C10.7133 21.6547 10.7067 21.6741 10.6995 21.6933L10.4315 23.5706C10.4145 23.6898 10.3551 23.7988 10.2642 23.8777C10.1733 23.9566 10.057 24 9.93664 24H5.4366C5.365 23.9999 5.29426 23.9844 5.22915 23.9547C5.16404 23.9249 5.10608 23.8815 5.05919 23.8273C5.01231 23.7732 4.97758 23.7097 4.95737 23.641C4.93716 23.5723 4.93192 23.5001 4.94202 23.4292L5.22638 21.4375V21.4297L5.93654 16.4598V14.5C5.93654 14.4928 5.93862 14.486 5.93892 14.4791C5.93922 14.472 5.93773 14.4654 5.93833 14.4586C6.01128 13.5817 5.93535 12.8427 5.84781 11.9875C5.82548 11.7686 5.80225 11.5441 5.78081 11.3107L5.70965 10.2185V10.2182L5.50985 7.14027C5.50896 7.13491 5.50717 7.12985 5.50658 7.12478L5.48752 6.93452L2.72699 8.90658C2.66548 8.95088 2.59464 8.98052 2.51991 8.99321C2.44518 9.00591 2.36853 9.00133 2.29584 8.97983C2.22316 8.95835 2.15628 8.92071 2.10023 8.86971C2.04418 8.8187 2.0004 8.75567 1.97217 8.68534L0.972296 6.18535C0.934352 6.09058 0.926369 5.98645 0.949421 5.887C0.972474 5.78755 1.02545 5.69756 1.10123 5.62914C4.10502 2.9103 4.92029 2.18585 5.16743 1.97831C5.22698 1.92829 5.25318 1.90864 5.26926 1.89822C5.27551 1.89405 5.27998 1.88809 5.28653 1.88452C5.74151 1.6344 6.24651 1.49981 6.7518 1.49981H7.6692L8.52079 0.222426C8.54134 0.191757 8.56546 0.164661 8.59166 0.139947L8.60476 0.127143C8.63037 0.104514 8.65806 0.0848615 8.68754 0.0675914C8.69349 0.0640183 8.69975 0.0610407 8.7057 0.0577654C8.73637 0.0416864 8.76823 0.0282871 8.80188 0.0187588L8.8126 0.0163769C8.84446 0.00803959 8.87721 0.00357327 8.91056 0.00178671C8.91473 0.00148895 8.9189 0 8.92307 0L8.92843 0.000595476L8.93706 0H12.9372L12.9446 0.000595476L12.9509 0C12.955 0.000297759 12.9592 0.00178671 12.9634 0.00178671C12.997 0.00357327 13.0301 0.00833735 13.0619 0.0163769L13.0723 0.0187588C13.1447 0.0402922 13.2117 0.0771559 13.2686 0.126846C13.2736 0.131312 13.2784 0.136374 13.2832 0.141138C13.3088 0.165554 13.3326 0.192352 13.3528 0.222426L13.3531 0.222724L14.2047 1.50011H15.1221C15.6518 1.50011 16.1821 1.65018 16.652 1.92501C16.6568 1.92799 16.6603 1.93216 16.6648 1.93514C16.6773 1.94348 16.697 1.95866 16.7437 1.99797C16.9527 2.17513 17.704 2.84658 20.7733 5.62974C20.9275 5.76968 20.9787 5.99122 20.9013 6.18535ZM19.2095 7.72298L19.8437 6.13682C18.83 5.21719 17.8148 4.2992 16.7982 3.38284L16.552 5.82477L19.2095 7.72298ZM5.36574 5.79261L5.12812 3.34503C4.09338 4.27328 3.06075 5.20388 2.03023 6.13682L2.66446 7.72239L5.36574 5.79261ZM8.53777 1.99945L8.51365 2.03578L8.7456 2.49969L9.07373 3.15565L9.7297 2.49969L9.77674 2.45294L9.437 1.99975L9.06182 1.49981L8.96058 1.36493L8.87096 1.49981L8.53777 1.99945ZM9.97713 0.999578L10.377 1.49952L10.7769 1.99945L10.9368 2.19925L11.0964 1.99945L11.4963 1.49952L11.8962 0.999578H9.97713ZM13.0027 1.49952L12.913 1.36463L12.8121 1.49952L12.4369 1.99945L12.0972 2.45264L12.1439 2.49939L12.7999 3.15536L13.128 2.49939L13.36 2.03548L13.3359 1.99916L13.0027 1.49952ZM6.7518 2.49939C6.51687 2.49939 6.2873 2.53959 6.06279 2.62415L6.0619 2.62445L6.09078 2.91298L6.4862 6.84608C6.58059 6.93988 6.71756 7.07178 6.89175 7.22989C7.54593 7.81678 8.89776 8.91819 10.4071 9.50061C10.4592 9.52026 10.511 9.54051 10.5634 9.55897C10.5703 9.56135 10.5768 9.56343 10.5834 9.56611C11.1691 9.77038 11.7786 9.89305 12.3869 9.88144C12.4167 9.88055 12.4462 9.87995 12.4756 9.87876C12.5523 9.87554 12.6289 9.86998 12.7052 9.86209L12.7564 9.85643C12.9092 9.8388 13.0607 9.81185 13.2102 9.77574L13.2573 9.76412C13.7054 9.648 14.1297 9.44671 14.5278 9.16146C14.54 9.15253 14.5522 9.14419 14.5644 9.13496C14.6013 9.10786 14.6377 9.07958 14.674 9.05099C14.7011 9.02955 14.7285 9.00841 14.7553 8.98638C14.8156 8.93655 14.8749 8.88542 14.933 8.83303C14.9503 8.81755 14.9673 8.80117 14.9846 8.78539C15.0552 8.7199 15.1239 8.65238 15.1906 8.58291L15.2329 8.53914C15.2493 8.52157 15.2653 8.50282 15.2817 8.48495L15.5131 6.17761L15.8665 2.64887L15.8618 2.64708C15.6273 2.54918 15.3758 2.49878 15.1218 2.4988H14.2458L13.3841 4.22253C13.3485 4.29328 13.2967 4.35459 13.2328 4.40142C13.169 4.44826 13.0949 4.47928 13.0168 4.49195C12.9386 4.50462 12.8585 4.49857 12.7832 4.47431C12.7078 4.45004 12.6392 4.40824 12.5831 4.35235L11.4228 3.19168L11.3272 3.31138C11.2803 3.36992 11.2209 3.41717 11.1534 3.44965C11.0858 3.48212 11.0118 3.49898 10.9368 3.49898C10.8618 3.49898 10.7878 3.48212 10.7203 3.44965C10.6527 3.41717 10.5933 3.36992 10.5465 3.31138L10.4509 3.19168L9.2902 4.35324C9.23428 4.40938 9.16578 4.45138 9.09039 4.47577C9.01499 4.50016 8.93487 4.50623 8.85667 4.49349C8.77849 4.48067 8.70446 4.44952 8.64064 4.40258C8.57682 4.35563 8.52504 4.29424 8.48953 4.22342L7.62781 2.49969H6.7518V2.49939ZM9.19284 13.8738C9.14311 13.8396 9.09279 13.8059 9.04396 13.7711C8.96118 13.7121 8.88108 13.6514 8.80069 13.5909C8.7593 13.56 8.71731 13.5296 8.67682 13.498C8.5832 13.425 8.49059 13.3506 8.39901 13.275C8.3743 13.2548 8.34899 13.2351 8.32457 13.2149C8.09667 13.0243 7.87521 12.8262 7.66057 12.6208C7.63139 12.5928 7.60399 12.5648 7.57511 12.5369C7.50097 12.4645 7.42683 12.3924 7.35536 12.3198C7.31695 12.2808 7.28033 12.2415 7.24251 12.2025C7.18356 12.1411 7.1243 12.0801 7.06713 12.0185C7.02434 11.9723 6.98196 11.9257 6.93999 11.8788C6.90336 11.8383 6.86555 11.7978 6.82952 11.7576L6.84262 11.8848C6.91468 12.5863 6.98346 13.2562 6.96441 14H9.37506C9.31313 13.9587 9.25358 13.9158 9.19284 13.8738ZM14.9089 13.9998C14.8899 13.2559 14.9586 12.586 15.031 11.8845C15.053 11.6695 15.0754 11.4494 15.0962 11.2196L15.1802 9.9264C15.151 9.94844 15.1203 9.9669 15.0909 9.98804C15.0804 9.99548 15.07 10.002 15.0599 10.0095C14.546 10.3704 13.9936 10.6196 13.4064 10.7563L13.3621 10.7664C13.11 10.8227 12.8538 10.8582 12.5959 10.8724C12.5462 10.8754 12.4971 10.8807 12.447 10.8819C12.4003 10.8828 12.3539 10.8834 12.3074 10.8834C11.5109 10.8834 10.7281 10.6964 9.99232 10.4109C9.94438 10.3924 9.89585 10.3751 9.8485 10.3558C9.80592 10.3382 9.76394 10.3197 9.72166 10.3019C8.81915 9.91658 7.99852 9.39252 7.32827 8.88961C7.07522 8.69962 6.82806 8.50192 6.58714 8.29677L6.69821 10.0062V10.0077L6.74972 10.0762L6.80957 10.1557L6.92867 10.3105L6.99865 10.3998C7.04033 10.4522 7.08321 10.5055 7.12728 10.5597L7.20827 10.6583C7.25264 10.7119 7.29849 10.7661 7.34524 10.8212C7.37561 10.8566 7.40568 10.8923 7.43725 10.9284C7.48429 10.9826 7.53313 11.0373 7.58255 11.0927L7.68439 11.2062C7.73441 11.261 7.78652 11.3163 7.83863 11.3717C7.87585 11.411 7.91217 11.4503 7.95058 11.4899C8.00359 11.5447 8.05807 11.5995 8.11316 11.6546C8.15366 11.6951 8.19356 11.7359 8.23494 11.7764C8.29062 11.8309 8.34839 11.8851 8.40586 11.9393C8.44933 11.9803 8.49221 12.0217 8.53657 12.0628C8.59583 12.117 8.65717 12.1709 8.7185 12.2248C8.76406 12.2653 8.80902 12.3058 8.85577 12.346C8.9192 12.4005 8.985 12.4538 9.05051 12.5077C9.09755 12.5464 9.14371 12.5857 9.19194 12.6241C9.2634 12.681 9.33755 12.7361 9.41109 12.7917C9.45576 12.8257 9.49893 12.8602 9.54449 12.8936C9.6633 12.9808 9.78478 13.066 9.90895 13.1491C9.95183 13.1779 9.99679 13.2044 10.0403 13.2327C10.1236 13.2866 10.207 13.3411 10.2931 13.3929C10.3496 13.4269 10.4086 13.459 10.4664 13.4921C10.5414 13.5352 10.6158 13.5793 10.6924 13.6204C10.7549 13.6541 10.8195 13.6847 10.8829 13.7172C10.9574 13.7547 11.0312 13.7931 11.1074 13.8288C11.1735 13.8598 11.2417 13.8881 11.309 13.9176C11.3718 13.945 11.4332 13.9741 11.4969 14H14.9089V13.9998ZM9.64573 21.9997H6.15599L6.01306 22.9995H9.5031L9.64573 21.9997ZM15.7176 21.9997H12.1466L12.3464 22.9995H15.86L15.7176 21.9997Z" fill="white"></path>
  </symbol>
  <symbol fill="none" xmlns="http://www.w3.org/2000/svg" viewBox="0 0 30 30" id="menu">
    <path d="M25.0625 13.75H4.9375C4.28166 13.75 3.75 14.2817 3.75 14.9375V15.0625C3.75 15.7183 4.28166 16.25 4.9375 16.25H25.0625C25.7183 16.25 26.25 15.7183 26.25 15.0625V14.9375C26.25 14.2817 25.7183 13.75 25.0625 13.75Z" fill="white"></path>
    <path d="M25.0625 20H4.9375C4.28166 20 3.75 20.5317 3.75 21.1875V21.3125C3.75 21.9683 4.28166 22.5 4.9375 22.5H25.0625C25.7183 22.5 26.25 21.9683 26.25 21.3125V21.1875C26.25 20.5317 25.7183 20 25.0625 20Z" fill="white"></path>
    <path d="M25.0625 7.5H4.9375C4.28166 7.5 3.75 8.03166 3.75 8.6875V8.8125C3.75 9.46834 4.28166 10 4.9375 10H25.0625C25.7183 10 26.25 9.46834 26.25 8.8125V8.6875C26.25 8.03166 25.7183 7.5 25.0625 7.5Z" fill="white"></path>
  </symbol>
  <symbol fill="none" xmlns="http://www.w3.org/2000/svg" viewBox="0 0 24 24" id="cart">
    <path d="M21.08 7.0001C20.9072 6.70072 20.6598 6.45123 20.3618 6.27597C20.0639 6.10071 19.7256 6.00566 19.38 6.0001H6.58L6 3.7401C5.9414 3.52194 5.81066 3.33004 5.62908 3.19567C5.44749 3.0613 5.22576 2.99236 5 3.0001H3C2.73478 3.0001 2.48043 3.10545 2.29289 3.29299C2.10536 3.48053 2 3.73488 2 4.0001C2 4.26531 2.10536 4.51967 2.29289 4.7072C2.48043 4.89474 2.73478 5.0001 3 5.0001H4.24L7 15.2601C7.0586 15.4783 7.18934 15.6702 7.37092 15.8045C7.55251 15.9389 7.77424 16.0078 8 16.0001H17C17.1847 15.9995 17.3656 15.9479 17.5227 15.8508C17.6798 15.7537 17.8069 15.615 17.89 15.4501L21.17 8.8901C21.3122 8.59211 21.3783 8.26357 21.3626 7.93378C21.3469 7.604 21.2498 7.28323 21.08 7.0001ZM16.38 14.0001H8.76L7.13 8.0001H19.38L16.38 14.0001Z" fill="white"></path>
    <path d="M7.5 21C8.32843 21 9 20.3284 9 19.5C9 18.6716 8.32843 18 7.5 18C6.67157 18 6 18.6716 6 19.5C6 20.3284 6.67157 21 7.5 21Z" fill="white"></path>
    <path d="M17.5 21C18.3284 21 19 20.3284 19 19.5C19 18.6716 18.3284 18 17.5 18C16.6716 18 16 18.6716 16 19.5C16 20.3284 16.6716 21 17.5 21Z" fill="white"></path>
  </symbol>
  <symbol fill="none" xmlns="http://www.w3.org/2000/svg" viewBox="0 0 40 40" id="disc">
    <path d="M34.5131 27.047L31.5062 25.5173L21.251 30.7311C20.4648 31.1311 19.5366 31.1311 18.7503 30.7311L8.49517 25.5173L5.48828 27.047C5.26127 27.1623 5.07063 27.3383 4.93747 27.5553C4.80431 27.7724 4.73382 28.022 4.73382 28.2766C4.73382 28.5313 4.80431 28.7809 4.93747 28.998C5.07063 29.215 5.26127 29.3909 5.48828 29.5063L18.7503 36.2497C19.5366 36.6497 20.4648 36.6497 21.251 36.2497L34.5131 29.5063C34.7401 29.3909 34.9307 29.215 35.0639 28.998C35.1971 28.7809 35.2676 28.5313 35.2676 28.2766C35.2676 28.022 35.1971 27.7724 35.0639 27.5553C34.9307 27.3383 34.7401 27.1623 34.5131 27.047Z" fill="white"></path>
    <path d="M34.5131 18.7711L31.5062 17.2415L21.251 22.4552C20.4648 22.8552 19.5366 22.8552 18.7503 22.4552L8.49517 17.2415L5.48828 18.7711C5.26127 18.8865 5.07063 19.0624 4.93747 19.2794C4.80431 19.4965 4.73382 19.7461 4.73382 20.0008C4.73382 20.2554 4.80431 20.5051 4.93747 20.7221C5.07063 20.9391 5.26127 21.1151 5.48828 21.2304L18.7503 27.9739C19.5366 28.3739 20.4648 28.3739 21.251 27.9739L34.5131 21.2304C34.7401 21.1151 34.9307 20.9391 35.0639 20.7221C35.1971 20.5051 35.2676 20.2554 35.2676 20.0008C35.2676 19.7461 35.1971 19.4965 35.0639 19.2794C34.9307 19.0624 34.7401 18.8865 34.5131 18.7711Z" fill="white"></path>
    <path d="M18.7503 3.75161L5.4869 10.4951C5.25989 10.6104 5.06925 10.7864 4.93609 11.0034C4.80293 11.2204 4.73244 11.4701 4.73244 11.7247C4.73244 11.9793 4.80293 12.229 4.93609 12.446C5.06925 12.6631 5.25989 12.839 5.4869 12.9544L18.749 19.6978C19.5352 20.0978 20.4634 20.0978 21.2497 19.6978L34.5117 12.9544C34.7387 12.839 34.9294 12.6631 35.0625 12.446C35.1957 12.229 35.2662 11.9793 35.2662 11.7247C35.2662 11.4701 35.1957 11.2204 35.0625 11.0034C34.9294 10.7864 34.7387 10.6104 34.5117 10.4951L21.2497 3.75161C20.8626 3.55445 20.4344 3.45166 20 3.45166C19.5656 3.45166 19.1374 3.55445 18.7503 3.75161Z" fill="white"></path>
  </symbol>
  <symbol fill="none" xmlns="http://www.w3.org/2000/svg" viewBox="0 0 40 40" id="quality">
    <path d="M18.3203 31.1484L15.7695 37.75L13.0742 34.4375L8.85156 35.0781L11.5352 28.1367C11.6289 28.1445 11.7188 28.1484 11.8125 28.1484H14.0664C14.6758 28.1484 15.25 28.3867 15.6836 28.8164L17.2773 30.4102L17.3281 30.4609C17.4766 30.6055 17.6367 30.7344 17.8047 30.8516C17.8164 30.8594 17.832 30.8711 17.8438 30.8789C17.9531 30.9531 18.0664 31.0234 18.1836 31.082C18.2305 31.1055 18.2773 31.1289 18.3203 31.1484ZM31.1484 35.0781L26.9258 34.4375L24.2305 37.75L21.6797 31.1484C21.7227 31.125 21.7695 31.1055 21.8125 31.082C21.9297 31.0195 22.043 30.9492 22.1484 30.8789C22.1641 30.8711 22.1758 30.8594 22.1914 30.8516C22.3594 30.7344 22.5195 30.6055 22.668 30.4609C22.6875 30.4453 22.7031 30.4297 22.7188 30.4102L24.3125 28.8164C24.7422 28.3867 25.3164 28.1484 25.9258 28.1484H28.1797C28.2734 28.1484 28.3672 28.1445 28.457 28.1367L31.1484 35.0781ZM33.1914 14.4961L31.5977 12.9023C30.8711 12.1758 30.4727 11.2109 30.4727 10.1836V7.92969C30.4727 6.66797 29.4453 5.64453 28.1875 5.64453H25.9336C24.9063 5.64453 23.9414 5.24219 23.2109 4.51562L21.6172 2.92188C21.1875 2.49219 20.6133 2.25391 20 2.25391C19.3906 2.25391 18.8164 2.49219 18.3867 2.92188L16.793 4.51562C16.0664 5.24219 15.1016 5.64453 14.0742 5.64453H11.8203C10.5586 5.64453 9.53516 6.66797 9.53516 7.92969V10.1875C9.53516 11.2148 9.13672 12.1797 8.41016 12.9062L6.81641 14.5C5.92578 15.3906 5.92578 16.8398 6.81641 17.7305L8.41016 19.3242C9.13672 20.0508 9.53516 21.0156 9.53516 22.043V24.2969C9.53516 25.5586 10.5586 26.582 11.8203 26.582H14.0742C14.4023 26.582 14.7266 26.625 15.0352 26.7031H15.0391C15.3906 26.7773 15.7266 26.9141 16.0273 27.1133C16.3047 27.2773 16.5625 27.4766 16.793 27.707L18.3867 29.3008C18.4922 29.4062 18.6055 29.5 18.7266 29.582C18.7773 29.6172 18.832 29.6523 18.8906 29.6836C18.9023 29.6914 18.9141 29.6953 18.9258 29.7031C19.6016 30.0625 20.4062 30.0625 21.0781 29.7031C21.0898 29.6953 21.1016 29.6914 21.1133 29.6836C21.168 29.6523 21.2227 29.6211 21.2734 29.5859C21.3984 29.5039 21.5117 29.4062 21.6172 29.3047L23.2109 27.7109C23.4414 27.4805 23.6992 27.2812 23.9727 27.1172C24.2734 26.918 24.6094 26.7773 24.9648 26.707C25.2773 26.6289 25.5977 26.5859 25.9258 26.5859H28.1797C29.4414 26.5859 30.4648 25.5625 30.4648 24.3008V22.0469C30.4648 21.0195 30.8633 20.0508 31.5937 19.3281L33.1875 17.7344C34.082 16.8359 34.082 15.3867 33.1914 14.4961ZM20 23.8984C15.707 23.8984 12.2148 20.4062 12.2148 16.1133C12.2148 11.8203 15.707 8.32422 20 8.32422C24.293 8.32422 27.7852 11.8164 27.7852 16.1094C27.7852 20.4023 24.293 23.8984 20 23.8984Z" fill="white"></path>
    <path d="M24.875 14.25L18.668 20.457L15.125 16.9141L16.7812 15.2539L18.668 17.1406L23.2188 12.5938L24.875 14.25Z" fill="white"></path>
  </symbol>
  <symbol fill="none" xmlns="http://www.w3.org/2000/svg" viewBox="0 0 45 45" id="soft">
    <g clip-path="url(#clip0_89_785)">
      <path d="M7.05614 7.82141C7.14874 7.82154 7.24044 7.80331 7.32595 7.76777C7.41146 7.73224 7.48907 7.6801 7.55431 7.61438C7.87686 7.29063 8.21503 6.97237 8.55956 6.66887C8.62883 6.6078 8.6854 6.53369 8.72603 6.45076C8.76666 6.36783 8.79056 6.27771 8.79636 6.18554C8.80217 6.09337 8.78976 6.00097 8.75985 5.91359C8.72994 5.82622 8.68311 5.7456 8.62204 5.67632C8.56098 5.60705 8.48686 5.55048 8.40393 5.50985C8.321 5.46922 8.23088 5.44532 8.13871 5.43951C7.95257 5.4278 7.7694 5.4905 7.62949 5.61383C7.26231 5.93759 6.90182 6.27679 6.55798 6.62217C6.45996 6.72062 6.3933 6.8459 6.36642 6.9822C6.33953 7.1185 6.35363 7.25971 6.40692 7.38801C6.46022 7.5163 6.55032 7.62594 6.66587 7.70307C6.78142 7.7802 6.91722 7.82138 7.05615 7.8214L7.05614 7.82141ZM10.3512 5.10366C10.4908 5.10376 10.6272 5.06209 10.7429 4.98402C11.1216 4.72927 11.5149 4.48294 11.9119 4.25188C11.9921 4.20563 12.0624 4.14399 12.1187 4.07051C12.1751 3.99702 12.2163 3.91314 12.2401 3.82367C12.2639 3.7342 12.2699 3.64091 12.2575 3.54915C12.2452 3.45739 12.2149 3.36897 12.1683 3.28895C12.1217 3.20894 12.0598 3.13892 11.9861 3.0829C11.9124 3.02688 11.8283 2.98597 11.7388 2.96252C11.6492 2.93906 11.5559 2.93353 11.4642 2.94623C11.3725 2.95893 11.2842 2.98962 11.2043 3.03653C10.7812 3.28286 10.362 3.5455 9.95808 3.81707C9.83299 3.90118 9.73825 4.02326 9.68782 4.16531C9.63739 4.30736 9.63394 4.46185 9.67799 4.606C9.72203 4.75016 9.81124 4.87634 9.93245 4.96595C10.0537 5.05555 10.2004 5.10384 10.3512 5.10367V5.10366ZM3.96091 11.0102C4.11612 11.1136 4.30603 11.151 4.48888 11.1144C4.67172 11.0778 4.83253 10.97 4.93594 10.8148C5.19051 10.4329 5.46054 10.0551 5.73863 9.69217C5.79478 9.61886 5.83594 9.53521 5.85977 9.44599C5.8836 9.35678 5.88962 9.26374 5.87749 9.17219C5.86535 9.08065 5.83531 8.99239 5.78907 8.91245C5.74283 8.83252 5.6813 8.76248 5.60799 8.70632C5.53468 8.65017 5.45103 8.609 5.36181 8.58518C5.27259 8.56135 5.17955 8.55533 5.08801 8.56746C4.99647 8.57959 4.90821 8.60964 4.82827 8.65588C4.74834 8.70212 4.67829 8.76365 4.62214 8.83696C4.32551 9.2244 4.03729 9.62746 3.76555 10.0352C3.66217 10.1904 3.62467 10.3803 3.66131 10.5631C3.69795 10.746 3.80572 10.9068 3.96091 11.0102ZM0.974693 18.9785C1.06532 18.9964 1.15859 18.9962 1.24913 18.9779C1.33968 18.9596 1.42574 18.9237 1.50237 18.8721C1.57901 18.8206 1.64472 18.7544 1.69574 18.6774C1.74676 18.6004 1.78208 18.5141 1.7997 18.4234C1.88742 17.9745 1.99162 17.5223 2.10886 17.0793C2.13251 16.99 2.13834 16.897 2.12604 16.8055C2.11373 16.714 2.08352 16.6258 2.03714 16.546C1.99075 16.4662 1.92909 16.3962 1.85569 16.3402C1.78229 16.2842 1.69857 16.2432 1.60932 16.2196C1.52008 16.196 1.42704 16.1901 1.33554 16.2024C1.24404 16.2147 1.15585 16.2449 1.07603 16.2913C0.996198 16.3377 0.926287 16.3994 0.870286 16.4728C0.814286 16.5462 0.773291 16.6299 0.749644 16.7191C0.624329 17.1917 0.513267 17.6744 0.419527 18.1535C0.383755 18.3366 0.422148 18.5263 0.52626 18.681C0.630372 18.8357 0.791677 18.9427 0.974693 18.9785ZM1.81446 26.6518C1.72503 26.2038 1.64915 25.7458 1.58907 25.2905C1.56462 25.1056 1.46773 24.938 1.31971 24.8246C1.17168 24.7111 0.984658 24.6611 0.799771 24.6856C0.614884 24.71 0.447282 24.8069 0.333835 24.955C0.220387 25.103 0.170388 25.29 0.194836 25.4749C0.259038 25.9603 0.340063 26.4489 0.435333 26.9271C0.472213 27.1097 0.579985 27.2701 0.735008 27.3733C0.89003 27.4764 1.07964 27.5139 1.26225 27.4774C1.44486 27.441 1.60555 27.3336 1.70907 27.1788C1.81259 27.024 1.85049 26.8345 1.81446 26.6518ZM2.0723 14.8466C2.15766 14.8819 2.24914 14.9 2.3415 14.8999C2.43385 14.8997 2.52528 14.8814 2.61056 14.8459C2.69583 14.8105 2.77328 14.7585 2.83848 14.6931C2.90367 14.6277 2.95533 14.5501 2.99051 14.4647C3.16477 14.0422 3.35598 13.6186 3.55887 13.2054C3.64017 13.0381 3.6519 12.8455 3.5915 12.6696C3.53109 12.4938 3.40347 12.349 3.23657 12.267C3.06967 12.185 2.87708 12.1724 2.70096 12.2321C2.52484 12.2918 2.37952 12.4188 2.29683 12.5854C2.08036 13.0258 1.87626 13.4778 1.69035 13.9284C1.61929 14.1008 1.61961 14.2944 1.69124 14.4666C1.76286 14.6388 1.89992 14.7755 2.0723 14.8466ZM0.703297 23.243C0.889775 23.2429 1.06861 23.1689 1.20047 23.037C1.33233 22.9051 1.40641 22.7263 1.40642 22.5398L1.40625 22.5C1.40625 22.054 1.42031 21.6029 1.44814 21.159C1.45979 20.9729 1.39703 20.7897 1.27367 20.6499C1.15031 20.5101 0.976445 20.4249 0.790328 20.4133C0.604212 20.4016 0.421089 20.4644 0.281243 20.5877C0.141398 20.7111 0.0562859 20.885 0.0446309 21.0711C0.0149344 21.544 0 22.0248 0 22.5091L0.000172266 22.5398C0.000181589 22.7263 0.0742636 22.9051 0.206123 23.037C0.337983 23.1689 0.51682 23.2429 0.703297 23.243ZM14.109 3.08029C14.2019 3.08025 14.2939 3.06176 14.3796 3.02587C14.801 2.84992 15.2341 2.68564 15.6672 2.53732C15.7546 2.50743 15.8352 2.46063 15.9045 2.39958C15.9737 2.33853 16.0303 2.26443 16.0709 2.18152C16.1116 2.0986 16.1355 2.0085 16.1413 1.91634C16.1471 1.82419 16.1347 1.73179 16.1048 1.64443C16.0749 1.55706 16.0281 1.47644 15.9671 1.40717C15.906 1.33789 15.8319 1.28132 15.749 1.24068C15.6661 1.20004 15.576 1.17613 15.4839 1.17031C15.3917 1.16449 15.2993 1.17689 15.2119 1.20678C14.7498 1.36505 14.2874 1.54031 13.8378 1.72811C13.6878 1.79075 13.5641 1.90341 13.4878 2.04693C13.4115 2.19046 13.3873 2.35598 13.4193 2.51535C13.4513 2.67472 13.5374 2.81809 13.6632 2.92109C13.7889 3.02408 13.9465 3.08034 14.109 3.08029V3.08029ZM26.5576 1.79592C27.0085 1.88381 27.4608 1.9875 27.9017 2.10424C28.082 2.15196 28.2738 2.12609 28.435 2.03235C28.5963 1.9386 28.7136 1.78465 28.7613 1.60436C28.8091 1.42408 28.7832 1.23222 28.6895 1.071C28.5957 0.909774 28.4418 0.792396 28.2615 0.744683C27.7906 0.62023 27.3079 0.509505 26.8264 0.415779C26.7356 0.397677 26.6421 0.397688 26.5513 0.415812C26.4605 0.433935 26.3742 0.469814 26.2973 0.521388C26.2204 0.572963 26.1545 0.639216 26.1033 0.716346C26.052 0.793476 26.0166 0.879963 25.9989 0.970841C25.9812 1.06172 25.9816 1.1552 26.0001 1.24591C26.0186 1.33663 26.0549 1.42279 26.1068 1.49945C26.1587 1.57612 26.2253 1.64177 26.3026 1.69265C26.38 1.74352 26.4666 1.77862 26.5576 1.79592ZM18.1901 1.83231C18.2368 1.83232 18.2834 1.82766 18.3291 1.81841C18.7777 1.72846 19.2353 1.65207 19.6897 1.59165C19.8746 1.56706 20.0421 1.47006 20.1554 1.32197C20.2687 1.17388 20.3186 0.986846 20.294 0.802004C20.2694 0.617162 20.1724 0.449657 20.0243 0.336338C19.8762 0.223019 19.6892 0.173169 19.5043 0.197754C19.0196 0.262129 18.531 0.343652 18.0524 0.439629C17.8814 0.473963 17.7293 0.570607 17.6256 0.710796C17.5218 0.850986 17.4739 1.02472 17.4911 1.19827C17.5082 1.37182 17.5892 1.53281 17.7184 1.64997C17.8476 1.76714 18.0157 1.83213 18.1901 1.83232V1.83231ZM43.178 18.3101C43.2681 18.7578 43.3448 19.2154 43.4058 19.6705C43.4284 19.8392 43.5114 19.9939 43.6394 20.106C43.7674 20.2181 43.9317 20.28 44.1019 20.2802C44.1334 20.2802 44.1649 20.2782 44.1961 20.2741C44.381 20.2493 44.5484 20.1521 44.6616 20.0039C44.7747 19.8557 44.8244 19.6686 44.7997 19.4837C44.7344 18.9983 44.6527 18.5101 44.5564 18.0323C44.5193 17.8498 44.4113 17.6895 44.2561 17.5865C44.1009 17.4835 43.9112 17.4463 43.7286 17.4831C43.546 17.5199 43.3854 17.6277 43.2822 17.7827C43.179 17.9378 43.1415 18.1274 43.178 18.3101L43.178 18.3101ZM34.1689 4.92497C34.5503 5.17868 34.9285 5.44853 35.2927 5.72697C35.4409 5.8398 35.6279 5.88921 35.8125 5.86435C35.9971 5.83949 36.1643 5.74239 36.2774 5.59437C36.3905 5.44635 36.4402 5.25951 36.4157 5.07485C36.3912 4.89019 36.2944 4.72281 36.1466 4.60945C35.7579 4.31265 35.3547 4.02477 34.9479 3.75423C34.871 3.70235 34.7846 3.66619 34.6937 3.64782C34.6029 3.62945 34.5092 3.62924 34.4183 3.6472C34.3273 3.66516 34.2408 3.70094 34.1637 3.75248C34.0866 3.80402 34.0205 3.8703 33.9691 3.9475C33.9177 4.0247 33.8821 4.1113 33.8644 4.20231C33.8466 4.29332 33.847 4.38695 33.8656 4.4778C33.8841 4.56865 33.9205 4.65493 33.9725 4.73168C34.0246 4.80842 34.0913 4.87411 34.1689 4.92497ZM41.9667 14.3615C42.1432 14.7835 42.3082 15.2164 42.4565 15.6487C42.4861 15.7364 42.5328 15.8175 42.5939 15.8872C42.6549 15.9569 42.7291 16.0138 42.8123 16.0547C42.8954 16.0956 42.9858 16.1197 43.0782 16.1255C43.1707 16.1314 43.2634 16.1189 43.351 16.0888C43.4386 16.0588 43.5195 16.0117 43.5888 15.9502C43.6582 15.8888 43.7147 15.8143 43.7552 15.731C43.7957 15.6476 43.8193 15.5571 43.8246 15.4646C43.83 15.3721 43.8171 15.2795 43.7865 15.192C43.6281 14.7308 43.4523 14.2687 43.2638 13.8186C43.1918 13.6466 43.0544 13.5102 42.8819 13.4395C42.7094 13.3688 42.5158 13.3695 42.3438 13.4415C42.1718 13.5135 42.0354 13.6509 41.9647 13.8234C41.894 13.996 41.8947 14.1895 41.9667 14.3615V14.3615ZM22.4403 1.40642L22.5 1.40625C22.9412 1.40625 23.3859 1.41998 23.8218 1.44693C23.8366 1.44796 23.8513 1.44831 23.8659 1.44831C24.0485 1.448 24.2238 1.37669 24.3547 1.24946C24.4857 1.12223 24.562 0.949054 24.5675 0.766566C24.5731 0.584078 24.5074 0.406585 24.3845 0.27163C24.2615 0.136674 24.0909 0.0548386 23.9087 0.043432C23.4445 0.0145898 22.9709 0 22.4952 0H22.494L22.4403 0.000172266C22.2538 0.000172266 22.0749 0.0742513 21.9431 0.206113C21.8112 0.337974 21.7371 0.516817 21.7371 0.703297C21.7371 0.889778 21.8112 1.06862 21.9431 1.20048C22.0749 1.33234 22.2538 1.40642 22.4403 1.40642ZM3.01832 30.6028C2.84289 30.1808 2.67878 29.7475 2.53098 29.3146C2.50113 29.2272 2.45436 29.1466 2.39335 29.0773C2.33234 29.008 2.25827 28.9514 2.17538 28.9107C2.09249 28.87 2.0024 28.8461 1.91025 28.8402C1.81811 28.8343 1.72571 28.8467 1.63833 28.8765C1.55095 28.9064 1.47031 28.9532 1.40101 29.0142C1.33171 29.0752 1.2751 29.1492 1.23442 29.2321C1.19374 29.315 1.16979 29.4051 1.16392 29.4973C1.15806 29.5894 1.17041 29.6818 1.20026 29.7692C1.35784 30.231 1.53276 30.6931 1.72022 31.1432C1.79188 31.3153 1.92898 31.4519 2.10138 31.523C2.27377 31.594 2.46732 31.5937 2.63946 31.522C2.8116 31.4504 2.94822 31.3132 3.01927 31.1409C3.09032 30.9685 3.08998 30.7749 3.01832 30.6028L3.01832 30.6028ZM30.5176 2.98313C30.9425 3.15788 31.3661 3.3486 31.7768 3.5503C31.8597 3.59111 31.9498 3.61519 32.042 3.62114C32.1342 3.62709 32.2267 3.61481 32.3142 3.585C32.4016 3.55519 32.4824 3.50843 32.5517 3.4474C32.6211 3.38636 32.6778 3.31225 32.7185 3.2293C32.7592 3.14635 32.7832 3.05619 32.7891 2.96397C32.7949 2.87175 32.7825 2.77928 32.7526 2.69185C32.7227 2.60442 32.6758 2.52374 32.6147 2.45443C32.5536 2.38511 32.4794 2.32853 32.3965 2.2879C31.958 2.07264 31.5059 1.86905 31.0522 1.68262C30.9668 1.64752 30.8753 1.62959 30.783 1.62984C30.6907 1.63009 30.5993 1.64852 30.5141 1.68409C30.4289 1.71965 30.3515 1.77164 30.2864 1.8371C30.2213 1.90256 30.1697 1.98021 30.1346 2.0656C30.0995 2.15099 30.0816 2.24246 30.0819 2.33479C30.0821 2.42711 30.1005 2.51848 30.1361 2.60368C30.1717 2.68888 30.2237 2.76624 30.2891 2.83135C30.3546 2.89646 30.4322 2.94803 30.5176 2.98313ZM42.9135 30.1908C42.7412 30.1197 42.5477 30.1198 42.3755 30.1911C42.2033 30.2624 42.0663 30.3991 41.9947 30.5712C41.8188 30.9955 41.627 31.4188 41.4243 31.8284C41.3416 31.9956 41.3287 32.1888 41.3885 32.3654C41.4482 32.5421 41.5757 32.6878 41.7429 32.7705C41.9101 32.8532 42.1032 32.8661 42.2799 32.8063C42.4566 32.7466 42.6023 32.6191 42.685 32.4519C42.9013 32.0142 43.1062 31.5627 43.2939 31.1095C43.3292 31.0242 43.3474 30.9328 43.3474 30.8404C43.3474 30.7481 43.3293 30.6567 43.2939 30.5714C43.2586 30.486 43.2068 30.4085 43.1415 30.3432C43.0763 30.2779 42.9988 30.2261 42.9135 30.1908ZM39.3724 7.61404C39.0487 7.24754 38.7091 6.8874 38.3632 6.54356C38.231 6.41208 38.052 6.3385 37.8655 6.33901C37.6791 6.33953 37.5005 6.41409 37.369 6.54631C37.2375 6.67852 37.1639 6.85755 37.1644 7.04401C37.1649 7.23047 37.2395 7.40909 37.3717 7.54057C37.6962 7.8633 38.0148 8.20129 38.3184 8.54513C38.4422 8.68394 38.6158 8.76808 38.8015 8.77915C38.9871 8.79023 39.1695 8.72733 39.3089 8.60422C39.4482 8.48111 39.5332 8.30781 39.5451 8.12224C39.557 7.93668 39.4949 7.75395 39.3724 7.61404H39.3724ZM4.24261 33.0716C4.19626 32.9917 4.13464 32.9218 4.06125 32.8657C3.98787 32.8097 3.90416 32.7686 3.81491 32.7449C3.72566 32.7212 3.63261 32.7153 3.54109 32.7276C3.44956 32.7398 3.36134 32.77 3.28147 32.8163C3.2016 32.8627 3.13164 32.9243 3.07559 32.9977C3.01953 33.0711 2.97848 33.1548 2.95478 33.244C2.93108 33.3333 2.92518 33.4263 2.93744 33.5178C2.94969 33.6094 2.97986 33.6976 3.0262 33.7775C3.27134 34.2001 3.53364 34.62 3.80555 35.0248C3.85699 35.1014 3.92303 35.1672 3.9999 35.2184C4.07677 35.2695 4.16295 35.305 4.25354 35.3228C4.34413 35.3407 4.43735 35.3405 4.52787 35.3223C4.61839 35.3041 4.70444 35.2683 4.78111 35.2169C4.85778 35.1654 4.92356 35.0994 4.97471 35.0225C5.02586 34.9456 5.06136 34.8594 5.0792 34.7689C5.09704 34.6783 5.09686 34.5851 5.07867 34.4945C5.06048 34.404 5.02465 34.318 4.9732 34.2413C4.71829 33.8616 4.47247 33.4681 4.24261 33.0716ZM41.0183 34.024C40.8634 33.9203 40.6736 33.8823 40.4907 33.9185C40.3078 33.9547 40.1467 34.062 40.0429 34.2169C39.7872 34.599 39.5163 34.9764 39.2379 35.3386C39.1244 35.4864 39.0743 35.6733 39.0986 35.8581C39.1229 36.0429 39.2195 36.2105 39.3673 36.3241C39.5151 36.4377 39.7019 36.4879 39.8868 36.4638C40.0716 36.4397 40.2393 36.3432 40.353 36.1955C40.6498 35.8093 40.9387 35.4069 41.2113 34.9997C41.3151 34.8447 41.353 34.6549 41.3169 34.4719C41.2807 34.2889 41.1733 34.1278 41.0183 34.024ZM34.2252 40.0373C33.8434 40.2934 33.4498 40.5389 33.0553 40.7672C32.9754 40.8134 32.9054 40.875 32.8493 40.9483C32.7932 41.0216 32.7521 41.1052 32.7283 41.1944C32.7045 41.2836 32.6985 41.3767 32.7107 41.4682C32.7228 41.5597 32.7529 41.6479 32.7992 41.7278C32.8454 41.8077 32.907 41.8777 32.9803 41.9338C33.0536 41.9899 33.1372 42.031 33.2264 42.0548C33.3156 42.0786 33.4086 42.0846 33.5002 42.0724C33.5917 42.0602 33.6799 42.0302 33.7598 41.9839C34.1807 41.7405 34.6006 41.4785 35.0079 41.2059C35.1629 41.1021 35.2703 40.941 35.3065 40.758C35.3427 40.5751 35.3047 40.3852 35.2009 40.2302C35.0971 40.0752 34.936 39.9678 34.753 39.9317C34.57 39.8955 34.3801 39.9335 34.2252 40.0373ZM41.953 11.1867C41.7074 10.7652 41.4444 10.3462 41.1714 9.94107C41.0673 9.78641 40.9059 9.67947 40.7229 9.64377C40.5399 9.60807 40.3502 9.64653 40.1955 9.7507C40.0409 9.85487 39.9339 10.0162 39.8982 10.1992C39.8625 10.3822 39.901 10.5719 40.0052 10.7266C40.2613 11.1068 40.5078 11.4998 40.7383 11.8949C40.8323 12.056 40.9863 12.1732 41.1666 12.2206C41.3469 12.2681 41.5387 12.242 41.6998 12.1481C41.8609 12.0542 41.9781 11.9001 42.0255 11.7198C42.073 11.5395 42.0469 11.3477 41.953 11.1866L41.953 11.1867ZM44.0188 26.0609C43.9282 26.0429 43.835 26.0429 43.7444 26.061C43.6538 26.0791 43.5677 26.1148 43.491 26.1662C43.4143 26.2177 43.3484 26.2837 43.2973 26.3606C43.2461 26.4375 43.2107 26.5237 43.1929 26.6144C43.1042 27.0634 42.9993 27.5153 42.8812 27.9581C42.8573 28.0474 42.8512 28.1405 42.8633 28.2321C42.8753 28.3237 42.9053 28.412 42.9516 28.492C42.9978 28.5719 43.0594 28.642 43.1327 28.6982C43.206 28.7544 43.2897 28.7956 43.379 28.8194C43.4683 28.8432 43.5613 28.8492 43.6529 28.8371C43.7445 28.8249 43.8328 28.7948 43.9127 28.7485C43.9927 28.7021 44.0627 28.6405 44.1188 28.5671C44.1749 28.4937 44.216 28.41 44.2397 28.3207C44.3659 27.8486 44.4778 27.3659 44.5724 26.887C44.5903 26.7964 44.5902 26.7032 44.5721 26.6126C44.554 26.5221 44.5182 26.436 44.4668 26.3592C44.4153 26.2825 44.3493 26.2167 44.2725 26.1655C44.1956 26.1143 44.1094 26.0788 44.0188 26.0609ZM44.9996 22.4155C44.9985 22.2291 44.9232 22.0507 44.7906 21.9197C44.6579 21.7886 44.4785 21.7157 44.2921 21.7169C44.1056 21.7181 43.9272 21.7933 43.7962 21.926C43.6652 22.0587 43.5922 22.238 43.5934 22.4245L43.5938 22.5C43.5938 22.9587 43.5788 23.4232 43.5493 23.8798C43.5373 24.0659 43.5998 24.2492 43.7229 24.3893C43.846 24.5294 44.0198 24.6149 44.2059 24.6269C44.2212 24.6279 44.2365 24.6283 44.2517 24.6283C44.4303 24.6281 44.6021 24.56 44.7322 24.4379C44.8624 24.3157 44.9413 24.1486 44.9528 23.9705C44.984 23.4836 45 22.9889 45 22.4955L44.9996 22.4155ZM37.4182 37.4126C37.0948 37.736 36.7561 38.0536 36.4114 38.3564C36.2713 38.4794 36.1858 38.653 36.1737 38.8391C36.1616 39.0252 36.2239 39.2084 36.3469 39.3486C36.4699 39.4887 36.6436 39.5742 36.8296 39.5863C37.0157 39.5984 37.199 39.5361 37.3391 39.4131C37.7068 39.0904 38.068 38.7519 38.4128 38.4068C38.4782 38.3416 38.5301 38.264 38.5655 38.1787C38.6009 38.0933 38.6191 38.0019 38.6191 37.9095C38.6191 37.8171 38.6009 37.7256 38.5656 37.6402C38.5302 37.5549 38.4784 37.4773 38.4131 37.412C38.3477 37.3467 38.2702 37.2949 38.1848 37.2596C38.0994 37.2242 38.0079 37.2061 37.9155 37.2061C37.8231 37.2062 37.7317 37.2245 37.6463 37.2599C37.561 37.2953 37.4835 37.3472 37.4182 37.4126V37.4126ZM10.7987 40.0534C10.4183 39.7993 10.0406 39.5288 9.67621 39.2497C9.52824 39.1362 9.34127 39.0862 9.15642 39.1106C8.97157 39.135 8.80398 39.2318 8.69053 39.3798C8.57708 39.5278 8.52705 39.7147 8.55145 39.8996C8.57585 40.0844 8.67269 40.252 8.82065 40.3655C9.20929 40.6635 9.61202 40.9519 10.0176 41.2228C10.1727 41.3248 10.3619 41.3614 10.5438 41.3246C10.7258 41.2877 10.8858 41.1804 10.9889 41.026C11.092 40.8716 11.1299 40.6827 11.0943 40.5005C11.0586 40.3183 10.9524 40.1576 10.7987 40.0534L10.7987 40.0534ZM6.65565 36.4255C6.53237 36.2856 6.35853 36.2003 6.17239 36.1885C5.98625 36.1767 5.80305 36.2394 5.6631 36.3627C5.52315 36.486 5.4379 36.6598 5.42612 36.8459C5.41433 37.0321 5.47698 37.2153 5.60026 37.3552C5.92453 37.7233 6.26339 38.0841 6.6074 38.4274C6.73954 38.5586 6.91831 38.632 7.1045 38.6315C7.29068 38.6311 7.46909 38.5568 7.60058 38.425C7.73208 38.2932 7.80593 38.1146 7.80594 37.9284C7.80595 37.7422 7.73212 37.5636 7.60064 37.4318C7.27793 37.1098 6.96001 36.7712 6.65565 36.4255ZM14.4465 42.0021C14.0239 41.8274 13.6004 41.6358 13.1881 41.4329C13.0208 41.3505 12.8276 41.3379 12.6511 41.3979C12.4745 41.4579 12.3291 41.5856 12.2467 41.7529C12.1643 41.9201 12.1517 42.1133 12.2117 42.2898C12.2717 42.4664 12.3994 42.6118 12.5666 42.6942C13.0066 42.9109 13.4583 43.1155 13.9092 43.3019C14.0815 43.3729 14.2749 43.3725 14.447 43.301C14.619 43.2294 14.7557 43.0925 14.8268 42.9203C14.898 42.7481 14.8979 42.5547 14.8266 42.3825C14.7553 42.2104 14.6186 42.0735 14.4465 42.0021ZM26.6334 43.189C26.1868 43.2776 25.7284 43.3531 25.2716 43.4135C25.18 43.4254 25.0916 43.4553 25.0115 43.5014C24.9315 43.5475 24.8613 43.609 24.805 43.6823C24.7487 43.7556 24.7074 43.8392 24.6834 43.9285C24.6595 44.0177 24.6534 44.1108 24.6654 44.2024C24.6775 44.294 24.7075 44.3824 24.7538 44.4624C24.8 44.5424 24.8616 44.6125 24.9349 44.6687C25.0083 44.7249 25.092 44.766 25.1813 44.7898C25.2706 44.8136 25.3637 44.8196 25.4553 44.8074C25.9423 44.7432 26.4307 44.6629 26.9071 44.5684C26.9977 44.5506 27.084 44.515 27.1608 44.4637C27.2377 44.4125 27.3038 44.3466 27.3552 44.2698C27.4066 44.1931 27.4424 44.1069 27.4605 44.0163C27.4786 43.9257 27.4787 43.8324 27.4607 43.7418C27.4427 43.6511 27.407 43.5649 27.3557 43.4881C27.3044 43.4112 27.2384 43.3452 27.1616 43.2939C27.0848 43.2426 26.9986 43.2069 26.908 43.1889C26.8173 43.1709 26.724 43.1709 26.6334 43.189L26.6334 43.189ZM30.5849 41.9891C30.1637 42.1641 29.7302 42.3276 29.2969 42.4749C29.2095 42.5046 29.1288 42.5512 29.0594 42.6121C28.99 42.6729 28.9333 42.7469 28.8924 42.8297C28.8516 42.9125 28.8275 43.0026 28.8215 43.0947C28.8154 43.1868 28.8276 43.2792 28.8573 43.3666C28.887 43.4541 28.9336 43.5348 28.9945 43.6042C29.0554 43.6736 29.1293 43.7303 29.2122 43.7712C29.295 43.812 29.385 43.8361 29.4771 43.8421C29.5693 43.8481 29.6617 43.836 29.7491 43.8063C30.2119 43.649 30.6747 43.4746 31.1246 43.2875C31.2968 43.2159 31.4335 43.0789 31.5046 42.9065C31.5758 42.7342 31.5756 42.5406 31.504 42.3684C31.4324 42.1962 31.2954 42.0595 31.123 41.9884C30.9507 41.9173 30.7571 41.9175 30.5849 41.9891ZM22.5 43.5938C22.0484 43.5938 21.5905 43.5793 21.1394 43.5505C20.9534 43.5389 20.7705 43.6016 20.6307 43.7249C20.4909 43.8481 20.4058 44.0217 20.394 44.2077C20.3821 44.3936 20.4446 44.5767 20.5676 44.7166C20.6907 44.8566 20.8642 44.9419 21.0501 44.954C21.531 44.9845 22.0187 45 22.5 45H22.5197C22.6116 44.9998 22.7024 44.9814 22.7871 44.9459C22.8717 44.9103 22.9485 44.8584 23.013 44.793C23.0774 44.7276 23.1283 44.6501 23.1626 44.565C23.1969 44.4798 23.214 44.3887 23.2129 44.2969C23.2107 44.1094 23.1346 43.9304 23.0011 43.7987C22.8676 43.667 22.6875 43.5934 22.5 43.5938ZM18.4045 43.1969C17.9542 43.1079 17.5019 43.0036 17.0601 42.8862C16.9707 42.8622 16.8776 42.8561 16.7859 42.8682C16.6943 42.8803 16.6059 42.9103 16.5258 42.9566C16.4458 43.0029 16.3757 43.0646 16.3195 43.138C16.2633 43.2114 16.2222 43.2952 16.1984 43.3846C16.1747 43.4739 16.1688 43.5671 16.1811 43.6587C16.1934 43.7504 16.2237 43.8387 16.2701 43.9186C16.3166 43.9986 16.3784 44.0685 16.452 44.1245C16.5256 44.1805 16.6095 44.2215 16.6989 44.245C17.1701 44.3703 17.6525 44.4819 18.1326 44.5763C18.1776 44.5853 18.2234 44.5898 18.2692 44.5897C18.4438 44.5896 18.6121 44.5245 18.7414 44.4071C18.8706 44.2897 18.9515 44.1284 18.9684 43.9546C18.9853 43.7809 18.9369 43.607 18.8327 43.4669C18.7284 43.3269 18.5758 43.2306 18.4045 43.1969H18.4045ZM30.3527 31.8831L18.1647 23.3614C17.7072 23.0404 17.3958 22.5511 17.2988 22.0007C17.2018 21.4504 17.3272 20.8841 17.6474 20.4261C17.9676 19.968 18.4564 19.6558 19.0066 19.5579C19.5568 19.46 20.1233 19.5844 20.5819 19.9038L32.9827 28.5741C32.7062 26.0322 31.9879 22.025 30.1448 20.1779C29.3424 19.3732 28.3618 18.7688 27.2823 18.4137C27.3987 19.0488 27.4304 19.6965 27.3766 20.34C27.3614 20.5151 27.2811 20.6783 27.1516 20.7972C27.0221 20.9161 26.8527 20.9821 26.6769 20.9823C26.6564 20.9823 26.6358 20.9815 26.6152 20.9798C26.4295 20.9636 26.2577 20.8744 26.1377 20.7316C26.0177 20.5888 25.9594 20.4042 25.9755 20.2185C26.0385 19.4848 25.9634 18.7458 25.7539 18.0399C25.2014 16.9279 24.3743 15.9753 23.351 15.272C22.3277 14.5688 21.1418 14.1382 19.9057 14.021C21.7117 16.1559 21.3001 18.1966 21.2731 18.3185C21.2325 18.5002 21.1214 18.6583 20.9643 18.7583C20.8072 18.8582 20.6169 18.8917 20.4351 18.8514C20.2533 18.8112 20.0949 18.7005 19.9946 18.5437C19.8944 18.3868 19.8604 18.1965 19.9002 18.0147C19.9235 17.906 20.351 15.7095 17.4544 13.693C16.8259 13.27 16.1607 12.9042 15.467 12.5998C11.8664 11.0194 11.1925 10.3131 10.3399 9.41923C10.0432 9.10822 9.72818 8.67647 9.23951 8.81584C9.11491 8.85553 9.00301 8.92745 8.91515 9.0243C8.82729 9.12116 8.76659 9.23952 8.7392 9.36739C8.64513 9.80716 7.75723 14.3162 9.70789 17.9935C10.7359 19.8928 12.4757 21.5145 15.2861 22.2923C15.45 22.3377 15.5919 22.441 15.6855 22.583C15.7791 22.725 15.8181 22.8961 15.7952 23.0646C15.7724 23.2331 15.6892 23.3877 15.5612 23.4996C15.4332 23.6116 15.2689 23.6733 15.0988 23.6735C15.0353 23.6733 14.9721 23.6646 14.9109 23.6477C13.88 23.3688 12.8931 22.9476 11.9786 22.3963C12.2118 23.9988 12.9699 25.4786 14.1341 26.6042C15.2983 27.7298 16.8029 28.4376 18.4123 28.6167C19.1817 28.685 19.9569 28.6004 20.6934 28.3677C20.7815 28.3395 20.8743 28.329 20.9665 28.3367C21.0587 28.3445 21.1484 28.3703 21.2306 28.4128C21.3127 28.4553 21.3857 28.5136 21.4453 28.5843C21.5049 28.6551 21.5499 28.7369 21.5779 28.8251C21.6058 28.9132 21.616 29.0061 21.608 29.0982C21.6 29.1904 21.5738 29.28 21.5311 29.3621C21.4884 29.4441 21.4298 29.5169 21.3589 29.5763C21.288 29.6356 21.206 29.6804 21.1178 29.7081C20.5357 29.8914 19.9328 30.0004 19.3234 30.0324C19.471 30.2129 19.6251 30.3888 19.7915 30.5557C21.0438 31.8133 23.5734 32.1738 26.0621 32.1738C27.4969 32.1641 28.9297 32.067 30.3527 31.8831Z" fill="white"></path>
      <path d="M36.5625 35.5077C36.5625 32.6008 33.7222 30.7788 33.4008 30.5824L19.7764 21.0564C19.6236 20.9495 19.4345 20.9077 19.2509 20.9402C19.0672 20.9727 18.904 21.0768 18.7971 21.2296C18.6902 21.3825 18.6484 21.5715 18.6809 21.7552C18.7133 21.9388 18.8174 22.1021 18.9703 22.209L32.6139 31.748C32.6277 31.7576 32.6428 31.7672 32.6568 31.7758C32.6819 31.7909 35.1562 33.2988 35.1562 35.5077C35.1562 35.6942 35.2303 35.8731 35.3622 36.0049C35.494 36.1368 35.6729 36.2109 35.8594 36.2109C36.0458 36.2109 36.2247 36.1368 36.3566 36.0049C36.4884 35.8731 36.5625 35.6942 36.5625 35.5077Z" fill="white"></path>
    </g>
    <defs>
      <clipPath id="clip0_89_785">
        <rect width="45" height="45" fill="white"></rect>
      </clipPath>
    </defs>
  </symbol>
  <symbol fill="none" xmlns="http://www.w3.org/2000/svg" viewBox="0 0 40 40" id="color">
    <g clip-path="url(#clip0_89_770)">
      <path d="M20 36.6666C10.8167 36.6666 3.33334 29.1833 3.33334 19.9999C3.33334 10.8166 10.8167 3.33325 20 3.33325C29.1833 3.33325 36.6667 10.0666 36.6667 18.3333C36.6667 23.8499 32.1833 28.3333 26.6667 28.3333H23.7167C23.25 28.3333 22.8833 28.6999 22.8833 29.1666C22.8833 29.3666 22.9667 29.5499 23.1 29.7166C23.7833 30.4999 24.1667 31.4833 24.1667 32.4999C24.1667 34.7999 22.3 36.6666 20 36.6666ZM20 6.66659C12.65 6.66659 6.66668 12.6499 6.66668 19.9999C6.66668 27.3499 12.65 33.3333 20 33.3333C20.4667 33.3333 20.8333 32.9666 20.8333 32.4999C20.8333 32.2333 20.7 32.0333 20.6 31.9166C19.9167 31.1499 19.55 30.1666 19.55 29.1666C19.55 26.8666 21.4167 24.9999 23.7167 24.9999H26.6667C30.35 24.9999 33.3333 22.0166 33.3333 18.3333C33.3333 11.8999 27.35 6.66659 20 6.66659Z" fill="white"></path>
      <path d="M10.8333 21.6667C12.2141 21.6667 13.3333 20.5475 13.3333 19.1667C13.3333 17.786 12.2141 16.6667 10.8333 16.6667C9.45263 16.6667 8.33334 17.786 8.33334 19.1667C8.33334 20.5475 9.45263 21.6667 10.8333 21.6667Z" fill="white"></path>
      <path d="M15.8333 15C17.2141 15 18.3333 13.8807 18.3333 12.5C18.3333 11.1193 17.2141 10 15.8333 10C14.4526 10 13.3333 11.1193 13.3333 12.5C13.3333 13.8807 14.4526 15 15.8333 15Z" fill="white"></path>
      <path d="M24.1667 15C25.5474 15 26.6667 13.8807 26.6667 12.5C26.6667 11.1193 25.5474 10 24.1667 10C22.7859 10 21.6667 11.1193 21.6667 12.5C21.6667 13.8807 22.7859 15 24.1667 15Z" fill="white"></path>
      <path d="M29.1667 21.6667C30.5474 21.6667 31.6667 20.5475 31.6667 19.1667C31.6667 17.786 30.5474 16.6667 29.1667 16.6667C27.7859 16.6667 26.6667 17.786 26.6667 19.1667C26.6667 20.5475 27.7859 21.6667 29.1667 21.6667Z" fill="white"></path>
    </g>
    <defs>
      <clipPath id="clip0_89_770">
        <rect width="40" height="40" fill="white"></rect>
      </clipPath>
    </defs>
  </symbol>
  <symbol fill="none" xmlns="http://www.w3.org/2000/svg" viewBox="0 0 26 26" id="arrowrev">
    <circle cx="13" cy="13" r="13" fill="#E71D73"></circle>
    <path d="M11.074 8.66675L15.4074 13.0001L11.074 17.3334" stroke="white" stroke-width="0.962963" stroke-linecap="round" stroke-linejoin="round"></path>
  </symbol>
  <symbol fill="none" xmlns="http://www.w3.org/2000/svg" viewBox="0 0 30 12" id="newsarrow">
    <path d="M1 6H29M29 6L24 1M29 6L24 11" stroke="#E71D73" stroke-linecap="round" stroke-linejoin="round"></path>
  </symbol>
</svg>