<svg width="0" height="0" class="hidden">
   <symbol fill="none" xmlns="http://www.w3.org/2000/svg" viewBox="0 0 18 20" id="bag">
    <path d="M14.6895 3.8963H12.8782C12.7878 2.83374 12.2991 1.84363 11.5089 1.12204C10.7186 0.400446 9.68444 0 8.61111 0C7.53778 0 6.50359 0.400446 5.71333 1.12204C4.92308 1.84363 4.43439 2.83374 4.34405 3.8963H2.53268C1.86097 3.8963 1.21677 4.1614 0.741805 4.63328C0.266835 5.10516 0 5.74517 0 6.41251L0 17.4838C0 18.1511 0.266835 18.7911 0.741805 19.263C1.21677 19.7349 1.86097 20 2.53268 20H14.6895C15.3613 20 16.0054 19.7349 16.4804 19.263C16.9554 18.7911 17.2222 18.1511 17.2222 17.4838V6.41251C17.2222 5.74517 16.9554 5.10516 16.4804 4.63328C16.0054 4.1614 15.3613 3.8963 14.6895 3.8963ZM8.61111 1.00267C9.41614 1.00515 10.1922 1.30119 10.7921 1.83461C11.3919 2.36802 11.7738 3.10167 11.8651 3.8963H5.35712C5.44847 3.10167 5.83031 2.36802 6.43015 1.83461C7.02999 1.30119 7.80608 1.00515 8.61111 1.00267ZM16.2092 17.4838C16.2092 17.8842 16.049 18.2682 15.7641 18.5513C15.4791 18.8345 15.0926 18.9935 14.6895 18.9935H2.53268C2.12965 18.9935 1.74314 18.8345 1.45815 18.5513C1.17317 18.2682 1.01307 17.8842 1.01307 17.4838V6.41251C1.01307 6.0121 1.17317 5.6281 1.45815 5.34497C1.74314 5.06184 2.12965 4.90278 2.53268 4.90278H14.6895C15.0926 4.90278 15.4791 5.06184 15.7641 5.34497C16.049 5.6281 16.2092 6.0121 16.2092 6.41251V17.4838Z" fill="black"></path>
  </symbol>
  <symbol fill="none" xmlns="http://www.w3.org/2000/svg" viewBox="0 0 23 22" id="heart">
    <path d="M15.7104 5.50336C16.894 5.88147 17.7351 6.94414 17.8402 8.19445M11.29 20.8375C8.87822 19.3532 6.63457 17.6063 4.59921 15.628C3.16826 14.2033 2.07889 12.4664 1.41455 10.5504C0.219049 6.83367 1.61548 2.5787 5.52347 1.31947C7.57735 0.658261 9.8205 1.03617 11.5512 2.33497C13.2826 1.03775 15.525 0.659975 17.579 1.31947C21.4869 2.5787 22.8934 6.83367 21.6979 10.5504C21.0336 12.4664 19.9442 14.2033 18.5133 15.628C16.4779 17.6063 14.2343 19.3532 11.8225 20.8375L11.5613 21L11.29 20.8375Z" stroke="black" stroke-linecap="round" stroke-linejoin="round"></path>
  </symbol>
  <symbol fill="none" xmlns="http://www.w3.org/2000/svg" viewBox="0 0 20 20" id="search">
    <path d="M9.80584 17.2966C13.9429 17.2966 17.2967 13.9428 17.2967 9.80578C17.2967 5.6687 13.9429 2.31494 9.80584 2.31494C5.66876 2.31494 2.315 5.6687 2.315 9.80578C2.315 13.9428 5.66876 17.2966 9.80584 17.2966Z" stroke="#200E32" stroke-linecap="round" stroke-linejoin="round"></path>
    <path d="M15.015 15.4043L17.9517 18.3335" stroke="#200E32" stroke-linecap="round" stroke-linejoin="round"></path>
  </symbol>
  <symbol fill="none" xmlns="http://www.w3.org/2000/svg" viewBox="0 0 18 24" id="kurt">
    <path d="M8.76267 1.71663e-05C7.03136 1.71663e-05 5.45781 0.446206 4.28878 1.19784C3.11959 1.94947 2.33427 3.0405 2.33427 4.28576C2.33427 4.97641 2.7078 5.58237 3.21653 6.09045C3.3054 6.17919 3.40442 6.26245 3.50197 6.34659C1.57 7.08682 0.191406 8.95408 0.191406 11.1428V20.1428C0.191406 20.6971 0.552553 21.1693 1.04856 21.3482V21.8571C1.04856 22.562 1.6294 23.1429 2.33428 23.1429H3.27179C3.45069 23.6388 3.92305 24 4.47715 24H13.0486C13.6027 24 14.0751 23.6388 14.254 23.1429H15.1915C15.8964 23.1429 16.4772 22.562 16.4772 21.8571V21.3482C16.9732 21.1693 17.3344 20.6971 17.3344 20.1428V11.1428C17.3344 8.95429 15.9569 7.08614 14.0255 6.34573C14.1225 6.26197 14.2208 6.17876 14.3093 6.09043C14.818 5.58235 15.1915 4.97635 15.1915 4.28574C15.1915 3.04048 14.4062 1.94946 13.237 1.19782C12.0678 0.446189 10.4943 0 8.76311 0L8.76267 1.71663e-05ZM8.76267 0.857166C10.3451 0.857166 11.7715 1.27417 12.7739 1.91857C13.7763 2.56298 14.3341 3.4008 14.3341 4.28576C14.3341 4.66025 14.1184 5.06873 13.703 5.48358C13.5181 5.66819 13.2934 5.84852 13.0484 6.02265V4.71434C13.0484 4.00946 12.4676 3.42861 11.7627 3.42861H5.76265C5.05778 3.42861 4.47693 4.00946 4.47693 4.71434V6.02265C4.23193 5.84852 4.00721 5.66819 3.82237 5.48358C3.40698 5.06873 3.1912 4.66025 3.1912 4.28576C3.1912 3.4008 3.74908 2.56294 4.75147 1.91857C5.75387 1.27421 7.18025 0.857166 8.76267 0.857166ZM5.76265 4.28576H8.3341V7.66164C8.07872 7.61546 7.76135 7.54048 7.41082 7.43062C6.81197 7.24293 6.12248 6.96831 5.47889 6.63291C5.42958 6.60721 5.3828 6.57898 5.33408 6.55255V4.71435C5.33408 4.46951 5.51781 4.28578 5.76266 4.28578L5.76265 4.28576ZM9.19125 4.28576H11.7627C12.0075 4.28576 12.1913 4.46949 12.1913 4.71434V6.55254C12.1426 6.57896 12.0958 6.60719 12.0465 6.63289C11.4029 6.96833 10.7134 7.24293 10.1145 7.4306C9.76398 7.54046 9.44664 7.61544 9.19125 7.66163V4.28574L9.19125 4.28576ZM4.35993 6.97438C4.59407 7.12172 4.83406 7.26353 5.08229 7.39291C5.77799 7.75548 6.50816 8.04571 7.15483 8.24839C7.32703 8.30235 7.49068 8.3491 7.64787 8.39069C7.52355 8.56347 7.41458 8.75534 7.31639 8.96575C7.00868 9.62511 6.79263 10.452 6.62831 11.2735C6.2997 12.9166 6.19219 14.5431 6.19219 14.5431C6.17641 14.7793 6.35521 14.9836 6.59147 14.9993C6.82773 15.0151 7.032 14.8363 7.04769 14.6C7.04769 14.6 7.15448 13.0122 7.46873 11.441C7.62585 10.6553 7.83838 9.87504 8.09316 9.32908C8.17178 9.16061 8.2535 9.02655 8.33424 8.91138V23.1431H4.47707C4.23222 23.1431 4.04849 22.9593 4.04849 22.7145V11.5715C4.04849 11.4579 4.00334 11.3489 3.92296 11.2685C3.84259 11.1881 3.73358 11.143 3.61992 11.143C3.50625 11.143 3.39724 11.1881 3.31687 11.2685C3.2365 11.3489 3.19134 11.4579 3.19134 11.5715V20.5716H1.47704C1.23527 20.5716 1.04847 20.3848 1.04847 20.143V11.143C1.04847 9.1072 2.46058 7.41463 4.35989 6.9744L4.35993 6.97438ZM13.1624 6.97689C15.0631 7.41562 16.4772 9.10627 16.4772 11.1429V20.143C16.4772 20.3848 16.2904 20.5716 16.0486 20.5716H14.3343V11.5715C14.3343 11.4578 14.2892 11.3488 14.2088 11.2685C14.1284 11.1881 14.0194 11.1429 13.9057 11.1429C13.7921 11.1429 13.6831 11.1881 13.6027 11.2685C13.5223 11.3488 13.4772 11.4578 13.4772 11.5715V22.7144C13.4772 22.9593 13.2934 23.143 13.0486 23.143H9.19142V8.91135C9.27216 9.02651 9.35388 9.16057 9.43249 9.32904C9.68729 9.87504 9.89981 10.6553 10.0569 11.4409C10.3712 13.0122 10.478 14.6 10.478 14.6C10.4936 14.8363 10.6979 15.015 10.9342 14.9993C11.1704 14.9836 11.3492 14.7793 11.3335 14.5431C11.3335 14.5431 11.226 12.9166 10.8973 11.2735C10.733 10.452 10.517 9.62512 10.2093 8.96571C10.1111 8.75531 10.0021 8.56344 9.87779 8.39065C10.035 8.34907 10.1986 8.30232 10.3708 8.24835C11.0175 8.04568 11.7477 7.75545 12.4434 7.39288C12.6904 7.26414 12.9293 7.12336 13.1624 6.97686L13.1624 6.97689ZM1.90548 21.4289H3.1912V22.286H2.33406C2.08921 22.286 1.90548 22.1023 1.90548 21.8574V21.4289ZM14.3341 21.4289H15.6199V21.8574C15.6199 22.1023 15.4361 22.286 15.1913 22.286H14.3341V21.4289Z" fill="white"></path>
  </symbol>
  <symbol fill="none" xmlns="http://www.w3.org/2000/svg" viewBox="0 0 21 24" id="pants">
    <path d="M20.9331 23.058L18.1335 1.73056C18.2845 1.48124 18.3521 1.19032 18.3265 0.899993C18.301 0.609665 18.1836 0.335017 17.9915 0.115869C17.9162 0.0429288 17.816 0.00148216 17.7112 1.5365e-07H3.30976C3.25771 -4.56819e-05 3.20617 0.0101639 3.15807 0.0300451C3.10997 0.0499264 3.06626 0.0790898 3.02943 0.115869C2.8385 0.335992 2.72284 0.61133 2.69931 0.901769C2.67578 1.19221 2.74561 1.48257 2.89861 1.73056L0.0990645 23.058C0.0862895 23.1554 0.110201 23.2542 0.166152 23.335C0.222103 23.4158 0.306098 23.4729 0.40182 23.4953C1.82987 23.8104 3.28648 23.9782 4.74878 23.9961C5.85696 24.029 6.96142 23.8527 8.00433 23.4766C8.0667 23.4507 8.12142 23.4093 8.16328 23.3563C8.20515 23.3033 8.23278 23.2405 8.24354 23.1738L10.5161 9.68068L12.7886 23.1738C12.7972 23.2413 12.824 23.3051 12.8661 23.3585C12.9083 23.4118 12.9642 23.4526 13.0278 23.4766C14.0707 23.8527 15.1752 24.029 16.2834 23.9961C17.7457 23.9782 19.2023 23.8104 20.6303 23.4953C20.726 23.4729 20.81 23.4158 20.866 23.335C20.9219 23.2542 20.9459 23.1554 20.9331 23.058ZM13.5324 22.8374L10.916 7.24369V7.20631V7.16894V7.1353C10.9172 7.12412 10.9172 7.11284 10.916 7.10166L10.8936 7.07175L10.8674 7.04185L10.8375 7.01569H10.8114L10.7702 6.99326H10.7441H10.6992H10.6693H10.4413H10.389H10.3666L10.318 7.01943L10.2731 7.05307C10.2588 7.06491 10.2462 7.07876 10.2357 7.09418C10.2257 7.10829 10.2169 7.12331 10.2096 7.13903H10.1423C10.1407 7.15394 10.1407 7.16898 10.1423 7.18389V7.21753L7.49974 22.8374C5.37672 23.585 2.02025 23.0281 0.932575 22.815L3.61625 2.38466H5.21599C5.32107 2.38466 5.42185 2.34292 5.49615 2.26862C5.57045 2.19432 5.61219 2.09354 5.61219 1.98846C5.61219 1.88339 5.57045 1.78261 5.49615 1.70831C5.42185 1.63401 5.32107 1.59227 5.21599 1.59227H3.69848C3.69136 1.54754 3.67616 1.50448 3.65363 1.46518C3.57919 1.37043 3.52876 1.25909 3.50663 1.14064C3.4845 1.0222 3.49134 0.900156 3.52655 0.78492H17.5019C17.5326 0.895518 17.5375 1.01171 17.5161 1.1245C17.4947 1.23728 17.4476 1.34363 17.3785 1.43528C17.3335 1.51329 17.3152 1.60382 17.3262 1.69318L20.0996 22.7851C19.0119 23.0094 15.6554 23.585 13.5324 22.8374Z" fill="white"></path>
    <path d="M12.8447 1.57373H10.9384C10.8334 1.57373 10.7326 1.61547 10.6583 1.68977C10.584 1.76408 10.5422 1.86485 10.5422 1.96993C10.5422 2.07501 10.584 2.17578 10.6583 2.25008C10.7326 2.32438 10.8334 2.36613 10.9384 2.36613H12.8447C12.9498 2.36613 13.0505 2.32438 13.1248 2.25008C13.1991 2.17578 13.2409 2.07501 13.2409 1.96993C13.2409 1.86485 13.1991 1.76408 13.1248 1.68977C13.0505 1.61547 12.9498 1.57373 12.8447 1.57373ZM9.021 1.57373H7.11477C7.00969 1.57373 6.90891 1.61547 6.83461 1.68977C6.76031 1.76408 6.71857 1.86485 6.71857 1.96993C6.71857 2.07501 6.76031 2.17578 6.83461 2.25008C6.90891 2.32438 7.00969 2.36613 7.11477 2.36613H9.021C9.12608 2.36613 9.22685 2.32438 9.30115 2.25008C9.37545 2.17578 9.4172 2.07501 9.4172 1.96993C9.4172 1.86485 9.37545 1.76408 9.30115 1.68977C9.22685 1.61547 9.12608 1.57373 9.021 1.57373ZM16.6571 1.57373H14.7509C14.6458 1.57373 14.5451 1.61547 14.4708 1.68977C14.3965 1.76408 14.3547 1.86485 14.3547 1.96993C14.3547 2.07501 14.3965 2.17578 14.4708 2.25008C14.5451 2.32438 14.6458 2.36613 14.7509 2.36613H16.6571C16.7622 2.36613 16.863 2.32438 16.9373 2.25008C17.0116 2.17578 17.0533 2.07501 17.0533 1.96993C17.0533 1.86485 17.0116 1.76408 16.9373 1.68977C16.863 1.61547 16.7622 1.57373 16.6571 1.57373Z" fill="white"></path>
  </symbol>
  <symbol fill="none" xmlns="http://www.w3.org/2000/svg" viewBox="0 0 25 24" id="tshirt">
    <path d="M18.6914 11.3C19.1914 11.4 19.6914 11.5 20.1914 11.5C21.0914 11.5 21.8914 11.3 22.6914 11C22.6914 11 21.6914 5 20.6914 3.5C19.4914 2.1 17.9914 1 16.1914 0.5C15.6914 1 13.1914 1.5 12.1914 1.5C11.1914 1.5 8.69141 1 8.19141 0.5C6.39141 1 4.89141 2.1 3.69141 3.5C2.69141 5 1.69141 11 1.69141 11C2.49141 11.3 3.29141 11.5 4.19141 11.5C4.69141 11.5 5.19141 11.4 5.59141 11.3" stroke="white" stroke-linecap="round" stroke-linejoin="round"></path>
    <path d="M19.1914 6C19.1914 6 18.6914 6.5 18.6914 8.5V22.5C18.6914 22.5 17.1914 23.5 12.1914 23.5C7.19141 23.5 5.69141 22.5 5.69141 22.5V8.5C5.69141 6.5 5.19141 6 5.19141 6M16.1914 0.5C15.5914 2.2 13.9914 3.4 12.1914 3.5C10.3914 3.4 8.79141 2.2 8.19141 0.5" stroke="white" stroke-linecap="round" stroke-linejoin="round"></path>
  </symbol>
  <symbol fill="none" xmlns="http://www.w3.org/2000/svg" viewBox="0 0 22 24" id="dress">
    <path d="M0.621955 21.7924C1.51818 22.1848 2.41615 22.5205 3.31527 22.8079C3.36652 22.8485 3.42567 22.8803 3.49305 22.8975C3.53289 22.9076 3.57274 22.9123 3.61211 22.9123C3.62345 22.9123 3.63373 22.9076 3.64495 22.9068C4.8528 23.2755 6.06259 23.5508 7.27358 23.7301C7.31415 23.745 7.35391 23.7621 7.39914 23.7656C7.41133 23.7666 7.42399 23.767 7.43617 23.767C7.45211 23.767 7.46597 23.7599 7.48155 23.7583C8.54283 23.906 9.60476 23.988 10.6668 23.9902C10.6834 23.992 10.6979 24 10.7151 24C10.7322 24 10.7467 23.992 10.7634 23.9902C11.8255 23.988 12.8875 23.9059 13.9489 23.7583C13.9645 23.7599 13.9785 23.767 13.9945 23.767C14.0066 23.767 14.0193 23.7666 14.032 23.7656C14.0774 23.7621 14.1173 23.7449 14.158 23.7299C15.3685 23.5506 16.5779 23.2753 17.7852 22.9068C17.7964 22.9076 17.8067 22.9123 17.818 22.9123C17.8574 22.9123 17.8973 22.9076 17.9371 22.8975C18.0045 22.8803 18.0637 22.8485 18.1149 22.8079C19.014 22.5205 19.912 22.1848 20.8082 21.7924C21.0491 21.687 21.1602 21.4071 21.0576 21.1652L15.0805 7.08867C15.044 6.80019 15.0268 6.51779 15.0195 6.24047L16.9274 6.35672C16.9373 6.35742 16.9471 6.35766 16.9565 6.35766C17.1627 6.35766 17.3479 6.22523 17.4126 6.02719C17.8457 4.70672 17.8213 3.5843 17.3413 2.69086C16.7913 1.66784 15.8325 1.31944 15.6296 1.25522L14.5229 0.760957L13.6565 0.0986719C13.6434 0.0886524 13.6265 0.0872168 13.6126 0.0786914C13.577 0.0566016 13.5405 0.039375 13.4994 0.0271582C13.4718 0.0188965 13.4456 0.0136816 13.417 0.0105176C13.3991 0.00849611 13.3834 0 13.3649 0H8.06524C8.04654 0 8.03067 0.00855469 8.01253 0.0106348C7.98411 0.0137988 7.95819 0.0189844 7.93079 0.0271582C7.88975 0.039375 7.85321 0.0566309 7.81759 0.0786914C7.80367 0.0872168 7.78677 0.0886524 7.77367 0.0986719L6.90766 0.760986L5.80106 1.25522C5.59815 1.31944 4.63935 1.66787 4.0893 2.69109C3.60883 3.58453 3.58492 4.70695 4.01805 6.02719C4.0832 6.22523 4.26789 6.35766 4.47414 6.35766C4.48352 6.35766 4.49336 6.35742 4.5032 6.35672L6.41078 6.24047C6.40346 6.51779 6.38623 6.80019 6.34961 7.08867L0.37258 21.1652C0.269924 21.4073 0.381017 21.687 0.621955 21.7924ZM16.4957 3.14555C16.807 3.72445 16.8435 4.47328 16.6049 5.37539L15.0439 5.28029C15.1449 3.9755 15.49 2.90314 15.7068 2.34234C15.9568 2.48854 16.2763 2.73747 16.4957 3.14555ZM10.7151 1.73024C10.3304 1.60277 9.64967 1.32615 9.13185 0.96H12.2985C11.7808 1.32612 11.1001 1.60274 10.7151 1.73024ZM7.94524 1.17609C8.44586 1.77117 9.25586 2.18789 9.85023 2.43352C9.49539 2.73492 9.0168 3.01594 8.65492 2.74781C8.06477 2.30977 7.80274 1.70695 7.69539 1.36711L7.94524 1.17609ZM13.4849 1.17609L13.7352 1.36711C13.6279 1.70719 13.3659 2.30977 12.7752 2.74781C12.4134 3.01594 11.9348 2.73492 11.5799 2.43352C12.1743 2.18789 12.9848 1.77117 13.4849 1.17609ZM4.92789 3.1582C5.147 2.74395 5.47076 2.49129 5.72418 2.34311C5.94098 2.90414 6.28574 3.97617 6.38647 5.28029L4.8257 5.37539C4.58899 4.47984 4.6232 3.73523 4.92789 3.1582ZM7.25899 7.40344C7.27539 7.36406 7.28711 7.32258 7.29274 7.28016C7.61383 4.8982 6.9543 2.83477 6.60274 1.94859L6.84379 1.84099C7.02174 2.32075 7.37951 2.99684 8.08305 3.51891C8.3732 3.7343 8.67508 3.82289 8.9732 3.82289C9.62365 3.82289 10.2563 3.40104 10.7151 2.95107C11.1739 3.40104 11.8065 3.82289 12.457 3.82289C12.7551 3.82289 13.057 3.7343 13.3471 3.51891C14.0509 2.99684 14.4088 2.32072 14.5868 1.84096L14.8279 1.94859C14.5571 2.63121 14.1053 4.01364 14.0578 5.7007C14.0578 5.70079 14.0577 5.70085 14.0577 5.70094C14.0577 5.70108 14.0578 5.70117 14.0578 5.70132C14.0436 6.20423 14.0638 6.73304 14.1374 7.27992C14.143 7.32258 14.1548 7.36406 14.1712 7.40344L19.9865 21.0998C19.3746 21.3555 18.7617 21.5785 18.1483 21.7833L17.114 17.7251C17.0484 17.468 16.7863 17.3137 16.5304 17.3784C16.2735 17.4441 16.1184 17.7054 16.184 17.9623L17.2311 22.0707C16.2992 22.3431 15.3662 22.5593 14.4323 22.7145L13.9785 16.8173C13.9584 16.5534 13.7334 16.3545 13.4629 16.3755C13.199 16.3959 13.0012 16.6266 13.0213 16.8909L13.4799 22.8503C12.7185 22.9444 11.9569 22.9994 11.1951 23.0158V15.3696C11.1951 15.1045 10.9804 14.8896 10.7151 14.8896C10.4498 14.8896 10.2351 15.1045 10.2351 15.3696V23.0157C9.47345 22.9994 8.71194 22.9444 7.95071 22.8503L8.40883 16.8909C8.42899 16.6266 8.23117 16.3959 7.9668 16.3755C7.70336 16.354 7.4718 16.5534 7.45164 16.8173L6.9983 22.7145C6.06429 22.5592 5.13107 22.343 4.19907 22.0705L5.24617 17.9623C5.3118 17.7054 5.15664 17.4441 4.89977 17.3784C4.64242 17.3133 4.38133 17.468 4.31617 17.7251L3.28188 21.7831C2.66852 21.5782 2.0556 21.3553 1.44367 21.0996L7.25899 7.40344Z" fill="white"></path>
    <path d="M10.7142 6.3593C10.8435 6.3593 10.9635 6.30656 11.0549 6.21539C11.1459 6.12891 11.1942 6.00422 11.1942 5.8793C11.1942 5.74969 11.1459 5.625 11.0549 5.53852C10.8773 5.36086 10.5557 5.36086 10.3729 5.53852C10.2867 5.625 10.2342 5.74969 10.2342 5.8793C10.2342 6.00422 10.2867 6.12891 10.3729 6.21539C10.4643 6.30656 10.589 6.3593 10.7142 6.3593ZM10.7142 9.04266C10.8388 9.04266 10.9635 8.98969 11.0549 8.89852C11.1459 8.81227 11.1942 8.68734 11.1942 8.55773C11.1942 8.43305 11.1459 8.30812 11.0549 8.22187C10.8773 8.04422 10.5557 8.0393 10.3729 8.22187C10.2867 8.30812 10.2342 8.43305 10.2342 8.55773C10.2342 8.68734 10.2867 8.81227 10.3729 8.89852C10.4643 8.98969 10.589 9.04266 10.7142 9.04266ZM10.7142 11.7209C10.8435 11.7209 10.9635 11.673 11.0549 11.5819C11.1459 11.4905 11.1942 11.3705 11.1942 11.2409C11.1942 11.1785 11.1843 11.1162 11.1604 11.0585C11.1313 11.0009 11.0981 10.9481 11.0549 10.905C10.8773 10.7227 10.5557 10.7227 10.3729 10.905C10.3298 10.9481 10.2965 11.0009 10.2721 11.0585C10.2482 11.1162 10.2342 11.1785 10.2342 11.2409C10.2342 11.3705 10.2867 11.4905 10.3729 11.5819C10.4643 11.673 10.589 11.7209 10.7142 11.7209Z" fill="white"></path>
  </symbol>
  <symbol fill="none" xmlns="http://www.w3.org/2000/svg" viewBox="0 0 25 24" id="hoodie">
    <path d="M19.4279 7.43668C19.2958 5.97372 18.3643 4.9779 17.0071 4.69929C17.0335 3.58625 16.7765 2.83772 16.7646 2.80364C16.7535 2.77241 16.7381 2.7429 16.7187 2.71598C15.2829 0.719463 12.4109 0.867637 12.3034 0.874593C8.43975 0.962246 7.53645 2.55355 7.48601 2.6499C7.22062 3.26903 7.17784 4.2099 7.17471 4.69233H7.17402C5.86828 4.95668 5.03001 5.72885 4.94097 7.03668L2.96532 20.5219C2.95141 20.6193 2.98271 20.7236 3.0488 20.8002C3.10445 20.8628 3.17749 20.901 3.25749 20.9149V21.8889C3.25749 22.0802 3.41054 22.2367 3.60532 22.2367H5.05575C5.24706 22.2367 5.40358 22.0802 5.40358 21.8889V20.901C5.52532 20.8697 5.61923 20.7723 5.64706 20.6436L7.07662 13.9306L7.14967 20.3515C7.15314 20.4976 7.24358 20.6262 7.38271 20.6749C7.52532 20.7236 7.66445 20.7723 7.80706 20.8176V22.3689C7.80706 22.5323 7.92184 22.6749 8.08532 22.7097C9.41054 22.988 10.7636 23.1306 12.1375 23.1306C13.5114 23.1306 14.9062 22.988 16.3079 22.7097C16.4714 22.6749 16.5862 22.5323 16.5862 22.3689V20.7758C16.6905 20.7445 16.7984 20.7132 16.9027 20.6784C17.0488 20.6332 17.1462 20.501 17.1462 20.348L17.1636 13.9341L18.694 20.6471C18.7288 20.8071 18.8714 20.9184 19.0314 20.9184V21.8889C19.0314 22.0802 19.1879 22.2367 19.3792 22.2367H20.8297C21.021 22.2367 21.1775 22.0802 21.1775 21.8889V20.901C21.2401 20.8836 21.2923 20.8489 21.334 20.7967C21.4001 20.7202 21.4314 20.6193 21.4175 20.5184L19.4279 7.43668ZM16.3086 4.31007C16.3138 4.45025 16.3128 4.6019 16.3072 4.75877C15.7333 5.04746 15.2085 5.27703 14.7392 5.46138C15.3758 5.02659 15.9392 4.59877 16.3045 4.31355L16.3086 4.31007ZM12.0505 6.18833C10.6871 5.41616 9.30271 4.59529 8.34619 3.75007C9.44532 3.2979 12.4471 2.35181 15.8488 3.78485C15.0488 4.41094 13.3097 5.6979 12.0505 6.18833ZM8.11628 2.94555C8.20149 2.81894 9.08149 1.64329 12.3319 1.5692C12.3577 1.56851 14.8989 1.44085 16.1222 3.07877L16.1424 3.15042C12.4495 1.58346 9.24358 2.60885 8.05784 3.1132C8.07482 3.05671 8.09431 3.001 8.11628 2.94625V2.94555ZM7.88323 4.27077L7.88358 4.27112C8.45749 4.77546 9.16358 5.2659 9.92532 5.73894C9.21337 5.48312 8.52565 5.16429 7.87036 4.78625C7.87036 4.65964 7.87245 4.47842 7.88323 4.27112V4.27077ZM4.70793 21.541H3.95315V20.9184H4.70793V21.541ZM15.8905 22.0802C13.3723 22.5497 10.8888 22.5532 8.50271 22.0836V21.0193C9.65054 21.3219 10.8262 21.4749 12.0262 21.4749C13.2923 21.4749 14.5827 21.308 15.8905 20.9671V22.0802ZM20.4818 21.541H19.7271V20.9184H20.4818V21.541ZM19.3097 20.2228L17.1671 10.8036C17.1253 10.6297 16.9688 10.5149 16.7879 10.5323C16.614 10.5532 16.4784 10.7028 16.4784 10.8767L16.4505 20.0906C13.5521 20.9741 10.6498 21.0311 7.85923 20.101C7.85228 20.101 7.8488 20.101 7.84184 20.0976L7.73401 10.7897C7.73054 10.6158 7.59836 10.4662 7.42097 10.4489C7.24706 10.4315 7.08358 10.5497 7.04532 10.7236L5.02445 20.2228H3.71315L5.63315 7.1132C5.70549 6.04468 6.37088 5.53059 7.45228 5.34972C7.80358 5.55842 8.9201 6.19146 10.301 6.59842V10.668C10.301 10.8593 10.4575 11.0158 10.6488 11.0158C10.8401 11.0158 10.9966 10.8593 10.9966 10.668V6.77581C11.8655 6.96364 12.0238 6.98451 13.0627 6.74103V10.668C13.0627 10.8593 13.2192 11.0158 13.4105 11.0158C13.6053 11.0158 13.7584 10.8593 13.7584 10.668V6.54625C14.5166 6.31668 15.501 5.94451 16.6905 5.34625C17.8878 5.5299 18.6231 6.30764 18.7392 7.52016L20.6662 20.2228H19.3097Z" fill="white"></path>
    <path d="M15.7375 15.9617C14.7114 15.3009 14.7288 13.5548 14.7288 13.5374C14.7288 13.4435 14.694 13.3531 14.6279 13.287C14.5618 13.2209 14.4749 13.1826 14.381 13.1826H9.81402C9.7201 13.1826 9.62967 13.2209 9.56706 13.287C9.50097 13.3531 9.46619 13.4435 9.46619 13.5374C9.49749 15.3739 8.59315 15.9304 8.55836 15.9478C8.45054 16.0104 8.38097 16.1252 8.38097 16.2539V17.4191C8.38097 17.6104 8.53749 17.767 8.7288 17.767H15.5462C15.741 17.767 15.894 17.6104 15.894 17.4191V16.2539C15.8943 16.196 15.8801 16.139 15.8528 16.088C15.8255 16.037 15.7858 15.9936 15.7375 15.9617ZM15.1984 17.0713H9.07662V16.4313C9.41054 16.16 10.0888 15.4226 10.1584 13.8783H14.0471C14.0958 14.4904 14.3045 15.7357 15.1984 16.4313V17.0713Z" fill="white"></path>
  </symbol>
  <symbol fill="none" xmlns="http://www.w3.org/2000/svg" viewBox="0 0 12 24" id="komb">
    <path d="M10.6052 12.2668C10.5885 11.9576 10.5425 11.6506 10.4676 11.3501L8.81758 4.734C8.78215 4.59178 8.70014 4.46551 8.5846 4.37532C8.46906 4.28513 8.32665 4.23622 8.18008 4.23637H7.71808L7.73214 3.99563H7.90577C8.01252 3.99559 8.11552 3.95622 8.19508 3.88504C8.27464 3.81385 8.32517 3.71584 8.33702 3.60975L8.68746 0.48225C8.69424 0.421571 8.68814 0.360144 8.66956 0.301982C8.65098 0.243821 8.62034 0.190233 8.57964 0.14472C8.53894 0.099207 8.48909 0.0627923 8.43336 0.0378548C8.37763 0.0129174 8.31727 1.82068e-05 8.25621 0H7.36239C7.25564 3.18346e-05 7.15264 0.0394031 7.07309 0.110589C6.99353 0.181774 6.943 0.27978 6.93115 0.385875L6.58071 3.51319C6.5739 3.57388 6.57998 3.63533 6.59855 3.69351C6.61711 3.7517 6.64775 3.80531 6.68845 3.85084C6.72915 3.89638 6.77901 3.93281 6.83475 3.95776C6.8905 3.98271 6.95088 3.99561 7.01196 3.99563H7.16833L7.15427 4.23637H4.03652L4.02246 3.99563H4.17883C4.23991 3.99561 4.30029 3.98271 4.35604 3.95776C4.41178 3.93281 4.46164 3.89638 4.50234 3.85084C4.54304 3.80531 4.57368 3.7517 4.59225 3.69351C4.61081 3.63533 4.61689 3.57388 4.61008 3.51319L4.2604 0.385875C4.24854 0.27978 4.19801 0.181774 4.11845 0.110589C4.0389 0.0394031 3.9359 3.18346e-05 3.82915 0H2.93533C2.87425 4.17932e-05 2.81386 0.0129698 2.75812 0.0379396C2.70237 0.0629093 2.65252 0.099359 2.61182 0.144908C2.57112 0.190456 2.54049 0.244079 2.52192 0.302273C2.50336 0.360466 2.49728 0.421922 2.50408 0.482625L2.85415 3.60975C2.866 3.71584 2.91653 3.81385 2.99609 3.88504C3.07564 3.95622 3.17864 3.99559 3.2854 3.99563H3.45902L3.47308 4.23637H3.01033C2.86376 4.23622 2.72136 4.28513 2.60582 4.37532C2.49028 4.46551 2.40826 4.59178 2.37283 4.734L0.722833 11.3501C0.647971 11.6506 0.601887 11.9574 0.585208 12.2666L0.000957589 23.0329C-0.00386173 23.122 0.00954603 23.2112 0.040361 23.2949C0.071176 23.3787 0.118751 23.4553 0.180176 23.52C0.241602 23.5847 0.315587 23.6363 0.397608 23.6714C0.47963 23.7066 0.567963 23.7247 0.657208 23.7246H4.26246C4.42314 23.7246 4.57824 23.6656 4.69837 23.5589C4.81849 23.4522 4.89529 23.3051 4.91421 23.1456L5.59558 17.3964L6.27696 23.1461C6.29587 23.3057 6.37267 23.4528 6.4928 23.5595C6.61292 23.6662 6.76803 23.7251 6.92871 23.7251H10.5341C10.6234 23.7253 10.7117 23.7072 10.7937 23.672C10.8758 23.6368 10.9498 23.5853 11.0112 23.5206C11.0726 23.4558 11.1202 23.3792 11.151 23.2955C11.1818 23.2117 11.1952 23.1226 11.1904 23.0334L10.6052 12.2668ZM7.47715 0.5625H8.11258L7.79102 3.43313H7.15577L7.47715 0.5625ZM3.07858 0.5625H3.71402L4.0354 3.43313H3.40015L3.07858 0.5625ZM10.6018 23.1328C10.5931 23.1421 10.5825 23.1494 10.5708 23.1544C10.5591 23.1595 10.5465 23.1621 10.5338 23.1621H6.92871C6.90565 23.1622 6.88334 23.1539 6.86604 23.1386C6.84874 23.1234 6.83768 23.1023 6.83496 23.0794L6.06115 16.5443C6.04777 16.4302 5.99297 16.325 5.90715 16.2486C5.82132 16.1723 5.71045 16.1301 5.59558 16.1301C5.48071 16.1301 5.36984 16.1723 5.28402 16.2486C5.19819 16.325 5.14339 16.4302 5.13002 16.5443L4.35546 23.0794C4.35274 23.1023 4.34167 23.1234 4.32438 23.1386C4.30708 23.1539 4.28477 23.1622 4.26171 23.1621H0.65702C0.644271 23.1621 0.631652 23.1595 0.619935 23.1545C0.608218 23.1494 0.597648 23.1421 0.588873 23.1328C0.580098 23.1236 0.573301 23.1126 0.568899 23.1007C0.564497 23.0887 0.562582 23.076 0.56327 23.0632L1.14771 12.2964C1.16246 12.023 1.2032 11.7516 1.26939 11.4859L2.9194 4.86975C2.92442 4.84942 2.9361 4.83137 2.95259 4.81845C2.96907 4.80554 2.9894 4.79852 3.01033 4.7985H8.18083C8.20177 4.79852 8.2221 4.80554 8.23858 4.81845C8.25506 4.83137 8.26675 4.84942 8.27177 4.86975L9.92177 11.4859C9.98795 11.7517 10.0288 12.0231 10.0436 12.2966L10.6277 23.0629C10.6284 23.0757 10.6265 23.0885 10.622 23.1005C10.6176 23.1126 10.6107 23.1235 10.6018 23.1328Z" fill="white"></path>
    <path d="M7.30748 7.01471H3.88373C3.70968 7.01471 3.54276 7.08385 3.41969 7.20692C3.29662 7.32999 3.22748 7.49691 3.22748 7.67096V9.83096C3.22783 10.1561 3.35713 10.4678 3.58702 10.6977C3.81691 10.9276 4.12861 11.0569 4.45373 11.0572H6.73748C7.06259 11.0569 7.37429 10.9276 7.60418 10.6977C7.83408 10.4678 7.96338 10.1561 7.96373 9.83096V7.67096C7.96373 7.58478 7.94675 7.49944 7.91377 7.41982C7.88079 7.3402 7.83246 7.26786 7.77152 7.20692C7.71058 7.14598 7.63823 7.09764 7.55861 7.06466C7.47899 7.03168 7.39366 7.01471 7.30748 7.01471ZM7.40123 9.83096C7.40108 10.0069 7.3311 10.1757 7.20666 10.3001C7.08221 10.4246 6.91347 10.4946 6.73748 10.4947H4.45373C4.27774 10.4946 4.109 10.4246 3.98455 10.3001C3.86011 10.1757 3.79013 10.0069 3.78998 9.83096V7.67096C3.78998 7.64609 3.79985 7.62225 3.81744 7.60467C3.83502 7.58708 3.85886 7.57721 3.88373 7.57721H7.30748C7.33234 7.57721 7.35619 7.58708 7.37377 7.60467C7.39135 7.62225 7.40123 7.64609 7.40123 7.67096V9.83096ZM8.05185 6.15071C6.42553 5.87489 4.76437 5.87489 3.13804 6.15071C3.06853 6.16246 3.00596 6.1999 2.96274 6.25559C2.91952 6.31129 2.89879 6.38119 2.90466 6.45145C2.91054 6.5217 2.94258 6.58719 2.99445 6.63494C3.04632 6.68269 3.11423 6.70922 3.18473 6.70927C3.20063 6.70928 3.2165 6.7079 3.23217 6.70514C4.79638 6.43993 6.39408 6.43993 7.95829 6.70514C8.03186 6.71758 8.10736 6.70027 8.16818 6.65704C8.22899 6.61381 8.27014 6.54819 8.28257 6.47461C8.295 6.40104 8.2777 6.32554 8.23447 6.26473C8.19123 6.20391 8.12561 6.16276 8.05204 6.15033L8.05185 6.15071Z" fill="white"></path>
    <path d="M6.9319 8.13867H4.25928C4.18469 8.13867 4.11315 8.1683 4.0604 8.22105C4.00766 8.27379 3.97803 8.34533 3.97803 8.41992C3.97803 8.49451 4.00766 8.56605 4.0604 8.6188C4.11315 8.67154 4.18469 8.70117 4.25928 8.70117H6.9319C7.00649 8.70117 7.07803 8.67154 7.13078 8.6188C7.18352 8.56605 7.21315 8.49451 7.21315 8.41992C7.21315 8.34533 7.18352 8.27379 7.13078 8.22105C7.07803 8.1683 7.00649 8.13867 6.9319 8.13867Z" fill="white"></path>
  </symbol>
  <symbol fill="none" xmlns="http://www.w3.org/2000/svg" viewBox="0 0 21 24" id="kost">
    <path d="M16.2116 18.4045C16.2301 18.5357 16.1958 18.669 16.1161 18.7749C16.0364 18.8808 15.918 18.9508 15.7867 18.9694C15.7668 18.9694 15.7415 18.9747 15.7164 18.9747C15.5962 18.9738 15.4802 18.9299 15.3894 18.851C15.2986 18.7721 15.239 18.6634 15.2213 18.5445C15.2119 18.4794 15.2154 18.4132 15.2317 18.3495C15.248 18.2858 15.2768 18.226 15.3163 18.1735C15.3558 18.121 15.4053 18.0769 15.462 18.0436C15.5187 18.0103 15.5814 17.9886 15.6465 17.9796H15.648C15.9177 17.9454 16.1768 18.135 16.2116 18.4045ZM20.9013 6.18535L19.9015 8.68534C19.8642 8.77805 19.8002 8.85753 19.7174 8.91355C19.6347 8.96958 19.5371 8.99961 19.4372 8.99978C19.3342 8.99978 19.2321 8.96821 19.1466 8.90658L16.4364 6.97055L16.2602 8.7181C16.2602 8.72316 16.2607 8.72822 16.2605 8.73328L16.094 11.2973C16.0714 11.5438 16.0484 11.7683 16.0261 11.9872C15.9383 12.8427 15.8626 13.5814 15.9353 14.4583C15.9359 14.464 15.9347 14.4696 15.935 14.4753C15.9356 14.4836 15.9374 14.4914 15.9374 14.4997V16.4997C15.9374 16.7519 15.7504 16.9583 15.5077 16.9925C15.4848 16.9958 15.4616 16.9997 15.4374 16.9997H14.4376C14.3049 16.9997 14.1777 16.947 14.084 16.8532C13.9902 16.7594 13.9375 16.6322 13.9375 16.4996C13.9375 16.367 13.9902 16.2398 14.084 16.146C14.1777 16.0522 14.3049 15.9995 14.4376 15.9995H14.9375V14.9996H6.93671L6.93344 15.9995H7.43665C7.56928 15.9995 7.69648 16.0522 7.79027 16.146C7.88405 16.2398 7.93674 16.367 7.93674 16.4996C7.93674 16.6322 7.88405 16.7594 7.79027 16.8532C7.69648 16.947 7.56928 16.9997 7.43665 16.9997H6.87031L6.30159 20.9998H9.92681C10.0338 20.8456 10.1766 20.7195 10.3429 20.6325C10.5092 20.5455 10.6942 20.5 10.8819 20.5C11.0696 20.5 11.2545 20.5455 11.4208 20.6325C11.5872 20.7195 11.7299 20.8456 11.8369 20.9998H15.5717L15.5068 20.5249C15.4971 20.4599 15.5005 20.3937 15.5169 20.3302C15.5332 20.2666 15.5621 20.207 15.6018 20.1547C15.6816 20.049 15.8 19.979 15.9311 19.96H15.932C16.2018 19.9201 16.457 20.1148 16.4969 20.3849L16.6469 21.4297V21.4333L16.9319 23.4292C16.9421 23.5001 16.9369 23.5725 16.9167 23.6412C16.8965 23.71 16.8617 23.7736 16.8148 23.8278C16.7678 23.8819 16.7097 23.9253 16.6445 23.955C16.5793 23.9848 16.5084 24.0001 16.4367 24H11.9367C11.8211 23.9999 11.7092 23.9598 11.6198 23.8865C11.5305 23.8133 11.4693 23.7113 11.4466 23.598L11.0634 21.6825C11.0588 21.6704 11.0545 21.6582 11.0506 21.6459L11.0464 21.6346C11.0023 21.4723 10.7805 21.4658 10.7206 21.6266L10.7194 21.6352C10.7133 21.6547 10.7067 21.6741 10.6995 21.6933L10.4315 23.5706C10.4145 23.6898 10.3551 23.7988 10.2642 23.8777C10.1733 23.9566 10.057 24 9.93664 24H5.4366C5.365 23.9999 5.29426 23.9844 5.22915 23.9547C5.16404 23.9249 5.10608 23.8815 5.05919 23.8273C5.01231 23.7732 4.97758 23.7097 4.95737 23.641C4.93716 23.5723 4.93192 23.5001 4.94202 23.4292L5.22638 21.4375V21.4297L5.93654 16.4598V14.5C5.93654 14.4928 5.93862 14.486 5.93892 14.4791C5.93922 14.472 5.93773 14.4654 5.93833 14.4586C6.01128 13.5817 5.93535 12.8427 5.84781 11.9875C5.82548 11.7686 5.80225 11.5441 5.78081 11.3107L5.70965 10.2185V10.2182L5.50985 7.14027C5.50896 7.13491 5.50717 7.12985 5.50658 7.12478L5.48752 6.93452L2.72699 8.90658C2.66548 8.95088 2.59464 8.98052 2.51991 8.99321C2.44518 9.00591 2.36853 9.00133 2.29584 8.97983C2.22316 8.95835 2.15628 8.92071 2.10023 8.86971C2.04418 8.8187 2.0004 8.75567 1.97217 8.68534L0.972296 6.18535C0.934352 6.09058 0.926369 5.98645 0.949421 5.887C0.972474 5.78755 1.02545 5.69756 1.10123 5.62914C4.10502 2.9103 4.92029 2.18585 5.16743 1.97831C5.22698 1.92829 5.25318 1.90864 5.26926 1.89822C5.27551 1.89405 5.27998 1.88809 5.28653 1.88452C5.74151 1.6344 6.24651 1.49981 6.7518 1.49981H7.6692L8.52079 0.222426C8.54134 0.191757 8.56546 0.164661 8.59166 0.139947L8.60476 0.127143C8.63037 0.104514 8.65806 0.0848615 8.68754 0.0675914C8.69349 0.0640183 8.69975 0.0610407 8.7057 0.0577654C8.73637 0.0416864 8.76823 0.0282871 8.80188 0.0187588L8.8126 0.0163769C8.84446 0.00803959 8.87721 0.00357327 8.91056 0.00178671C8.91473 0.00148895 8.9189 0 8.92307 0L8.92843 0.000595476L8.93706 0H12.9372L12.9446 0.000595476L12.9509 0C12.955 0.000297759 12.9592 0.00178671 12.9634 0.00178671C12.997 0.00357327 13.0301 0.00833735 13.0619 0.0163769L13.0723 0.0187588C13.1447 0.0402922 13.2117 0.0771559 13.2686 0.126846C13.2736 0.131312 13.2784 0.136374 13.2832 0.141138C13.3088 0.165554 13.3326 0.192352 13.3528 0.222426L13.3531 0.222724L14.2047 1.50011H15.1221C15.6518 1.50011 16.1821 1.65018 16.652 1.92501C16.6568 1.92799 16.6603 1.93216 16.6648 1.93514C16.6773 1.94348 16.697 1.95866 16.7437 1.99797C16.9527 2.17513 17.704 2.84658 20.7733 5.62974C20.9275 5.76968 20.9787 5.99122 20.9013 6.18535ZM19.2095 7.72298L19.8437 6.13682C18.83 5.21719 17.8148 4.2992 16.7982 3.38284L16.552 5.82477L19.2095 7.72298ZM5.36574 5.79261L5.12812 3.34503C4.09338 4.27328 3.06075 5.20388 2.03023 6.13682L2.66446 7.72239L5.36574 5.79261ZM8.53777 1.99945L8.51365 2.03578L8.7456 2.49969L9.07373 3.15565L9.7297 2.49969L9.77674 2.45294L9.437 1.99975L9.06182 1.49981L8.96058 1.36493L8.87096 1.49981L8.53777 1.99945ZM9.97713 0.999578L10.377 1.49952L10.7769 1.99945L10.9368 2.19925L11.0964 1.99945L11.4963 1.49952L11.8962 0.999578H9.97713ZM13.0027 1.49952L12.913 1.36463L12.8121 1.49952L12.4369 1.99945L12.0972 2.45264L12.1439 2.49939L12.7999 3.15536L13.128 2.49939L13.36 2.03548L13.3359 1.99916L13.0027 1.49952ZM6.7518 2.49939C6.51687 2.49939 6.2873 2.53959 6.06279 2.62415L6.0619 2.62445L6.09078 2.91298L6.4862 6.84608C6.58059 6.93988 6.71756 7.07178 6.89175 7.22989C7.54593 7.81678 8.89776 8.91819 10.4071 9.50061C10.4592 9.52026 10.511 9.54051 10.5634 9.55897C10.5703 9.56135 10.5768 9.56343 10.5834 9.56611C11.1691 9.77038 11.7786 9.89305 12.3869 9.88144C12.4167 9.88055 12.4462 9.87995 12.4756 9.87876C12.5523 9.87554 12.6289 9.86998 12.7052 9.86209L12.7564 9.85643C12.9092 9.8388 13.0607 9.81185 13.2102 9.77574L13.2573 9.76412C13.7054 9.648 14.1297 9.44671 14.5278 9.16146C14.54 9.15253 14.5522 9.14419 14.5644 9.13496C14.6013 9.10786 14.6377 9.07958 14.674 9.05099C14.7011 9.02955 14.7285 9.00841 14.7553 8.98638C14.8156 8.93655 14.8749 8.88542 14.933 8.83303C14.9503 8.81755 14.9673 8.80117 14.9846 8.78539C15.0552 8.7199 15.1239 8.65238 15.1906 8.58291L15.2329 8.53914C15.2493 8.52157 15.2653 8.50282 15.2817 8.48495L15.5131 6.17761L15.8665 2.64887L15.8618 2.64708C15.6273 2.54918 15.3758 2.49878 15.1218 2.4988H14.2458L13.3841 4.22253C13.3485 4.29328 13.2967 4.35459 13.2328 4.40142C13.169 4.44826 13.0949 4.47928 13.0168 4.49195C12.9386 4.50462 12.8585 4.49857 12.7832 4.47431C12.7078 4.45004 12.6392 4.40824 12.5831 4.35235L11.4228 3.19168L11.3272 3.31138C11.2803 3.36992 11.2209 3.41717 11.1534 3.44965C11.0858 3.48212 11.0118 3.49898 10.9368 3.49898C10.8618 3.49898 10.7878 3.48212 10.7203 3.44965C10.6527 3.41717 10.5933 3.36992 10.5465 3.31138L10.4509 3.19168L9.2902 4.35324C9.23428 4.40938 9.16578 4.45138 9.09039 4.47577C9.01499 4.50016 8.93487 4.50623 8.85667 4.49349C8.77849 4.48067 8.70446 4.44952 8.64064 4.40258C8.57682 4.35563 8.52504 4.29424 8.48953 4.22342L7.62781 2.49969H6.7518V2.49939ZM9.19284 13.8738C9.14311 13.8396 9.09279 13.8059 9.04396 13.7711C8.96118 13.7121 8.88108 13.6514 8.80069 13.5909C8.7593 13.56 8.71731 13.5296 8.67682 13.498C8.5832 13.425 8.49059 13.3506 8.39901 13.275C8.3743 13.2548 8.34899 13.2351 8.32457 13.2149C8.09667 13.0243 7.87521 12.8262 7.66057 12.6208C7.63139 12.5928 7.60399 12.5648 7.57511 12.5369C7.50097 12.4645 7.42683 12.3924 7.35536 12.3198C7.31695 12.2808 7.28033 12.2415 7.24251 12.2025C7.18356 12.1411 7.1243 12.0801 7.06713 12.0185C7.02434 11.9723 6.98196 11.9257 6.93999 11.8788C6.90336 11.8383 6.86555 11.7978 6.82952 11.7576L6.84262 11.8848C6.91468 12.5863 6.98346 13.2562 6.96441 14H9.37506C9.31313 13.9587 9.25358 13.9158 9.19284 13.8738ZM14.9089 13.9998C14.8899 13.2559 14.9586 12.586 15.031 11.8845C15.053 11.6695 15.0754 11.4494 15.0962 11.2196L15.1802 9.9264C15.151 9.94844 15.1203 9.9669 15.0909 9.98804C15.0804 9.99548 15.07 10.002 15.0599 10.0095C14.546 10.3704 13.9936 10.6196 13.4064 10.7563L13.3621 10.7664C13.11 10.8227 12.8538 10.8582 12.5959 10.8724C12.5462 10.8754 12.4971 10.8807 12.447 10.8819C12.4003 10.8828 12.3539 10.8834 12.3074 10.8834C11.5109 10.8834 10.7281 10.6964 9.99232 10.4109C9.94438 10.3924 9.89585 10.3751 9.8485 10.3558C9.80592 10.3382 9.76394 10.3197 9.72166 10.3019C8.81915 9.91658 7.99852 9.39252 7.32827 8.88961C7.07522 8.69962 6.82806 8.50192 6.58714 8.29677L6.69821 10.0062V10.0077L6.74972 10.0762L6.80957 10.1557L6.92867 10.3105L6.99865 10.3998C7.04033 10.4522 7.08321 10.5055 7.12728 10.5597L7.20827 10.6583C7.25264 10.7119 7.29849 10.7661 7.34524 10.8212C7.37561 10.8566 7.40568 10.8923 7.43725 10.9284C7.48429 10.9826 7.53313 11.0373 7.58255 11.0927L7.68439 11.2062C7.73441 11.261 7.78652 11.3163 7.83863 11.3717C7.87585 11.411 7.91217 11.4503 7.95058 11.4899C8.00359 11.5447 8.05807 11.5995 8.11316 11.6546C8.15366 11.6951 8.19356 11.7359 8.23494 11.7764C8.29062 11.8309 8.34839 11.8851 8.40586 11.9393C8.44933 11.9803 8.49221 12.0217 8.53657 12.0628C8.59583 12.117 8.65717 12.1709 8.7185 12.2248C8.76406 12.2653 8.80902 12.3058 8.85577 12.346C8.9192 12.4005 8.985 12.4538 9.05051 12.5077C9.09755 12.5464 9.14371 12.5857 9.19194 12.6241C9.2634 12.681 9.33755 12.7361 9.41109 12.7917C9.45576 12.8257 9.49893 12.8602 9.54449 12.8936C9.6633 12.9808 9.78478 13.066 9.90895 13.1491C9.95183 13.1779 9.99679 13.2044 10.0403 13.2327C10.1236 13.2866 10.207 13.3411 10.2931 13.3929C10.3496 13.4269 10.4086 13.459 10.4664 13.4921C10.5414 13.5352 10.6158 13.5793 10.6924 13.6204C10.7549 13.6541 10.8195 13.6847 10.8829 13.7172C10.9574 13.7547 11.0312 13.7931 11.1074 13.8288C11.1735 13.8598 11.2417 13.8881 11.309 13.9176C11.3718 13.945 11.4332 13.9741 11.4969 14H14.9089V13.9998ZM9.64573 21.9997H6.15599L6.01306 22.9995H9.5031L9.64573 21.9997ZM15.7176 21.9997H12.1466L12.3464 22.9995H15.86L15.7176 21.9997Z" fill="white"></path>
  </symbol>
  <symbol fill="none" xmlns="http://www.w3.org/2000/svg" viewBox="0 0 30 30" id="menu">
    <path d="M25.0625 13.75H4.9375C4.28166 13.75 3.75 14.2817 3.75 14.9375V15.0625C3.75 15.7183 4.28166 16.25 4.9375 16.25H25.0625C25.7183 16.25 26.25 15.7183 26.25 15.0625V14.9375C26.25 14.2817 25.7183 13.75 25.0625 13.75Z" fill="white"></path>
    <path d="M25.0625 20H4.9375C4.28166 20 3.75 20.5317 3.75 21.1875V21.3125C3.75 21.9683 4.28166 22.5 4.9375 22.5H25.0625C25.7183 22.5 26.25 21.9683 26.25 21.3125V21.1875C26.25 20.5317 25.7183 20 25.0625 20Z" fill="white"></path>
    <path d="M25.0625 7.5H4.9375C4.28166 7.5 3.75 8.03166 3.75 8.6875V8.8125C3.75 9.46834 4.28166 10 4.9375 10H25.0625C25.7183 10 26.25 9.46834 26.25 8.8125V8.6875C26.25 8.03166 25.7183 7.5 25.0625 7.5Z" fill="white"></path>
  </symbol>
</svg>